<svg xmlns="http://www.w3.org/2000/svg" width="2000" height="2000" viewBox="0 0 200 200">
  <path d="M158.343,95.485a100.212,100.212,0,0,0-17.17-5.859c-2.71-.259-7.572-3.719-9.7-1.9-1.251,1.139-1.48,3.882.476,4.383,6.139,1.667,12.912,1.424,18.546,4.632-6.819-.409-13.625.447-20.438.309a132.8,132.8,0,0,0-15.376-.873c-9.712-.11-19.272,1.927-28.922,2.753-5.952.678-11.962-.2-17.917.446-5.7.534-11.311,1.614-16.966,2.454-4.462.827-11.507.028-13.419,5.154-.2.985-.075,2.38.917,2.933,1.269.793,2.417-.375,3.655-.65,7-1.119,13.995-2.314,20.971-3.638,14.642-1.822,29.251-3.447,44.008-2.081,8.895.09,17.742-1.137,26.647-.576,4.289.319,8.581.909,12.879,1.327q-3.715,1.478-7.427,2.957c-2.007.74-2.913,4.092-1.039,5.428,3.015.672,6.048-1.881,8.949-2.652,4.923-2.137,10.589-2.856,15.008-6a4.115,4.115,0,0,0,1.5-2.595,4.428,4.428,0,0,0,.17-.913C164.127,97.36,160.593,96.546,158.343,95.485Z"/>
</svg>
