<?xml version="1.0" encoding="utf-8"?>
<!-- Generator: Adobe Illustrator 26.1.0, SVG Export Plug-In . SVG Version: 6.00 Build 0)  -->
<svg version="1.1" id="Layer_1" xmlns="http://www.w3.org/2000/svg" xmlns:xlink="http://www.w3.org/1999/xlink" x="0px" y="0px"
	 viewBox="0 0 739.84 723.99" style="enable-background:new 0 0 739.84 723.99;" xml:space="preserve">
<style type="text/css">
	.st0{fill:#FF8DFC;}
	.st1{fill:#231F20;}
</style>
<g>
	<path class="st0" d="M373.51,460.71c-4.35,12.88-12.48,27.92-26.05,27.57c-12.96-0.33-20.75-15.21-21.34-28.21
		c-0.74-15.92,4.84-31.39,10.58-46.25c3.82-9.91,13.77-27.91,24.04-25.35c12.02,5.89,18.78,19.53,19.81,32.91
		C381.58,434.76,377.79,448.01,373.51,460.71z"/>
	<path class="st0" d="M550.6,453.62c-0.61,13-8.38,27.88-21.35,28.21c-13.56,0.34-21.7-14.69-26.03-27.57
		c-4.29-12.7-8.08-25.96-7.04-39.32c1.03-13.38,7.79-27.02,19.8-32.91c10.28-2.57,20.24,15.44,24.06,25.35
		C545.75,422.23,551.33,437.7,550.6,453.62z"/>
	<g>
		<path class="st1" d="M38.19,176.54c-4.73-9.43-7.94-19.48-9.25-29.93c-0.05-0.37-0.08-0.66-0.14-1.36
			c-0.06-0.63-0.11-1.27-0.16-1.9c-0.1-1.33-0.16-2.67-0.19-4c-0.03-1.21-0.03-2.42-0.02-3.62c0.01-0.64,0.02-1.27,0.05-1.91
			c0.01-0.38,0.03-0.76,0.05-1.14c0.01-0.11,0.07-1.15,0.03-0.57c0.17-2.66,0.49-5.32,0.93-7.95c0.4-2.38,0.95-4.99,1.47-6.94
			c0.76-2.82,1.67-5.59,2.73-8.31c1.17-2.98,2.65-5.96,3.03-9.17c0.09-0.8-0.46-3.77-1.95-2.82c-2.43,1.55-3.62,4.45-4.72,7
			c-1.1,2.56-1.99,5.23-2.77,7.91c-1.57,5.41-2.66,10.97-3.15,16.58c-1.02,11.55,0.19,23.2,3.73,34.25
			c1.9,5.94,4.61,11.46,8.11,16.62c0.49,0.72,1.36,0.81,1.92,0.13C38.48,178.69,38.61,177.39,38.19,176.54L38.19,176.54z"/>
	</g>
	<g>
		<path class="st1" d="M42.94,130.3c5.04-23.84,11-49.11,28.4-66.72c2.25-2.28,4.68-4.38,7.21-6.34c1.19-0.92,2.37-1.84,3.62-2.68
			c1.57-1.05,3.08-2.1,4.16-3.66c1.01-1.45,0.58-4.56-1.44-4.83c-1.46-0.19-2.95,0.54-4.22,1.23c-1.37,0.75-2.74,1.62-4.02,2.51
			c-2.38,1.65-4.59,3.5-6.68,5.51c-4.35,4.18-8.17,8.96-11.45,14.02c-7.25,11.2-11.57,23.85-14.69,36.74
			c-1.83,7.57-2.98,15.25-4.14,22.94c-0.15,1.03,0.11,2.67,1.24,3.09C42.12,132.55,42.75,131.2,42.94,130.3L42.94,130.3z"/>
	</g>
	<g>
		<path class="st1" d="M81.17,82.63c11.82-19.31,30.05-34.76,50.75-43.83c2.88-1.26,5.83-2.38,8.78-3.49
			c3.08-1.15,6.14-2.37,9.27-3.4c1.21-0.4,1.46-2.32,1.34-3.34c-0.11-0.91-0.74-2.76-2.01-2.57c-3.04,0.47-6.08,0.98-9.03,1.85
			c-2.78,0.82-5.5,1.82-8.18,2.94c-5.35,2.25-10.53,4.93-15.47,7.99C106.6,45,97.57,52.85,90.07,61.94
			c-4.34,5.26-8.24,10.86-11.58,16.81c-0.66,1.17-0.7,2.83,0.1,3.95C79.29,83.7,80.52,83.7,81.17,82.63L81.17,82.63z"/>
	</g>
	<g>
		<path class="st1" d="M145.76,49.83c16.89-9.9,37.33-14.07,56.75-11.66c2.74,0.34,5.46,0.86,8.19,1.28
			c1.38,0.21,2.72,0.49,4.11,0.54c1.35,0.05,2.7,0.21,4.05,0.3c1.62,0.11,1.64-3.22,0.59-3.88c-2.28-1.41-4.63-2.75-7.19-3.55
			c-2.49-0.78-5.05-1.31-7.63-1.69c-5.04-0.74-10.14-1.03-15.23-0.86c-10.18,0.33-20.4,2.58-29.78,6.57
			c-5.37,2.28-10.41,5.27-15.16,8.65C143.11,46.5,143.94,50.9,145.76,49.83L145.76,49.83z"/>
	</g>
	<g>
		<path class="st1" d="M201.4,56.28c8.69,0.97,17.23,3.11,25.47,6c8.28,2.9,16.32,6.38,23.91,10.79c2.01,1.16,3.98,2.39,5.93,3.64
			c1.12,0.72,2.22,1.6,3.43,2.16c1.1,0.5,2.02,1.16,3.21,1.48c2.36,0.65,2.52-3.28,1.61-4.55c-2.73-3.84-7.17-6.42-11.15-8.82
			c-3.85-2.32-7.84-4.46-11.95-6.29c-8.13-3.62-16.68-6.37-25.47-7.81c-5-0.82-10.08-1.35-15.13-1.62
			C199.06,51.13,199.19,56.03,201.4,56.28L201.4,56.28z"/>
	</g>
	<g>
		<path class="st1" d="M256.81,97.44c14.5,2.98,27.52,13.64,33.73,26.69c0.91,1.92,1.69,3.91,2.43,5.9c0.3,0.82,0.66,1.87,0.81,2.42
			c0.35,1.24,0.49,2.84,1.64,3.62c1,0.69,1.76,0.02,2.2-0.94c0.93-2.02-0.08-4.99-0.6-7.06c-0.53-2.09-1.21-4.1-2.08-6.07
			c-1.65-3.73-3.73-7.29-6.19-10.54c-4.9-6.46-11.32-11.69-18.68-15.1c-4.11-1.9-8.45-3.21-12.93-3.93
			c-1.06-0.17-1.55,1.54-1.59,2.25C255.49,95.5,255.75,97.22,256.81,97.44L256.81,97.44z"/>
	</g>
	<g>
		<path class="st1" d="M294.84,158.84c0.73,1.77,1.28,3.42,1.72,5.23c0.42,1.74,0.75,3.76,0.87,5.14c0.16,1.88,0.2,3.78,0.12,5.66
			c-0.01,0.22-0.02,0.43-0.03,0.65c0.03-0.52,0,0.03-0.01,0.11c-0.04,0.48-0.08,0.97-0.13,1.45c-0.1,0.97-0.23,1.93-0.39,2.89
			c-0.35,2.09-0.62,3.24-1.17,5.02c-0.57,1.86-1.24,3.69-2.02,5.47c-0.43,0.98-0.47,1.07-0.91,1.92c-0.47,0.91-0.97,1.81-1.5,2.68
			c-0.98,1.61-2.05,3.17-3.23,4.64c-1.06,1.31-2.73,3.09-4.13,4.48c-1.65,1.64-3.39,3.17-4.84,4.99c-0.54,0.68-0.52,1.96-0.27,2.71
			c0.18,0.57,0.74,1.64,1.52,1.49c3.94-0.78,7.36-4.16,9.87-7.14c2.86-3.39,5.16-7.12,7.01-11.15c3.54-7.66,5.04-16.45,4.19-24.84
			c-0.5-4.89-1.66-9.69-3.69-14.18c-0.43-0.96-1.48-1.77-2.43-0.9C294.43,156.02,294.39,157.73,294.84,158.84L294.84,158.84z"/>
	</g>
	<g>
		<path class="st1" d="M310.8,196.79c-10.06,12.25-22.43,22.49-36.31,29.9c-2.02,1.08-4.06,2.12-6.14,3.09
			c-2.23,1.03-4.68,1.69-6.38,3.51c-0.87,0.93-1.16,2.24-1,3.49c0.11,0.91,0.6,2.62,1.71,2.85c0.53,0.11,1.16,0.34,1.69,0.33
			c0.59-0.01,1.24-0.3,1.79-0.5c1.01-0.37,2.01-0.76,3-1.16c1.87-0.76,3.72-1.57,5.54-2.44c3.72-1.77,7.28-3.86,10.7-6.16
			c7.02-4.71,13.56-10.09,19.11-16.49c3.24-3.74,6.11-7.67,8.74-11.86c0.69-1.1,0.69-2.75,0.06-3.86
			C312.85,196.68,311.63,195.78,310.8,196.79L310.8,196.79z"/>
	</g>
	<g>
		<path class="st1" d="M19.7,186.3c1.28,7.66,3.2,15.38,5.96,22.65c1.34,3.53,2.87,6.97,4.61,10.33c0.95,1.83,1.93,3.64,3.02,5.39
			c0.98,1.58,2.12,3.21,3.57,4.39c0.7,0.57,1.53,0.27,1.98-0.44c0.57-0.9,0.51-2.06,0.18-3.03c-1.2-3.6-3.39-6.87-5.13-10.24
			c-1.65-3.2-3.19-6.48-4.58-9.8c-2.81-6.72-5.06-13.49-6.49-20.64c-0.19-0.93-0.95-2.1-2.04-1.68
			C19.65,183.65,19.54,185.35,19.7,186.3L19.7,186.3z"/>
	</g>
	<g>
		<path class="st1" d="M303.89,233.83c1.31-0.77,2.46-1.75,3.66-2.67c1.21-0.93,2.45-1.83,3.64-2.8c2.41-1.97,4.87-3.89,7.28-5.86
			c4.76-3.89,9.63-7.65,14.68-11.16c9.88-6.86,20.42-12.93,31.96-16.51c3.03-0.94,6.12-1.7,9.23-2.34c1.63-0.34,3.24-0.68,4.88-0.97
			c0.9-0.16,1.77-0.45,2.66-0.65c0.95-0.22,1.8-0.37,2.68-0.82c1.45-0.74,1.4-3.69-0.11-4.35c-1.43-0.63-3.09-0.68-4.63-0.79
			c-1.55-0.11-3.17,0.1-4.72,0.21c-3.08,0.23-6.16,1-9.12,1.83c-5.89,1.65-11.6,3.97-17.04,6.78
			c-11.23,5.81-21.37,13.45-30.96,21.65c-2.72,2.33-5.35,4.76-7.95,7.22c-2.6,2.46-5.32,5.01-7.52,7.84
			C301.84,231.28,302.31,234.76,303.89,233.83L303.89,233.83z"/>
	</g>
	<g>
		<path class="st1" d="M348.63,221.49c13.1-5.67,26.29-11.37,39.93-15.63c13.14-4.11,26.93-6.54,40.73-5.6
			c3.68,0.25,7.35,0.74,10.97,1.44c1.97,0.38,3.99,0.79,5.98,1.09c0.89,0.13,1.77,0.29,2.65,0.46c0.98,0.19,1.89,0.07,2.89,0.06
			c1.77-0.01,1.55-3.17,0.61-3.98c-0.71-0.61-1.38-1.33-2.18-1.8c-0.75-0.44-1.56-0.8-2.34-1.18c-1.69-0.83-3.42-1.33-5.19-1.96
			c-3.35-1.2-7.11-1.64-10.64-1.99c-6.89-0.69-13.86-0.5-20.73,0.35c-14.32,1.77-28.15,6.41-41.28,12.28
			c-7.64,3.41-15.07,7.3-22.51,11.12C345.49,217.17,346.12,222.58,348.63,221.49L348.63,221.49z"/>
	</g>
	<g>
		<path class="st1" d="M453.36,151.56c0.34-3.82,0.1-7.7,0.09-11.53c-0.01-3.84,0-7.68,0.11-11.51c0.22-7.39,0.91-14.79,2.28-22.09
			c2.35-12.54,6.9-24.52,14.37-34.84c1.96-2.7,4.13-5.21,6.46-7.6c1.26-1.29,2.64-2.48,3.85-3.82c0.6-0.66,1.25-1.24,1.93-1.82
			c0.83-0.7,1.46-1.38,2.07-2.28c0.51-0.75,0.54-1.91,0.27-2.73c-0.19-0.58-0.74-1.64-1.54-1.5c-0.9,0.16-1.5,0.35-2.26,0.86
			c-0.62,0.42-1.21,0.89-1.83,1.29c-1.39,0.9-2.68,1.87-3.91,2.99c-2.49,2.28-4.7,4.83-6.78,7.48c-4.07,5.19-7.35,10.93-10.05,16.94
			c-6.12,13.62-8.51,28.57-9.2,43.39c-0.2,4.35-0.28,8.72-0.16,13.08c0.13,4.55,0.12,9.28,0.97,13.76c0.15,0.8,0.75,1.91,1.71,1.89
			C452.68,153.5,453.29,152.37,453.36,151.56L453.36,151.56z"/>
	</g>
	<g>
		<path class="st1" d="M477.04,81.69c6.06-11.94,14.69-22.21,25.07-30.65c10.34-8.4,22.39-14.81,35.17-18.6
			c3.56-1.06,7.16-1.82,10.8-2.51c3.82-0.72,7.7-1.14,11.42-2.27c1.71-0.52,1.68-4.78-0.13-5.13c-0.84-0.17-1.73-0.41-2.58-0.48
			c-0.92-0.07-1.88,0.02-2.8,0.02c-1.7,0-3.37,0.22-5.05,0.44c-3.51,0.48-6.98,1.29-10.4,2.21c-6.61,1.79-13.03,4.27-19.13,7.38
			c-12.52,6.37-23.62,15.33-32.43,26.27c-4.89,6.07-9.14,12.58-12.5,19.62c-0.56,1.17-0.7,2.65,0.09,3.77
			C475.19,82.64,476.48,82.78,477.04,81.69L477.04,81.69z"/>
	</g>
	<g>
		<path class="st1" d="M529.3,50.96c11.09-8.1,23.64-14,36.74-18.07c13.24-4.11,26.87-6.24,40.74-6.2
			c3.87,0.01,7.74,0.17,11.59,0.47c1.92,0.15,3.85,0.24,5.76,0.44c0.96,0.1,1.91,0.22,2.87,0.35c1.02,0.14,2.01,0.06,3.04,0.01
			c2.31-0.11,2.05-4.43,0.33-5.2c-3.27-1.48-7.08-2.07-10.63-2.56c-3.46-0.47-6.94-0.78-10.43-0.9c-7.03-0.25-14.09,0.18-21.06,1.14
			c-14.12,1.94-28.01,6.1-40.6,12.83c-7.09,3.79-13.91,8.13-20.26,13.05C525.63,47.67,526.89,52.72,529.3,50.96L529.3,50.96z"/>
	</g>
	<g>
		<path class="st1" d="M621.34,47.18c14.31-0.37,28.77,3.1,41.74,9.08c12.78,5.89,24.53,14.38,33.61,24.93
			c5.15,5.99,9.68,12.57,13.95,19.2c0.43,0.68,1.22,0.7,1.73,0.11c0.6-0.71,0.55-1.76,0.27-2.58c-4.73-14.37-15.08-26.39-26.9-35.57
			c-11.63-9.03-25.3-15.64-39.82-18.33c-8.13-1.5-16.44-1.87-24.68-1.14C619.34,43.06,619.43,47.23,621.34,47.18L621.34,47.18z"/>
	</g>
	<g>
		<path class="st1" d="M666.14,83.91c11.68,4.23,22.23,11.75,30.26,21.06c2.06,2.39,3.98,4.91,5.78,7.5
			c0.88,1.27,1.72,2.57,2.53,3.9c0.42,0.69,0.82,1.38,1.22,2.08c0.47,0.83,0.58,1.03,0.92,1.67c1.46,2.79,2.76,5.66,3.88,8.61
			c0.55,1.44,1.05,2.9,1.52,4.38c0.22,0.69,0.07,0.22,0.03,0.08c0.05,0.16,0.1,0.33,0.15,0.49c0.11,0.38,0.22,0.77,0.33,1.15
			c0.21,0.77,0.42,1.54,0.61,2.32c0.42,1.72,0.78,3.45,1.07,5.19c0.14,0.84,0.27,1.69,0.38,2.54c0.06,0.45,0.12,0.9,0.18,1.35
			c0.02,0.17,0.04,0.34,0.06,0.51c0.08,0.6-0.05-0.59,0,0.01c0.15,1.77,0.31,3.53,0.46,5.3c0.06,0.64,0.19,1.26,0.27,1.89
			c-0.06-0.44,0,0.72,0,0.85c0.03,1.05,0.07,2.04,0.36,3.05c0.21,0.72,0.55,1.6,1.4,1.74c0.82,0.14,1.29-0.56,1.59-1.22
			c0.37-0.83,0.53-1.62,0.61-2.51c0.03-0.39,0.06-0.78,0.09-1.18c0.02-0.33,0-0.69,0.06-1.01c-0.08,0.41,0.09-0.14,0.11-0.3
			c0.28-1.73,0.21-3.62,0.1-5.37c-0.21-3.47-0.66-6.92-1.36-10.33c-1.36-6.62-3.58-13.08-6.57-19.14
			c-5.88-11.91-14.5-22.44-25.44-30.05c-6.07-4.22-12.72-7.56-19.79-9.74C664.45,77.94,664.04,83.14,666.14,83.91L666.14,83.91z"/>
	</g>
	<g>
		<path class="st1" d="M708.24,169.19c0.12,0.2,0.24,0.41,0.35,0.61c0.26,0.45-0.01-0.04,0.16,0.3c0.25,0.49,0.5,0.99,0.72,1.5
			c0.44,0.99,0.84,2,1.19,3.02c0.08,0.25,0.16,0.49,0.25,0.74c0.18,0.54-0.02-0.08,0.1,0.34c0.17,0.59,0.33,1.18,0.47,1.77
			c0.27,1.16,0.5,2.32,0.68,3.5c0.09,0.56,0.16,1.13,0.24,1.7c0.07,0.54-0.04-0.43,0.04,0.32c0.03,0.33,0.06,0.66,0.09,0.99
			c0.11,1.26,0.17,2.52,0.19,3.79c0.02,1.3-0.02,2.6-0.08,3.9c-0.04,0.8,0.03-0.32-0.02,0.29c-0.03,0.3-0.05,0.61-0.07,0.91
			c-0.06,0.7-0.14,1.4-0.22,2.1c-0.31,2.64-0.73,5.26-1.33,7.85c-0.04,0.18-0.09,0.35-0.13,0.53c0.03-0.11,0.19-0.74,0.03-0.1
			c-0.08,0.31-0.16,0.61-0.25,0.92c-0.18,0.66-0.37,1.31-0.58,1.96c-0.41,1.31-0.86,2.6-1.36,3.88c-0.5,1.28-1.02,2.56-1.59,3.82
			c-0.08,0.17-0.16,0.33-0.23,0.5c0.01-0.03,0.27-0.54,0.09-0.19c-0.15,0.29-0.28,0.58-0.43,0.87c-0.33,0.66-0.68,1.31-1.04,1.95
			c-1.33,2.37-2.85,4.64-4.52,6.78c-0.05,0.07-0.42,0.52-0.18,0.23c0.24-0.29-0.29,0.35-0.28,0.33c-0.24,0.29-0.48,0.57-0.72,0.86
			c-0.52,0.6-1.06,1.19-1.61,1.76c-1.08,1.12-2.17,2.27-3.36,3.27c-1.25,1.05-2.52,2.1-3.8,3.11c-1.32,1.04-2.8,1.84-4.11,2.91
			c-0.73,0.59-0.84,1.91-0.66,2.75c0.14,0.67,0.7,1.87,1.58,1.74c1.62-0.24,2.96-0.74,4.42-1.48c0.61-0.31,1.27-0.51,1.88-0.82
			c0.76-0.39,1.48-0.94,2.18-1.43c2.39-1.67,4.6-3.47,6.59-5.61c4.19-4.51,7.29-9.89,9.61-15.57c4.42-10.84,5.51-23.26,3.54-34.77
			c-0.93-5.4-2.63-10.81-5.56-15.47c-0.6-0.96-1.78-0.85-2.35,0.06C707.47,166.68,707.62,168.14,708.24,169.19L708.24,169.19z"/>
	</g>
	<g>
		<path class="st1" d="M700.9,250.33c-2.29,2.6-4.38,5.68-6.37,8.13c-2.27,2.8-4.79,5.45-7.42,7.9c-5.35,4.99-11,8.73-17.47,12.03
			c-3.8,1.94-7.68,3.55-11.29,5.86c-1.68,1.07-1.97,5.46,0.63,5.58c7.72,0.35,15.14-4.14,21.3-8.33
			c6.37-4.33,11.99-9.81,16.53-16.02c2.61-3.57,5.07-7.61,6.36-11.87c0.29-0.95,0.27-2.11-0.32-2.95
			C702.42,250.06,701.48,249.67,700.9,250.33L700.9,250.33z"/>
	</g>
	<g>
		<path class="st1" d="M665.74,315.92c2.61-2.87,5.18-5.77,7.67-8.75c1.31-1.58,2.63-3.15,3.88-4.78c0.6-0.79,1.2-1.58,1.81-2.38
			c0.36-0.47,0.76-0.93,1.02-1.47c0.26-0.55,0.5-1.11,0.74-1.67c0.4-0.94,0.27-2.3-0.22-3.16c-0.37-0.64-1.17-1.42-1.99-0.97
			c-0.33,0.18-0.67,0.35-0.99,0.55c-0.54,0.33-0.9,0.77-1.32,1.23c-0.65,0.71-1.3,1.41-1.94,2.12c-1.32,1.44-2.56,2.94-3.81,4.44
			c-2.62,3.15-5.15,6.37-7.63,9.62c-0.89,1.17-0.72,3.21-0.06,4.42C663.41,316.12,664.76,317,665.74,315.92L665.74,315.92z"/>
	</g>
	<g>
		<path class="st1" d="M25.21,244.69c2.9,23.32,15.51,45.06,33.17,60.37c2.43,2.11,4.97,4.15,7.64,5.96
			c1.39,0.94,2.8,1.87,4.26,2.71c1.33,0.77,3.14,1.9,4.69,1.55c2.31-0.53,2.27-3.62,1.3-5.31c-0.84-1.46-2.2-2.31-3.53-3.29
			c-1.16-0.85-2.39-1.61-3.57-2.45c-2.24-1.59-4.46-3.22-6.59-4.96c-4.1-3.36-8.27-7.39-11.5-11.12
			c-7.34-8.49-12.94-17.65-17.07-27.81c-1.16-2.86-2.18-5.77-3.09-8.72c-0.13-0.41-0.28-0.92-0.47-1.6
			c-0.23-0.81-0.44-1.63-0.68-2.44c-0.4-1.33-0.77-2.94-1.1-4.46c-0.22-0.99-1.06-2.39-2.27-1.87
			C25.13,241.81,25.07,243.56,25.21,244.69L25.21,244.69z"/>
	</g>
	<g>
		<path class="st1" d="M26.02,292.65c3.38,8.88,7.65,17.41,12.91,25.32c5.2,7.83,11.51,15.04,18.41,21.42
			c1.86,1.72,3.83,3.28,5.87,4.78c1.05,0.78,2.17,1.47,3.28,2.16c1.18,0.74,2.32,1.37,3.77,1.27c1.56-0.1,1.82-2.57,1.27-3.65
			c-1.2-2.38-3.11-3.99-5.04-5.77c-1.66-1.54-3.36-3.04-5.03-4.58c-3.33-3.08-6.57-6.22-9.64-9.57
			c-5.8-6.33-11.15-13.84-15.72-21.38c-2.56-4.23-4.79-8.59-6.74-13.13c-0.47-1.09-1.68-1.98-2.73-1.01
			C25.54,289.5,25.53,291.39,26.02,292.65L26.02,292.65z"/>
	</g>
	<g>
		<path class="st1" d="M30.36,330.76c4.86,22.39,17.53,42.68,35.73,56.63c2.55,1.95,5.21,3.78,8,5.38c1.32,0.75,2.64,1.48,4.02,2.11
			c0.73,0.33,1.47,0.71,2.23,0.98c0.95,0.34,1.6,0.11,2.54-0.06c1.86-0.33,2.05-3.18,1.1-4.48c-0.51-0.7-0.93-1.6-1.61-2.15
			c-0.44-0.36-1.04-0.64-1.53-0.95c-1.22-0.77-2.42-1.55-3.63-2.33c-2.3-1.49-4.56-3.03-6.77-4.63c-4.32-3.12-8.37-6.61-12.11-10.42
			c-7-7.13-13.59-16.45-17.93-25.41c-2.62-5.42-4.6-10.92-5.99-16.5c-0.29-1.15-1.22-2.82-2.67-2.2
			C30.35,327.34,30.08,329.48,30.36,330.76L30.36,330.76z"/>
	</g>
	<g>
		<path class="st1" d="M39.14,383.86c8.22,15.14,18.37,29.16,30.47,41.44c1.63,1.65,3.26,3.32,5,4.85c0.9,0.79,1.79,1.61,2.8,2.27
			c0.93,0.61,2.18,1.06,3.25,1.41c2.44,0.8,2.34-3.35,1.61-4.55c-0.55-0.9-1.2-1.73-1.72-2.64c-0.65-1.14-1.71-2.06-2.64-2.98
			c-1.46-1.45-2.95-2.87-4.42-4.32c-2.96-2.93-5.81-5.97-8.6-9.05c-5.38-5.96-10.52-12.49-15.17-19.14
			c-2.72-3.89-5.26-7.91-7.66-12.01c-0.75-1.28-2.33-1.07-3.06,0.08C38.12,380.64,38.38,382.45,39.14,383.86L39.14,383.86z"/>
	</g>
	<g>
		<path class="st1" d="M44.86,422.14c3.73,7.3,7.86,14.51,12.64,21.18c2.35,3.28,4.8,6.52,7.45,9.57c1.35,1.55,2.71,3.11,4.15,4.58
			c0.67,0.68,1.35,1.36,2.03,2.03c0.82,0.81,1.59,1.73,2.66,2.21c0.57,0.25,1.32,0.03,1.74-0.39c-0.04,0.03-0.08,0.06-0.12,0.08
			c0.85-0.43,1.23-1.59,1.17-2.49c-0.09,0.62-0.09,0.42,0.01-0.6c-0.01-0.6-0.13-1.18-0.35-1.74c-0.31-0.78-0.82-1.36-1.37-1.97
			c-0.59-0.64-1.18-1.28-1.76-1.93c-1.39-1.56-2.77-3.13-4.14-4.72c-2.62-3.04-5.2-6.11-7.64-9.29
			c-4.95-6.46-9.49-13.14-13.41-20.28c-0.59-1.07-1.91-1.04-2.62-0.17C44.47,419.2,44.28,420.99,44.86,422.14L44.86,422.14z"/>
	</g>
	<g>
		<path class="st1" d="M44.24,438.32c9.52,17.37,17,35.92,22.8,54.85c0.21,0.69-0.11-0.38,0.09,0.3c0.11,0.35,0.21,0.7,0.31,1.04
			c0.21,0.7,0.41,1.39,0.62,2.09c0.45,1.5,0.89,3,1.34,4.49c0.21,0.68-0.11-0.38,0.09,0.3c0.16,0.52,0.3,1.04,0.47,1.56
			c0.22,0.66,0.48,1.31,0.72,1.96c0.23,0.63,0.57,1.23,0.86,1.82c0.36,0.74,0.66,1.29,1.27,1.86c1.19,1.11,2.21-0.59,2.41-1.57
			c0.26-1.33,0.08-2.82-0.06-4.12c-0.16-1.39-0.47-2.79-0.82-4.15c-0.68-2.64-1.46-5.26-2.28-7.86c-1.5-4.76-3.12-9.49-4.86-14.17
			c-3.5-9.4-7.64-18.58-12.18-27.53c-2.59-5.1-5.3-10.15-8.13-15.12c-0.66-1.16-2.1-0.95-2.75,0.07
			C43.32,435.42,43.55,437.06,44.24,438.32L44.24,438.32z"/>
	</g>
	<g>
		<path class="st1" d="M45.5,487.25c4.36,5.23,7.89,10.89,10.56,17.07c0.68,1.57,1.31,3.17,1.91,4.77c0.27,0.74,0.54,1.48,0.79,2.23
			c0.13,0.37,0.25,0.75,0.37,1.12c0.06,0.19,0.12,0.38,0.18,0.56c0.08,0.25,0.08,0.25,0-0.01c0.04,0.13,0.07,0.25,0.11,0.38
			c0.91,3.22,1.61,6.48,2.2,9.78c0.37,2.04,0.62,3.14,0.88,4.95c0.21,1.44,0.51,4.51,2.29,4.8c2.18,0.36,2.2-3.43,2.28-4.81
			c0.05-0.94,0-1.88-0.07-2.82c0.01,0.13-0.09,0.93-0.02-0.27c0.02-0.32,0.03-0.59,0.02-0.9c-0.02-0.46-0.08-0.91-0.13-1.37
			c-0.75-7.13-2.8-14.32-5.77-20.84c-3.21-7.06-7.44-13.68-12.59-19.49C45.78,479.34,43.67,485.06,45.5,487.25L45.5,487.25z"/>
	</g>
	<g>
		<path class="st1" d="M44.84,518.19c2.93,10.55,6.39,21.05,11.41,30.8c4.87,9.47,11.28,18.55,19.92,24.95
			c2.4,1.78,4.99,3.32,7.72,4.53c1.19,0.53,2.59,0.98,3.87,1.3c0.73,0.18,1.47,0.09,2.22,0.24c0.99,0.19,1.61,0.24,2.57-0.11
			c0.81-0.3,1.13-1.46,1.17-2.2c0.05-0.98-0.2-1.86-0.88-2.58c-0.88-0.94-2.06-1.31-3.1-2c-1.32-0.89-2.46-1.48-3.75-2.22
			c-2.09-1.2-3.7-2.15-5.83-3.64c-1.99-1.39-3.86-2.94-5.65-4.59c-1.86-1.71-3.47-3.43-4.7-4.89c-3.26-3.87-6.04-8.1-8.56-12.47
			c-0.28-0.48-0.55-0.97-0.82-1.45c-0.16-0.29-0.32-0.59-0.48-0.88c0.37,0.68-0.16-0.31-0.19-0.36c-0.58-1.1-1.14-2.2-1.68-3.32
			c-1.14-2.34-2.19-4.71-3.21-7.1c-1.15-2.69-2.22-5.42-3.18-8.18c-0.48-1.37-0.94-2.75-1.39-4.13c-0.21-0.63-0.41-1.27-0.61-1.9
			c-0.1-0.32-0.2-0.63-0.3-0.95c-0.06-0.21-0.13-0.42-0.19-0.63c0.09,0.29,0.08,0.25-0.04-0.13c-0.36-1.2-1.26-3.01-2.84-2.33
			C44.89,514.54,44.47,516.86,44.84,518.19L44.84,518.19z"/>
	</g>
	<g>
		<path class="st1" d="M64.09,576.31c7.55,9.11,15.68,17.74,24.79,25.31c8.94,7.43,18.49,14.06,28.54,19.9
			c2.76,1.61,5.57,3.04,8.46,4.38c3.01,1.39,5.94,2.89,9.24,3.36c0.95,0.13,1.53-1.3,1.64-2c0.16-1-0.06-2.31-0.88-2.99
			c-2.39-1.99-5.16-3.33-7.84-4.87c-2.46-1.41-4.89-2.9-7.35-4.32c-4.83-2.78-9.55-5.7-14.17-8.83
			c-9.42-6.38-18.37-13.49-26.77-21.16c-4.67-4.27-9.25-8.59-13.55-13.24c-0.82-0.88-1.96-0.03-2.35,0.78
			C63.36,573.69,63.31,575.37,64.09,576.31L64.09,576.31z"/>
	</g>
	<g>
		<path class="st1" d="M84.42,616.08c7.89,9.48,16.76,18,26.83,25.13c9.87,6.98,20.77,12.53,32.15,16.6
			c3.11,1.11,6.27,2.05,9.49,2.77c1.69,0.37,3.38,0.46,5.09,0.73c1.77,0.28,3.49,0.67,5.23,0.1c1.54-0.51,1.34-3.53,0.27-4.37
			c-1.31-1.02-2.8-1.43-4.36-1.93c-1.49-0.48-2.88-1.16-4.35-1.67c-2.78-0.96-5.57-1.88-8.35-2.84c-5.53-1.93-10.95-4.14-16.21-6.72
			c-10.54-5.16-20.24-11.5-29.43-18.79c-5.13-4.07-9.9-8.5-14.31-13.34c-0.79-0.86-1.91-0.02-2.28,0.76
			C83.71,613.53,83.66,615.17,84.42,616.08L84.42,616.08z"/>
	</g>
	<g>
		<path class="st1" d="M155.84,670.6c3.38,1.71,6.83,3.41,10.41,4.67c3.62,1.27,7.32,2.33,11.07,3.14c3.72,0.8,7.52,1.35,11.31,1.7
			c1.84,0.17,3.77,0.33,5.62,0.19c0.92-0.07,1.89-0.26,2.8-0.41c1.01-0.16,2.09-0.42,2.79-1.2c0.84-0.95,0.8-2.51-0.08-3.42
			c-0.74-0.75-1.84-0.96-2.85-1.11c-0.87-0.13-1.74-0.34-2.61-0.46c-1.85-0.25-3.76-0.3-5.63-0.44c-3.67-0.28-7.31-0.8-10.93-1.44
			c-7.16-1.27-14.41-3.25-21.17-5.96C154.35,664.98,154.08,669.71,155.84,670.6L155.84,670.6z"/>
	</g>
	<g>
		<path class="st1" d="M674.58,323.06c-0.07,0.11-0.14,0.22-0.21,0.33c0.31-0.21,0.63-0.42,0.94-0.63
			c-1.05,0.04-1.74,0.22-2.35,1.14c-0.38,0.58-0.66,1.26-0.93,1.89c-0.45,1.06-0.86,2.14-1.26,3.22c-0.75,2.04-1.37,4.13-1.96,6.22
			c-1.28,4.54-2.25,9.18-2.95,13.85c-0.7,4.67-1.18,9.47-1.09,14.2c0.09,4.57,0.38,9.27,1.41,13.74c0.19,0.82,0.77,1.9,1.77,1.68
			c1.04-0.23,1.25-1.52,1.31-2.39c0.13-2.03,0.04-4.09,0.26-6.1c0.14-1.33,0.17-2.65,0.22-3.98c0-0.1,0.05-1.19,0.02-0.74
			c0.04-0.57,0.13-1.13,0.17-1.7c0.03-0.5,0.07-1,0.09-1.5c0.03-0.5,0.03-0.58,0.01-0.24c0.03-0.43,0.06-0.87,0.1-1.3
			c0.11-1.15,0.24-2.31,0.36-3.46c0.22-2.1,0.48-4.2,0.79-6.29c0.31-2.09,0.68-4.18,1.11-6.25c0.24-1.14,0.49-2.28,0.76-3.42
			c0.1-0.43,0.21-0.85,0.31-1.28c0.07-0.28,0.14-0.57,0.21-0.85c-0.08,0.3-0.05,0.21,0.07-0.27c0.56-2.13,1.19-4.24,1.82-6.36
			c0.29-0.99,0.62-1.98,0.92-2.97c0.21-0.72,0.45-1.47,0.57-2.21c0.2-1.3-0.18-2.41-0.57-3.62c0.06,0.53,0.12,1.06,0.18,1.59
			c0.03-0.14,0.06-0.29,0.09-0.43C677.03,323.71,675.69,321.33,674.58,323.06L674.58,323.06z"/>
	</g>
	<g>
		<path class="st1" d="M675.41,378.83c-1.22,12.76-2.15,25.53-2.95,38.32c-0.19,3.12-0.39,6.25-0.58,9.37
			c-0.09,1.46-0.18,2.92-0.27,4.38c-0.04,0.63-0.08,1.26-0.11,1.88c-0.05,0.8,0.07-1.01-0.02,0.34c-0.03,0.42-0.06,0.84-0.09,1.26
			c-0.39,5.59-0.93,11.18-1.86,16.71c-0.28,1.65-0.63,3.28-0.96,4.92c-0.26,1.29-0.55,2.49-0.99,3.95
			c-0.45,1.49-0.82,2.99-1.36,4.44c-0.6,1.62-1.23,3.18-1.72,4.84c-0.31,1.05-0.3,2.33,0.36,3.26c0.46,0.66,1.53,1.12,2.16,0.37
			c1.93-2.29,3.05-5.05,4.25-7.78c1.18-2.7,1.99-5.67,2.69-8.53c1.39-5.63,2.15-11.35,2.64-17.12c1.06-12.59,1.61-25.26,2.17-37.88
			c0.32-7.33,0.52-14.66,0.69-22c0.02-1.11-0.58-2.83-1.84-3.01C676.34,376.37,675.51,377.72,675.41,378.83L675.41,378.83z"/>
	</g>
	<g>
		<path class="st1" d="M688.55,420.28c-0.54,18.82-4.47,37.46-11.69,54.88c-2.12,5.12-4.39,10.16-6.33,15.36
			c-0.42,1.12-0.29,2.74,0.57,3.64c0.83,0.87,1.74,0.62,2.43-0.28c6.05-7.78,9.54-17.57,12.48-26.89
			c3.02-9.58,5.16-19.47,6.13-29.47c0.56-5.76,0.74-11.55,0.64-17.33c-0.02-1.21-0.68-3.2-2.19-3.17
			C689.01,417.05,688.58,419.1,688.55,420.28L688.55,420.28z"/>
	</g>
	<g>
		<path class="st1" d="M684.53,489.17c1.4,3.73,2.24,6.63,3.06,10.65c0.38,1.86,0.71,3.73,0.98,5.6c0.07,0.48,0.14,0.96,0.2,1.45
			c0.03,0.21,0.05,0.43,0.08,0.64c0.08,0.6-0.07-0.69-0.01-0.09c0.1,1.02,0.2,2.03,0.28,3.05c0.29,3.77,0.3,7.54,0.1,11.31
			c-0.04,0.83-0.02-0.08,0.01-0.18c-0.06,0.15-0.03,0.47-0.05,0.64c-0.04,0.48-0.08,0.96-0.12,1.45c-0.09,1.02-0.21,2.03-0.34,3.05
			c-0.23,1.82-0.49,3.64-0.81,5.45c-0.34,1.92-0.76,3.82-1.22,5.71c0.25-1.03-0.06,0.23-0.13,0.5c-0.12,0.47-0.25,0.94-0.39,1.41
			c-0.26,0.94-0.54,1.87-0.84,2.8c-1.16,3.66-2.55,7.25-4.17,10.73c-0.09,0.2-0.18,0.39-0.27,0.59c0.34-0.74,0.1-0.2,0.02-0.05
			c-0.21,0.44-0.43,0.87-0.65,1.31c-0.44,0.87-0.89,1.73-1.36,2.58c-0.91,1.66-1.86,3.28-2.87,4.88c-1.04,1.64-2.12,3.25-3.26,4.82
			c-0.51,0.7-1.02,1.39-1.55,2.07c-0.3,0.38-0.6,0.76-0.9,1.14c-0.35,0.44,0.34-0.41-0.02,0.03c-0.21,0.25-0.41,0.5-0.62,0.75
			c-2.75,3.27-5.68,6.39-8.85,9.25c-1.62,1.46-3.22,2.96-4.93,4.31c-0.81,0.64-1.64,1.27-2.47,1.87c-0.97,0.71-1.78,1.55-2.64,2.39
			c-1.55,1.5-1.23,6.75,1.77,5.84c0.88-0.27,1.8-0.48,2.59-0.95c0.87-0.51,1.72-1.06,2.56-1.62c1.6-1.06,3.47-2.22,5.19-3.6
			c3-2.41,5.81-5.04,8.41-7.88c5.48-5.99,10.05-12.86,13.62-20.14c7.31-14.9,10.97-31.55,9.77-48.15
			c-0.67-9.29-2.88-18.34-6.66-26.86c-0.5-1.14-1.75-2.08-2.87-1.06C684.03,485.87,684.03,487.84,684.53,489.17L684.53,489.17z"/>
	</g>
	<g>
		<path class="st1" d="M585.91,668.6c9.59,0.55,19.27,0.37,28.64-1.92c9.28-2.28,18.23-5.9,26.42-10.84c2.32-1.4,4.72-2.9,6.79-4.65
			c1.07-0.91,2.17-1.8,3.24-2.71c1.16-0.98,1.98-2.31,2.88-3.52c0.73-0.98,0.32-4.43-1.5-3.64c-1.06,0.46-2.17,0.78-3.13,1.43
			c-0.9,0.62-1.79,1.27-2.73,1.82c-1.96,1.15-3.86,2.42-5.82,3.58c-4.04,2.38-8.14,4.61-12.44,6.49c-4.29,1.88-8.7,3.51-13.19,4.83
			c-4.47,1.31-8.97,2.26-13.51,3.22c-5.22,1.11-10.41,1.66-15.76,1.62C583.9,664.3,584,668.49,585.91,668.6L585.91,668.6z"/>
	</g>
	<g>
		<path class="st1" d="M542.97,680.24c7.24,0.96,14.66,1.36,21.95,0.78c3.57-0.28,7.15-0.69,10.66-1.41
			c1.83-0.37,3.64-0.77,5.42-1.35c0.93-0.3,1.86-0.57,2.79-0.87c1.01-0.32,1.79-0.76,2.7-1.31c1.59-0.96,1.84-5.22-0.6-5.25
			c-0.9-0.01-1.72-0.02-2.61,0.16c-0.87,0.18-1.74,0.36-2.61,0.5c-1.76,0.27-3.51,0.57-5.27,0.86c-3.61,0.61-7.23,1.18-10.88,1.54
			c-7.23,0.7-14.44,0.96-21.69,0.43c-1.39-0.1-1.89,1.99-1.87,3.01C540.99,678.61,541.57,680.05,542.97,680.24L542.97,680.24z"/>
	</g>
	<g>
		<path class="st1" d="M488.82,692.78c8.91,2.52,18.21,3.92,27.48,3.76c4.58-0.07,9.14-0.47,13.65-1.25
			c4.54-0.79,9.67-1.62,13.54-4.24c0.99-0.67,1.34-1.8,1.19-2.97c-0.12-0.94-0.63-2.29-1.79-2.28c-2.33,0.01-4.64,0.61-6.91,1.14
			c-2.06,0.48-4.13,0.91-6.21,1.28c-4.44,0.79-8.93,1.32-13.43,1.53c-8.97,0.42-17.96-0.22-26.7-2.27
			C487.05,686.87,486.62,692.16,488.82,692.78L488.82,692.78z"/>
	</g>
	<g>
		<path class="st1" d="M432.87,695.32c14.73,5.29,30.16,8.58,45.8,9.3c4.37,0.2,9.01,0.5,13.1-1.27c1.48-0.64,1.45-3.92-0.11-4.46
			c-3.67-1.26-7.55-1.08-11.38-1.19c-3.87-0.11-7.73-0.32-11.59-0.7c-7.49-0.73-15-1.77-22.32-3.54c-4.27-1.03-8.49-2.24-12.65-3.62
			C431.12,688.98,430.64,694.52,432.87,695.32L432.87,695.32z"/>
	</g>
	<g>
		<path class="st1" d="M202.93,686.49c14.28,3.39,28.93,5.25,43.62,5.25c14.73,0,29.58-1.81,43.86-5.42
			c8.01-2.02,16.12-4.74,23.27-8.91c0.77-0.45,1.01-1.41,0.9-2.25c-0.07-0.59-0.51-1.9-1.35-1.73c-7.03,1.38-13.95,3.41-20.92,5.09
			c-6.96,1.68-13.99,3.11-21.08,4.14c-14.35,2.08-28.85,2.46-43.32,1.69c-8.11-0.43-16.2-1.52-24.16-3.08
			c-1.24-0.24-1.95,0.8-2.13,1.94C201.46,684.16,201.71,686.2,202.93,686.49L202.93,686.49z"/>
	</g>
	<g>
		<path class="st1" d="M280.87,703.38c11.43-1.32,22.74-3.21,33.94-5.85c11.15-2.64,22.12-6.1,32.86-10.09
			c3.04-1.13,6.06-2.29,9.02-3.6c3.01-1.33,6.18-2.75,8.74-4.84c1.18-0.96,1.13-5.16-1-4.91c-1.44,0.17-2.66,0.51-4.01,1.02
			c-1.36,0.52-2.76,0.9-4.12,1.43c-2.67,1.02-5.34,2.06-8.01,3.09c-5.21,2.02-10.48,3.89-15.8,5.63
			c-10.78,3.51-21.73,6.39-32.76,9.01c-6.28,1.49-12.62,2.73-18.99,3.78c-1.25,0.21-1.71,1.57-1.68,2.71
			C279.08,701.66,279.62,703.53,280.87,703.38L280.87,703.38z"/>
	</g>
	<g>
		<path class="st1" d="M343.15,703.32c15.83-0.11,31.55-2.39,46.58-7.46c4.28-1.44,8.62-3.3,12.27-5.97
			c1.12-0.82,0.97-4.65-0.89-4.39c-3.78,0.53-7.47,1.87-11.11,2.99c-3.71,1.14-7.4,2.36-11.15,3.36
			c-7.47,1.99-15.03,3.64-22.68,4.79c-4.36,0.65-8.74,1.08-13.14,1.36C340.66,698.14,340.78,703.34,343.15,703.32L343.15,703.32z"/>
	</g>
	<g>
		<path class="st1" d="M131.93,147.45c5.75-4.38,12.98-6.12,20.1-6.16c7.46-0.04,14.81,2.18,21.29,5.9
			c1.42,0.82,2.99,1.88,4.45,3.02c1.54,1.2,2.99,2.5,4.35,3.9c2.71,2.79,5.32,6.28,7.47,9.84c2.03,3.36,3.76,6.96,5.34,11.05
			c0.82,2.11,1.55,4.25,2.21,6.42c-0.22-0.73,0.2,0.68,0.24,0.82c0.14,0.49,0.28,0.97,0.41,1.46c0.3,1.1,0.58,2.21,0.85,3.31
			c1.04,4.31,1.86,8.67,2.53,13.06c0.15,0.99,0.3,1.99,0.43,2.99c0.08,0.55,0.15,1.1,0.22,1.64c0.05,0.35,0.09,0.71,0.13,1.06
			c0.03,0.24,0.11,0.97,0.04,0.36c0.27,2.49,0.46,4.99,0.48,7.5c0,0.64,0,1.28-0.02,1.92c-0.01,0.28-0.02,0.57-0.03,0.85
			c-0.01,0.12-0.07,0.84-0.01,0.13c-0.11,1.26-0.25,2.52-0.48,3.77c-0.1,0.55-0.21,1.1-0.34,1.65c0.13-0.56-0.03,0.12-0.05,0.19
			c-0.08,0.27-0.15,0.54-0.24,0.81c-0.19,0.61-0.39,1.21-0.62,1.8c-0.1,0.25-0.2,0.51-0.3,0.76c-0.1,0.23-0.32,0.72-0.09,0.24
			c-1.68,3.52-4.25,6.44-7.56,8.31c-3.27,1.85-6.94,2.58-10.48,1.47c-0.74-0.23-1.47-0.53-2.17-0.88c-0.11-0.05-1.06-0.61-0.57-0.3
			c-0.4-0.26-0.8-0.53-1.17-0.82c-0.65-0.5-1.25-1.06-1.82-1.64c-0.07-0.07-0.48-0.52-0.2-0.21c0.28,0.32-0.13-0.15-0.19-0.23
			c-0.31-0.39-0.61-0.77-0.9-1.18c-0.5-0.7-0.94-1.43-1.38-2.17c-0.08-0.14-0.31-0.63,0.02,0.04c-0.09-0.19-0.19-0.37-0.28-0.55
			c-0.23-0.47-0.45-0.94-0.66-1.42c-0.34-0.77-0.64-1.56-0.92-2.36c-0.14-0.4-0.27-0.81-0.4-1.21c0.3,0.94-0.16-0.58-0.23-0.84
			c-0.48-1.81-0.85-3.64-1.12-5.49c-0.07-0.46-0.17-0.94-0.19-1.4c0,0.12,0.1,0.98,0.03,0.2c-0.02-0.21-0.04-0.41-0.06-0.61
			c-0.12-1.35-0.22-2.71-0.3-4.07c-0.14-2.57-0.2-5.14-0.18-7.71c0.01-1.29,0.04-2.57,0.1-3.85c0.03-0.68,0.06-1.36,0.1-2.04
			c0-0.08,0.06-0.83,0.01-0.23c0.03-0.38,0.05-0.75,0.08-1.13c0.41-5.28,1.17-10.52,2.28-15.7c0.84-3.96,1.87-8.39,3.94-11.91
			c1.93-3.27,4.88-5.77,8.8-6.72c1.84-0.45,3.73-0.8,5.63-0.53c0.91,0.13,1.45-1.24,1.56-1.9c0.15-0.96-0.06-2.18-0.83-2.84
			c-1.78-1.53-4.13-2.73-6.55-2.62c-2.23,0.1-4.57,0.85-6.43,2.07c-4.43,2.89-7.16,7.5-8.91,12.4c-1.83,5.12-2.9,10.59-3.76,15.94
			c-0.95,5.89-1.46,11.87-1.58,17.83c-0.2,9.59,0.28,19.75,4.01,28.72c3.15,7.56,9.38,14.63,18.23,14.43
			c9.84-0.22,17.57-8.95,20.15-17.84c3.09-10.66,1.37-22.09-0.52-32.82c-3.21-18.23-9.71-38.05-24.7-50.05
			c-6.67-5.33-14.74-8.68-23.2-9.72c-3.96-0.49-7.91-0.38-11.81,0.49c-4.15,0.93-7.81,2.51-11.27,4.99
			c-1.65,1.18-3.11,2.65-4.45,4.18c-0.68,0.78-0.83,1.94-0.43,2.9C130.37,147.58,131.15,148.05,131.93,147.45L131.93,147.45z"/>
	</g>
	<g>
		<path class="st1" d="M637.9,110.98c-2.8-3.19-6.14-5.95-10.07-7.62c-3.66-1.56-7.74-2.49-11.72-2.62
			c-8.27-0.27-16.73,2.06-23.82,6.28c-16.64,9.9-24.63,28.89-28.7,47c-1.04,4.63-1.84,9.3-2.48,14c-0.76,5.51-1.35,11.15-0.9,16.71
			c0.45,5.65,1.8,11.27,4.87,16.09c2.49,3.9,6.12,7.23,10.37,9.11c4.13,1.83,8.85,1.99,13.04,0.28c3.69-1.51,6.64-4.41,8.81-7.68
			c5.11-7.69,6.3-17.22,6.73-26.22c0.55-11.53-0.55-23.21-3.2-34.44c-1.19-5.04-2.67-10.19-5.66-14.49
			c-2.77-3.99-7.05-7.25-12.09-7.34c-2.34-0.04-4.58,1.18-6.29,2.67c-0.75,0.65-0.88,1.97-0.69,2.88c0.15,0.71,0.73,1.95,1.65,1.82
			c3.67-0.51,7.99,0.93,10.71,2.97c1.69,1.27,2.6,2.53,3.75,4.37c0.64,1.02-0.14-0.3,0.19,0.33c0.12,0.23,0.23,0.46,0.34,0.69
			c0.22,0.46,0.43,0.93,0.63,1.41c0.22,0.54,0.43,1.08,0.62,1.62c0.09,0.24,0.17,0.49,0.25,0.73c0.05,0.14,0.38,1.2,0.16,0.48
			c1.45,4.79,2.38,9.78,3.08,14.72c0.09,0.6,0.17,1.2,0.24,1.8c0.04,0.3,0.08,0.6,0.11,0.9c0.1,0.85-0.1-1,0.05,0.45
			c0.14,1.35,0.27,2.71,0.36,4.07c0.19,2.56,0.29,5.13,0.31,7.7c0.02,2.65-0.04,5.29-0.19,7.93c-0.04,0.76,0.04-0.53-0.01,0.22
			c-0.03,0.38-0.05,0.75-0.08,1.13c-0.04,0.55-0.09,1.11-0.14,1.66c-0.09,0.94-0.2,1.87-0.34,2.8c-0.13,0.84-0.27,1.68-0.44,2.52
			c-0.09,0.47-0.2,0.94-0.31,1.41c-0.03,0.13-0.19,0.8-0.06,0.27c0.14-0.57-0.08,0.31-0.11,0.42c-0.49,1.79-1.09,3.56-1.84,5.26
			c-0.1,0.24-0.21,0.48-0.32,0.71c0.06-0.13,0.34-0.66,0.01-0.04c-0.19,0.36-0.38,0.73-0.58,1.09c-0.45,0.79-0.93,1.56-1.46,2.29
			c-0.13,0.18-0.8,1-0.36,0.49c-0.25,0.3-0.51,0.59-0.78,0.87c-0.6,0.63-1.24,1.22-1.92,1.75c0.04-0.03-0.72,0.53-0.37,0.28
			c0.29-0.2-0.2,0.13-0.27,0.17c-0.33,0.2-0.66,0.39-1,0.57c-0.82,0.43-1.69,0.77-2.58,1.03c-1.25,0.36-3.44,0.52-5.18,0.25
			c-1.5-0.23-3.61-1.05-5.16-1.96c-0.49-0.29,0.27,0.18-0.21-0.13c-0.2-0.13-0.39-0.26-0.58-0.39c-0.43-0.3-0.85-0.62-1.26-0.95
			c-0.82-0.67-1.61-1.4-2.31-2.2c0.31,0.35-0.5-0.63-0.56-0.71c-0.29-0.37-0.57-0.76-0.84-1.15c-0.27-0.39-0.52-0.79-0.76-1.2
			c0.03,0.05-0.52-0.96-0.29-0.5c0.2,0.39-0.21-0.44-0.24-0.52c-0.21-0.45-0.4-0.9-0.58-1.36c-0.13-0.33-0.25-0.66-0.37-0.99
			c-0.03-0.08-0.3-0.9-0.17-0.5c0.13,0.4-0.12-0.43-0.14-0.5c-0.07-0.27-0.14-0.54-0.21-0.82c-0.16-0.68-0.31-1.37-0.43-2.06
			c-0.11-0.62-0.2-1.25-0.28-1.88c0.09,0.79-0.06-0.83-0.07-0.97c-0.09-1.28-0.11-2.56-0.1-3.83c0.01-0.57,0.02-1.14,0.04-1.71
			c0.01-0.14,0.1-1.77,0.05-1.01c0.09-1.29,0.21-2.57,0.36-3.86c0.51-4.52,1.2-9.03,2.07-13.49c0.41-2.12,0.86-4.23,1.37-6.32
			c-0.02,0.07,0.29-1.14,0.15-0.6c-0.11,0.45,0.08-0.32,0.11-0.41c0.14-0.55,0.29-1.1,0.44-1.65c0.3-1.1,0.62-2.19,0.96-3.28
			c0.63-2.04,1.33-4.06,2.1-6.06c0.38-0.99,0.78-1.98,1.21-2.95c0.2-0.46,0.4-0.91,0.61-1.37c0.13-0.28,0.26-0.57,0.39-0.85
			c-0.21,0.45,0.08-0.16,0.16-0.32c3.69-7.53,8.37-14.24,15-19.35c5.62-4.34,13.06-7.47,20.3-8.42c7.04-0.92,14.66-0.19,21.01,3.18
			c1.51,0.8,2.95,1.63,4.32,2.67C638.06,115.67,638.84,112.05,637.9,110.98L637.9,110.98z"/>
	</g>
	<g>
		<path class="st1" d="M290.07,440.44c2.57-11.43,9.31-21.65,17.18-30.14c7.52-8.11,16.62-14.94,27.14-18.61
			c4.94-1.72,10.17-2.57,15.42-2.13c4.97,0.42,10.12,2.34,14.02,5.23c1.01,0.74,1.97,1.55,2.88,2.41c1.09,1.02,1.57,1.54,2.34,2.47
			c0.8,0.97,1.55,1.99,2.25,3.04c0.35,0.53,0.69,1.06,1.02,1.61c0.18,0.3,0.35,0.6,0.52,0.9c0.57,0.99-0.32-0.65,0.2,0.36
			c1.23,2.39,2.25,4.88,3.05,7.44c-0.29-0.94,0.05,0.19,0.08,0.32c0.09,0.34,0.18,0.68,0.27,1.02c0.14,0.57,0.28,1.14,0.4,1.71
			c0.3,1.37,0.51,2.75,0.71,4.14c0.16,1.17-0.07-0.95,0.02,0.22c0.03,0.35,0.06,0.69,0.09,1.04c0.06,0.75,0.1,1.5,0.12,2.25
			c0.06,1.8,0.03,3.6-0.05,5.39c-0.07,1.47,0.08-0.85-0.04,0.62c-0.03,0.3-0.05,0.6-0.08,0.89c-0.08,0.9-0.18,1.79-0.29,2.68
			c-0.23,1.79-0.52,3.57-0.86,5.34c-1.22,6.38-3.16,12.65-5.37,19.22c-0.8,2.38-1.66,4.73-2.65,7.03c-0.26,0.61-0.53,1.22-0.81,1.82
			c-0.05,0.12-0.54,1.12-0.13,0.28c-0.1,0.2-0.2,0.4-0.29,0.6c-0.59,1.19-1.22,2.36-1.89,3.51c-0.61,1.04-1.25,2.05-1.94,3.04
			c-0.37,0.53-0.75,1.05-1.14,1.56c-0.13,0.17-0.26,0.34-0.39,0.5c0.49-0.62-0.34,0.39-0.43,0.49c-0.74,0.85-1.53,1.67-2.37,2.43
			c-0.41,0.37-0.83,0.73-1.26,1.08c-0.19,0.16-0.39,0.31-0.59,0.46c-0.16,0.12-0.32,0.23-0.48,0.35c0.29-0.19,0.28-0.18-0.04,0.02
			c-0.91,0.57-1.85,1.09-2.84,1.52c-0.45,0.19-0.9,0.37-1.36,0.52c-0.28,0.09-0.56,0.18-0.84,0.26c-0.19,0.05-0.38,0.1-0.57,0.15
			c0.3-0.07,0.28-0.07-0.08,0.01c-1.11,0.17-2.2,0.3-3.33,0.29c-0.51,0-1.02-0.03-1.53-0.08c-0.3-0.03-0.6-0.07-0.89-0.11
			c0.57,0.08-0.55-0.12-0.66-0.15c-1.03-0.26-2.04-0.61-3.01-1.06c-0.44-0.2-0.86-0.43-1.28-0.66c-0.83-0.44,0.5,0.37-0.27-0.17
			c-0.28-0.19-0.56-0.38-0.84-0.58c-0.83-0.61-1.62-1.28-2.35-2c-0.21-0.21-0.42-0.43-0.63-0.64c-0.7-0.7,0.45,0.56-0.19-0.21
			c-0.39-0.47-0.77-0.94-1.14-1.43c-0.68-0.91-1.3-1.87-1.87-2.86c-0.08-0.14-0.57-1.07-0.12-0.2c-0.15-0.28-0.29-0.56-0.43-0.85
			c-0.28-0.57-0.55-1.15-0.8-1.74c-0.46-1.09-0.86-2.19-1.23-3.31c-0.35-1.04,0.23,0.9-0.05-0.16c-0.08-0.31-0.17-0.62-0.25-0.93
			c-0.16-0.62-0.31-1.25-0.44-1.88c-0.12-0.57-0.22-1.15-0.32-1.73c-0.04-0.26-0.08-0.52-0.12-0.79c-0.05-0.35-0.37-1.16-0.02-0.06
			c-0.4-1.26-0.21-3.09-0.23-4.39c-0.01-0.73,0-1.47,0.02-2.2c0.01-0.44,0.03-0.88,0.05-1.32c0-0.07,0.09-1.51,0.02-0.55
			c0.12-1.75,0.31-3.5,0.56-5.24c0.23-1.6,0.5-3.19,0.81-4.77c0.14-0.72,0.29-1.44,0.45-2.16c0.1-0.43,0.19-0.86,0.3-1.29
			c0.07-0.29,0.14-0.57,0.21-0.86c0.12-0.5,0.14-0.57,0.05-0.2c0.81-3.16,1.76-6.28,2.78-9.37c1.89-5.7,3.9-11.44,6.32-16.94
			c0.23-0.52,0.47-1.04,0.71-1.56c0.3-0.65,0,0.01-0.06,0.12c0.13-0.27,0.26-0.54,0.4-0.81c0.55-1.12,1.13-2.22,1.74-3.31
			c1.2-2.15,2.49-4.24,3.93-6.23c0.31-0.43,0.62-0.85,0.95-1.27c0.06-0.07,0.71-0.88,0.2-0.27c0.2-0.24,0.39-0.47,0.59-0.71
			c0.78-0.91,1.59-1.79,2.45-2.62c0.73-0.72,1.51-1.39,2.33-2c0.14-0.11,0.29-0.21,0.43-0.31c-0.59,0.4,0.13-0.07,0.22-0.12
			c0.5-0.3,1.02-0.58,1.56-0.81c0.37-0.16,0.75-0.29,1.13-0.42c0.09-0.03,0.86-0.25,0.19-0.07c0.36-0.09,0.7-0.17,1.05-0.27
			c0.19-0.05,0.37-0.12,0.56-0.17c-0.6,0.16,0.14-0.02,0.23-0.03c0.22-0.03,0.47-0.03,0.7-0.07c0.02,0,0.8,0,0.32-0.12
			c1.59,0.37,2.52-1.08,2.75-2.5c0.19-1.22-0.12-3.87-1.7-4.24c0.04,0.05,0.08,0.1,0.12,0.15c-0.24-0.19-0.51-0.34-0.79-0.43
			c-0.22-0.09-0.45-0.15-0.68-0.21c-0.6-0.16-1.21-0.27-1.82-0.35c-1.18-0.14-2.37,0.17-3.49,0.55c-2.13,0.72-4.07,2.07-5.78,3.5
			c-4,3.36-7.04,7.99-9.59,12.51c-2.62,4.65-4.67,9.54-6.55,14.52c-2.66,7.01-5.09,14.08-6.9,21.36
			c-3.15,12.69-4.35,26.7,0.89,39.02c4.1,9.63,12.88,18.77,24.27,16.83c11.19-1.9,17.91-12.44,22.23-22.03
			c2.54-5.64,4.41-11.62,6.11-17.56c2.16-7.57,3.78-15.24,4.23-23.11c0.71-12.47-2.14-25.74-10.1-35.64
			c-3.73-4.64-8.43-8.42-13.98-10.63c-5.36-2.13-11.31-2.7-17-1.92c-12,1.66-22.89,8.32-31.69,16.4
			c-4.72,4.33-8.92,9.28-12.62,14.49c-3.73,5.26-6.87,10.98-8.94,17.11c-1.05,3.11-1.7,6.33-2.07,9.59
			c-0.11,0.95,0.08,2.45,1.14,2.84C289.32,442.51,289.88,441.26,290.07,440.44L290.07,440.44z"/>
	</g>
	<g>
		<path class="st1" d="M346.13,350.66c4.16,11.32,11.91,21.22,20.75,29.29c8.67,7.91,19.16,14.09,30.22,18.02
			c3.09,1.09,6.26,1.96,9.46,2.66c1.77,0.39,3.47,0.63,5.27,0.58c1.7-0.04,3.48,0.12,5-0.76c1.66-0.96,1.79-4.04,0.32-5.25
			c-1.26-1.04-2.62-1.35-4.12-1.87c-1.47-0.5-2.89-1.03-4.41-1.37c-2.75-0.62-5.46-1.33-8.14-2.2c-5.35-1.73-10.54-3.88-15.5-6.55
			c-9.24-4.98-18.47-12.44-25.31-20.39c-4.11-4.78-7.67-9.95-11.06-15.26c-0.53-0.83-1.54-0.89-2.16-0.14
			C345.75,348.31,345.75,349.63,346.13,350.66L346.13,350.66z"/>
	</g>
	<g>
		<path class="st1" d="M589.59,432.74c-1.52-13.26-8.88-24.98-17.55-34.8c-8-9.06-18.11-16.98-29.7-20.81
			c-5.47-1.81-11.4-2.73-17.15-2.01c-5.83,0.73-11.26,2.99-15.92,6.58c-9.44,7.28-14.64,19.47-15.82,31.1
			c-1.54,15.19,2.54,30.17,7.45,44.4c3.46,10.02,8.77,21.02,18.29,26.54c4.57,2.65,10.01,3.24,15.07,1.8
			c4.96-1.41,8.97-5.06,11.93-9.16c7.58-10.46,8.3-23.95,6.63-36.31c-0.98-7.24-2.97-14.31-5.28-21.23
			c-1.99-5.96-4.08-11.97-6.69-17.69c-2.21-4.84-4.82-9.59-8.06-13.83c-2.85-3.73-6.49-7.6-11.11-9.05
			c-0.62-0.19-1.24-0.31-1.88-0.42c0.81,0.14-0.42-0.08-0.69-0.08c-0.23,0-0.46,0.03-0.69,0.06c-1.11,0.14-2.1,0.62-3.15,0.87
			c-0.62,0.14-1.14,1.13-1.32,1.63c-0.3,0.82-0.34,1.83-0.16,2.68c0.31,1.49,1.26,2.73,2.87,2.36c0.08-0.02,0.16-0.04,0.23-0.05
			c-0.4,0.01-0.81,0.02-1.21,0.03c0.6,0.11,1.18,0.15,1.78,0.21c0.75,0.08-0.48-0.14,0.24,0.04c0.15,0.04,0.3,0.08,0.45,0.12
			c0.92,0.25,1.84,0.49,2.72,0.87c0.23,0.1,0.45,0.2,0.67,0.32c0.09,0.05,0.85,0.43,0.21,0.08c0.38,0.21,0.74,0.47,1.09,0.72
			c0.91,0.65,1.76,1.38,2.55,2.16c0.42,0.41,0.83,0.85,1.23,1.28c0.14,0.15,0.27,0.29,0.41,0.44c0.68,0.73-0.45-0.55,0.2,0.23
			c0.8,0.97,1.58,1.94,2.32,2.95c1.44,1.99,2.74,4.09,3.93,6.23c0.07,0.13,0.58,1.07,0.12,0.22c0.1,0.18,0.2,0.37,0.29,0.55
			c0.29,0.54,0.57,1.09,0.84,1.64c0.52,1.05,1.01,2.1,1.49,3.17c1.06,2.39,1.96,4.84,2.88,7.28c1.2,3.2,2.37,6.41,3.45,9.65
			c0.23,0.7,0.46,1.41,0.69,2.12c0.13,0.42,0.27,0.85,0.4,1.27c-0.23-0.74,0.2,0.66,0.19,0.64c0.46,1.56,0.89,3.13,1.29,4.71
			c0.83,3.28,1.51,6.59,1.98,9.94c0.06,0.44,0.12,0.87,0.17,1.31c0.19,1.43-0.07-0.89,0.06,0.55c0.07,0.73,0.14,1.46,0.19,2.19
			c0.12,1.76,0.18,3.52,0.16,5.28c-0.01,0.82,0.05,1.71-0.08,2.52c0.21-1.35-0.04,0.34-0.07,0.67c-0.13,1.27-0.33,2.52-0.59,3.77
			c-0.06,0.31-0.14,0.63-0.21,0.94c-0.23,1.07,0.26-0.89-0.04,0.16c-0.15,0.52-0.29,1.04-0.45,1.55c-0.38,1.23-0.82,2.44-1.33,3.62
			c-0.13,0.29-0.26,0.59-0.39,0.88c-0.3,0.68-0.03,0.06,0.03-0.06c-0.28,0.57-0.57,1.13-0.88,1.68c-0.61,1.08-1.28,2.13-2.02,3.13
			c-0.18,0.25-0.37,0.49-0.56,0.73c0.09-0.11,0.45-0.52,0-0.02c-0.4,0.45-0.8,0.9-1.22,1.33c-0.83,0.84-1.73,1.59-2.68,2.3
			c-0.5,0.38-0.14,0.09-0.02,0.02c-0.24,0.16-0.49,0.31-0.74,0.46c-0.5,0.29-1.01,0.56-1.53,0.8c-0.44,0.2-0.88,0.39-1.34,0.55
			c-0.27,0.1-0.55,0.19-0.83,0.28c-0.11,0.03-1.22,0.3-0.64,0.18c-1.09,0.23-2.19,0.34-3.3,0.35c-0.51,0-1.03-0.01-1.54-0.06
			c-0.3-0.02-0.6-0.06-0.9-0.1c-0.2-0.03-0.4-0.06-0.59-0.09c0.26,0.04,0.28,0.04,0.06,0c-1-0.23-1.98-0.52-2.93-0.91
			c-0.54-0.22-1.07-0.47-1.59-0.74c-0.26-0.14-0.51-0.28-0.77-0.43c0.59,0.34-0.23-0.15-0.28-0.19c-0.91-0.61-1.78-1.29-2.6-2.01
			c-0.46-0.41-0.9-0.83-1.33-1.27c-0.22-0.22-0.43-0.45-0.64-0.67c-0.53-0.56,0.32,0.41-0.21-0.24c-1.58-1.92-3.01-3.93-4.27-6.07
			c-0.17-0.29-0.33-0.57-0.49-0.86c-0.06-0.11-0.59-1.09-0.15-0.26c-0.26-0.49-0.51-0.98-0.76-1.48c-0.59-1.19-1.15-2.4-1.68-3.63
			c-1.02-2.37-1.9-4.8-2.72-7.24c-0.53-1.58-1.05-3.16-1.54-4.74c-0.6-1.9-0.81-2.59-1.37-4.59c-0.94-3.34-1.77-6.72-2.41-10.13
			c-0.3-1.62-0.54-3.26-0.77-4.89c-0.02-0.11-0.11-0.87-0.03-0.16c-0.05-0.45-0.09-0.89-0.13-1.34c-0.09-0.97-0.16-1.94-0.2-2.91
			c-0.08-1.65-0.1-3.3-0.04-4.94c0.01-0.38,0.03-0.75,0.05-1.13c0.07-1.44-0.08,0.64,0.04-0.53c0.07-0.69,0.13-1.39,0.22-2.08
			c0.16-1.27,0.37-2.54,0.63-3.8c0.07-0.34,0.15-0.69,0.23-1.03c0.03-0.13,0.33-1.26,0.07-0.32c0.18-0.68,0.37-1.36,0.58-2.03
			c0.38-1.23,0.81-2.44,1.3-3.63c0.26-0.65,0.55-1.29,0.83-1.93c0.46-1.02-0.2,0.38,0.1-0.22c0.18-0.36,0.37-0.73,0.56-1.09
			c0.6-1.12,1.24-2.22,1.94-3.28c0.38-0.58,0.77-1.14,1.18-1.69c0.53-0.71,0.47-0.65,0.94-1.2c3.48-4.1,7.45-6.98,12.48-8.78
			c4.76-1.71,10.01-1.98,15.1-1.23c10.68,1.57,20.69,7.73,28.67,14.83c8.53,7.59,16.1,17.13,20.29,27.82
			c1.02,2.62,1.94,5.27,2.55,8.01c0.2,0.87,0.88,1.98,1.92,1.58C589.67,435.21,589.7,433.65,589.59,432.74L589.59,432.74z"/>
	</g>
	<g>
		<path class="st1" d="M528,341.16c-6.07,9.45-12.56,17.96-21.25,25.22c-8.5,7.1-18.03,12.65-28.74,16.29
			c-2.78,0.95-6.15,1.96-8.66,2.53c-1.78,0.41-3.48,0.84-5.19,1.46c-1.7,0.61-3.31,0.93-4.72,2.12c-1.5,1.27-1.05,4.31,0.58,5.23
			c1.36,0.77,2.85,0.67,4.37,0.71c1.53,0.04,3,0.04,4.51-0.27c3.02-0.61,6.01-1.39,8.94-2.32c5.47-1.73,10.76-4.13,15.76-6.94
			c10.48-5.9,19.71-13.78,27.06-23.31c4.16-5.39,7.66-11.36,9.99-17.76c0.36-1,0.26-2.42-0.5-3.21
			C529.45,340.19,528.55,340.3,528,341.16L528,341.16z"/>
	</g>
	<g>
		<path class="st1" d="M408.21,485.2c0.05-0.53,0.12-1.06,0.22-1.58c0.16-0.81-0.15,0.44,0.08-0.32c0.05-0.15,0.09-0.31,0.15-0.46
			c0.08-0.22,0.16-0.45,0.25-0.66c0.29-0.68-0.25,0.38,0.12-0.23c0.23-0.38,0.49-0.73,0.74-1.09c0.04-0.05,0.48-0.64,0.13-0.2
			c0.14-0.17,0.29-0.33,0.44-0.49c0.25-0.27,0.52-0.52,0.8-0.75c0.81-0.69,0.9-0.73,1.92-1.27c1.66-0.87,3.46-1.5,5.28-1.96
			c0.59-0.15,0.27-0.08,0.88-0.2c0.52-0.11,1.04-0.2,1.56-0.29c1.06-0.18,2.12-0.31,3.19-0.43c3.82-0.42,7.67-0.55,11.5-0.83
			c4.57-0.32,9.67-0.46,13.87,0.49c1.08,0.24,2.14,0.55,3.17,0.95c0.46,0.17,0.9,0.36,1.35,0.57c0.26,0.12,0.52,0.25,0.77,0.39
			c0.17,0.09,0.33,0.18,0.5,0.28c-0.24-0.15-0.21-0.13,0.08,0.06c0.86,0.58,1.66,1.23,2.36,1.99c-0.45-0.49,0.4,0.54,0.51,0.71
			c0.17,0.24,0.31,0.49,0.47,0.73c0.2,0.35,0.19,0.34-0.02-0.04c0.07,0.13,0.13,0.27,0.19,0.41c0.11,0.27,0.22,0.54,0.33,0.81
			c0.41,1-0.07-0.65,0.12,0.4c0.06,0.35,0.13,0.7,0.2,1.05c-0.15-0.79-0.02-0.23-0.02-0.03c0,0.35,0.01,0.71,0.02,1.06
			c0.02,1.13,0.16-0.79-0.03,0.33c-0.06,0.35-0.1,0.71-0.17,1.06c-0.01,0.08-0.31,1.17-0.08,0.42c-0.21,0.71-0.44,1.4-0.71,2.09
			c-0.12,0.29-0.24,0.57-0.37,0.85c-0.29,0.63,0.41-0.7-0.17,0.33c-0.74,1.32-1.52,2.58-2.43,3.78c-1.38,1.8-3.73,3.99-5.82,5.57
			c-2.13,1.61-4.57,2.95-7.11,3.98c-4.64,1.88-10.5,2.74-15.05,1.57c-5.05-1.29-8.94-4.45-12.56-8.3c-0.74-0.79,0.37,0.47-0.32-0.36
			c-0.28-0.34-0.57-0.68-0.85-1.03c-0.41-0.52-0.8-1.05-1.18-1.59c-0.43-0.61-0.86-1.22-1.26-1.85c-0.11-0.18-0.22-0.35-0.33-0.53
			c-0.11-0.17-0.22-0.35-0.31-0.54c0.19,0.35,0.19,0.34,0-0.02c-0.22-0.45-0.47-0.89-0.71-1.33c0.37,0.69-0.08-0.18-0.12-0.26
			c-0.23-0.44-0.44-0.79-0.7-1.19c-0.09-0.14-0.18-0.29-0.27-0.43c0.16,0.28,0.17,0.26,0.03-0.06c-0.25-0.95-0.86-1.94-1.08-2.75
			c-0.32-1.23-1.79-2.01-2.3-0.4c-0.39,1.25-0.66,2.58-0.66,3.9c0,0.47,0.07,0.94,0.13,1.41c0.02,0.14,0.15,0.94,0.09,0.58
			c-0.06-0.4,0.01,0.07,0.02,0.13c0.05,0.36,0.08,0.73,0.12,1.09c0.05,0.36,0.1,0.71,0.19,1.06c0.82,3.02,2.41,5.89,4.32,8.37
			c3.46,4.49,7.89,8.41,13.03,10.87c11.27,5.4,25.36-0.2,33.6-8.52c4.89-4.93,8.44-11.47,8.46-18.55
			c0.02-6.45-3.44-12.21-9.16-15.11c-4.74-2.4-10.46-2.78-15.68-2.64c-4.43,0.12-8.92,0.5-13.33,1.02
			c-4.46,0.52-9.17,1.31-13.22,3.33c-4.23,2.11-7.17,5.68-8.17,10.32c-0.26,1.21-0.34,2.48-0.33,3.72c0.01,0.94,0.46,2.31,1.52,2.49
			C407.43,487.25,408.13,486.1,408.21,485.2z"/>
	</g>
	<g>
		<path class="st1" d="M330.67,509.79c10.8-4.67,22.07-7.88,33.83-8.83c11.2-0.9,22.87,0.07,33.55,3.72
			c5.06,1.73,9.76,4.03,13.83,7.4c4.25,3.52,6.84,7.38,8.83,12.35c0.52,1.3,0.99,2.62,1.43,3.95c0.21,0.64,0.41,1.27,0.61,1.91
			c-0.21-0.69-0.01-0.03,0.03,0.09c0.15,0.51,0.3,1.02,0.45,1.54c0.34,1.18,0.66,2.37,0.9,3.58c0.12,0.59,0.22,1.17,0.3,1.77
			c0.05,0.32,0.4,1.2,0.04,0.22c0.1,0.27,0.07,0.77,0.09,1.06c0.09,1.23,0.12,2.47,0.08,3.7c-0.01,0.28,0.02,0.6-0.03,0.88
			c0.19-1.04,0.02-0.28-0.01,0.02c-0.06,0.7-0.13,1.39-0.23,2.08c-0.17,1.21-0.4,2.4-0.66,3.59c-0.17,0.79-0.01,0.06,0.03-0.09
			c-0.09,0.33-0.18,0.67-0.27,1c-0.19,0.66-0.39,1.32-0.62,1.97c-0.44,1.29-0.96,2.55-1.51,3.8c-0.3,0.7-0.05,0.12,0.02-0.02
			c-0.19,0.4-0.4,0.81-0.6,1.2c-0.31,0.59-0.63,1.18-0.97,1.75c-0.67,1.13-1.39,2.24-2.17,3.3c-0.13,0.17-0.26,0.35-0.39,0.52
			c-0.08,0.11-0.93,1.14-0.41,0.53c-0.41,0.49-0.83,0.97-1.26,1.44c-0.85,0.91-1.74,1.78-2.68,2.6c-0.46,0.4-0.93,0.78-1.42,1.15
			c-0.16,0.12-0.32,0.24-0.48,0.36c-0.16,0.12-0.32,0.23-0.49,0.35c0.3-0.2,0.28-0.19-0.03,0.02c-0.95,0.6-1.93,1.12-2.92,1.65
			c-1.25,0.68-2.33,1.47-3.47,2.3c-2.07,1.5-1.44,6.91,1.44,7.07c2.46,0.13,4.48-0.8,6.52-2.1c2.04-1.3,3.95-2.77,5.67-4.46
			c3.87-3.81,6.81-8.4,9.02-13.34c2.35-5.25,3.54-10.94,3.83-16.67c0.31-6.13-1.07-11.89-2.89-17.69
			c-1.83-5.82-4.23-11.68-8.28-16.33c-3.95-4.54-8.92-7.97-14.4-10.42c-10.88-4.87-23.48-6.27-35.29-5.66
			c-13.96,0.72-28.09,4.59-39.96,12.09c-0.99,0.63-1.27,1.9-1.04,3.01C328.85,509.02,329.6,510.25,330.67,509.79L330.67,509.79z"/>
	</g>
	<g>
		<path class="st1" d="M499.31,572.1c-5.46-2.72-10.38-5.89-14.94-9.95c-4.68-4.16-8.44-8.68-12.16-13.76
			c-3.7-5.05-7.1-10.32-10.44-15.61c-0.43-0.68-0.84-1.36-1.23-2.06c-0.09-0.16-0.18-0.32-0.27-0.48c0.04,0.07,0.18,0.35,0-0.01
			c-0.2-0.38-0.39-0.76-0.58-1.14c-0.69-1.42-1.31-2.87-1.84-4.35c-0.12-0.34-0.24-0.68-0.36-1.02c-0.06-0.19-0.33-1.02-0.14-0.42
			c-0.24-0.8-0.45-1.61-0.65-2.43c-0.35-1.5-0.62-3.02-0.81-4.55c0.09,0.72,0-0.04-0.02-0.33c-0.03-0.35-0.05-0.7-0.07-1.05
			c-0.05-0.82-0.07-1.64-0.07-2.46c0-0.35,0.01-0.7,0.02-1.05c0.01-0.31,0.06-1.05,0-0.32c0.06-0.75,0.13-1.51,0.23-2.26
			c0.1-0.75,0.22-1.49,0.37-2.23c0.07-0.34,0.14-0.68,0.22-1.02c0.01-0.04,0.15-0.6,0.04-0.19c-0.1,0.41,0.08-0.29,0.1-0.35
			c0.41-1.46,0.91-2.89,1.51-4.28c0.07-0.16,0.39-0.87,0.31-0.71c-0.07,0.14,0.35-0.68,0.43-0.85c0.36-0.68,0.75-1.35,1.15-2
			c0.38-0.61,0.78-1.21,1.2-1.79c0.5-0.69,0.87-1.18,1.29-1.65c2.02-2.34,4.4-4.27,7.04-5.77c5.26-2.99,11.36-4.75,17.36-5.42
			c4.47-0.5,9.09,0.08,13.51,0.73c11.35,1.65,22.66,4.91,33.76,8.3c0.81,0.25,1.62,0.58,2.47,0.41c0.6-0.12,1.18-0.34,1.77-0.51
			c1.67-0.5,1.64-3.78,0.72-4.84c-0.47-0.54-0.93-1.11-1.43-1.63c-0.67-0.7-1.54-1.01-2.44-1.33c-1.34-0.48-2.7-0.89-4.06-1.31
			c-2.93-0.91-5.88-1.75-8.85-2.54c-6.19-1.65-12.45-3.05-18.77-4.13c-4.98-0.85-10.12-1.61-15.2-1.38
			c-2.85,0.13-5.69,0.74-8.46,1.39c-3.27,0.77-6.49,1.79-9.53,3.22c-6.35,2.99-11.55,7.74-15,13.86c-3.43,6.09-5.07,13-5.07,19.98
			c0,6.85,1.65,13.8,4.6,19.97c2.88,6.03,6.89,11.64,10.7,17.11c7.34,10.56,16.12,21.51,28.23,26.75c1.45,0.63,2.9,1.14,4.44,1.5
			C501.44,578.85,501.54,573.21,499.31,572.1L499.31,572.1z"/>
	</g>
	<g>
		<path class="st1" d="M428.34,540.52c3.83-4.3,9.34-6.78,15.02-7.08c2.95-0.16,5.67,0.17,8.38,1.09c1.38,0.47,2.73,1.07,3.99,1.81
			c0.87,0.51,2.68,2.14,4.11,1.85c1.55-0.32,1.93-2.15,1.65-3.52c-0.01-0.04,0.06,2.35,0.06,1.09c0-0.37,0.01-0.72-0.06-1.09
			c-0.09-0.49-0.24-0.99-0.43-1.45c-0.38-0.9-1.09-1.54-1.74-2.24c-0.98-1.06-2.36-1.82-3.62-2.49c-2.35-1.23-5.02-1.9-7.64-2.22
			c-5.2-0.62-10.83,0.66-15.2,3.54c-2.76,1.82-4.94,4-6.56,6.89c-0.54,0.96-0.6,2.26-0.05,3.23
			C426.64,540.64,427.62,541.33,428.34,540.52L428.34,540.52z"/>
	</g>
	<g>
		<path class="st1" d="M442.33,146.76c-0.42,2.21-0.29,4.52-0.18,6.77c0.12,2.41,0.45,4.83,0.79,7.22
			c0.61,4.35,1.53,8.63,2.73,12.85c2.5,8.79,5.99,17.15,10.52,25.09c1.2,2.1,2.46,4.15,3.84,6.14c0.76,1.09,1.56,2.18,2.5,3.11
			c0.73,0.72,1.72,1.96,3.15,1.79c1.37-0.16,1.92-1.81,1.87-3.01c-0.12-2.76-1.57-4.9-2.97-7.13c-1.11-1.77-2.27-3.51-3.35-5.3
			c-1.05-1.72-2.21-3.77-2.89-5.08c-0.96-1.84-1.87-3.72-2.73-5.61c-1.7-3.79-3.23-7.65-4.5-11.6c-0.14-0.45-0.29-0.89-0.42-1.34
			c0.17,0.55-0.03-0.09-0.05-0.17c-0.08-0.26-0.15-0.51-0.23-0.77c-0.3-1.03-0.58-2.07-0.84-3.11c-0.51-2.01-0.99-4.03-1.42-6.06
			c-0.48-2.29-0.88-4.59-1.2-6.9c-0.32-2.31-0.53-4.73-1.18-6.96c-0.24-0.82-0.72-1.98-1.77-1.95
			C442.98,144.75,442.49,145.92,442.33,146.76L442.33,146.76z"/>
	</g>
	<g>
		<path class="st1" d="M641.09,645.13c4.71-2.12,9.16-4.67,13.18-7.94c4.09-3.32,7.74-7.09,10.95-11.25
			c6.51-8.43,11.17-18.3,13.6-28.66c0.68-2.89,1.05-5.8,1.32-8.75c0.28-2.98,0.55-6.79-0.55-9.61c-0.5-1.29-1.84-1.18-2.31,0.06
			c-0.84,2.24-0.78,4.9-1.15,7.26c-0.39,2.44-0.76,4.84-1.28,7.25c-0.91,4.28-2.48,9.18-4.42,13.6
			c-3.81,8.67-9.81,16.96-16.87,23.59c-4.07,3.82-8.53,7.4-13.35,10.24C638.71,641.79,639.08,646.03,641.09,645.13L641.09,645.13z"
			/>
	</g>
	<g>
		<path class="st1" d="M564.2,499.76c0.02,0.05,0.04,0.11,0.07,0.16c-0.02-0.94-0.05-1.89-0.07-2.83c-0.05,0.15-0.09,0.31-0.12,0.46
			c-0.14,0.44-0.19,0.88-0.16,1.34c0,0.46,0.07,0.91,0.23,1.33c0.09,0.4,0.26,0.77,0.5,1.11c0.16,0.18,0.32,0.35,0.48,0.53
			c0.24,0.24,0.53,0.37,0.86,0.39c0.31,0.1,0.61,0.07,0.91-0.08c0.32-0.14,0.57-0.36,0.76-0.64c0.26-0.28,0.45-0.61,0.56-0.99
			c0.07-0.28,0.14-0.56,0.21-0.84c0.08-0.46,0.09-0.93,0.01-1.39c-0.02-0.44-0.12-0.87-0.3-1.29c-0.12-0.23-0.25-0.46-0.37-0.69
			c-0.26-0.39-0.6-0.68-1.03-0.87c-0.2-0.04-0.41-0.07-0.61-0.11c-0.53,0.04-0.97,0.26-1.33,0.68c0.46-0.1,0.92-0.21,1.39-0.31
			c-0.02,0-0.03-0.01-0.05-0.01c-0.16-0.03-0.32-0.06-0.48-0.09c-0.16,0.04-0.31,0.07-0.47,0.11c-0.14,0.09-0.28,0.19-0.42,0.28
			c-0.22,0.2-0.38,0.44-0.48,0.71c-0.11,0.19-0.18,0.39-0.21,0.61c-0.08,0.22-0.11,0.45-0.1,0.69c-0.04,0.24-0.03,0.48,0.02,0.72
			C563.98,499.11,564.06,499.44,564.2,499.76L564.2,499.76z"/>
	</g>
	<g>
		<path class="st1" d="M267.7,510.35c0.1-0.01,0.2-0.02,0.31-0.03c0.05,0,0.1-0.01,0.15-0.01c0.03,0,0.05,0,0.08-0.01
			c0.01,0,0.02,0,0.03,0c0.1-0.01,0.19-0.03,0.28-0.06c0.1,0,0.2-0.02,0.28-0.07c0.16-0.11,0.31-0.21,0.47-0.32
			c0.24-0.23,0.43-0.49,0.54-0.8c0.13-0.21,0.21-0.44,0.24-0.68c0.12-0.38,0.17-0.77,0.14-1.18c-0.03-0.27-0.06-0.54-0.09-0.81
			c-0.07-0.24-0.15-0.48-0.22-0.72c-0.11-0.33-0.29-0.61-0.54-0.84c-0.18-0.24-0.41-0.42-0.69-0.53c-0.08-0.05-0.18-0.07-0.28-0.06
			c-0.09-0.02-0.18-0.04-0.28-0.05c-0.01,0-0.03,0-0.04,0c-0.03,0-0.05,0-0.08-0.01c-0.05,0-0.1-0.01-0.15-0.01
			c-0.1-0.01-0.21-0.02-0.31-0.03c-0.3,0-0.56,0.1-0.78,0.29c-0.28,0.15-0.49,0.37-0.64,0.66c-0.2,0.31-0.33,0.65-0.4,1.01
			c-0.12,0.39-0.17,0.79-0.15,1.2c0.03,0.27,0.06,0.55,0.09,0.82c0.1,0.49,0.28,0.94,0.56,1.36c0.14,0.16,0.28,0.32,0.42,0.48
			C266.96,510.21,267.31,510.34,267.7,510.35L267.7,510.35z"/>
	</g>
	<g>
		<path class="st1" d="M290.67,508.1c-0.03,0.15-0.06,0.3-0.09,0.44c-0.27,1.3,0.31,3.99,2.1,3.95c1.82-0.04,2.17-2.73,1.9-4.04
			c-0.03-0.15-0.06-0.29-0.09-0.44c-0.19-0.92-0.85-2.19-1.96-2.17C291.39,505.87,290.86,507.17,290.67,508.1L290.67,508.1z"/>
	</g>
	<g>
		<path class="st1" d="M276.55,529.28c0.13-0.02,0.25-0.05,0.38-0.07c0.16-0.03,0.36-0.06,0.48-0.11c0.24-0.1,0.42-0.26,0.56-0.47
			c0.07-0.07,0.13-0.14,0.17-0.22c0.01-0.02,0.03-0.05,0.04-0.07c0.01-0.02,0.03-0.05,0.04-0.07c0.1-0.16,0.17-0.3,0.24-0.5
			c0.03-0.09,0.05-0.19,0.07-0.29c0.09-0.29,0.13-0.58,0.11-0.88c-0.02-0.2-0.05-0.4-0.07-0.61c-0.05-0.19-0.11-0.37-0.17-0.55
			c-0.08-0.15-0.17-0.31-0.25-0.46c-0.01-0.01-0.01-0.02-0.02-0.03c-0.02-0.03-0.03-0.05-0.05-0.08s-0.03-0.05-0.05-0.08
			c-0.17-0.27-0.46-0.54-0.77-0.66c-0.15-0.06-0.32-0.06-0.48-0.09c-0.13-0.02-0.25-0.05-0.38-0.07c-0.26,0-0.48,0.08-0.66,0.24
			c-0.23,0.13-0.42,0.32-0.55,0.56c-0.17,0.27-0.28,0.55-0.34,0.86c-0.1,0.33-0.14,0.67-0.12,1.02c0.03,0.23,0.05,0.47,0.08,0.7
			c0.08,0.42,0.24,0.8,0.48,1.16c0.12,0.13,0.24,0.27,0.36,0.4C275.92,529.16,276.22,529.27,276.55,529.28L276.55,529.28z"/>
	</g>
	<g>
		<path class="st1" d="M300.97,525.12c-0.03-0.02-0.06-0.04-0.09-0.05c-0.01,0-0.01-0.01-0.02-0.01c0,0,0,0-0.01,0
			c-0.17-0.1-0.34-0.21-0.51-0.31c-0.4-0.18-0.51-0.11-0.84-0.04c-0.18,0.04-0.21,0.03-0.3,0.08c-0.01,0-0.02,0.01-0.03,0.01
			c-0.01,0-0.01,0-0.01,0.01c0,0,0,0-0.01,0c-0.1,0.05-0.19,0.11-0.28,0.19c-0.22,0.11-0.39,0.27-0.51,0.47
			c-0.27,0.29-0.47,0.63-0.58,1.02c-0.07,0.29-0.14,0.58-0.22,0.86c-0.02,0.32-0.04,0.64-0.06,0.96c0,0.48,0.07,0.94,0.24,1.38
			c0.06,0.28,0.16,0.54,0.32,0.78c0.15,0.35,0.38,0.66,0.68,0.91c0.19,0.12,0.38,0.23,0.57,0.35c0.21,0.04,0.42,0.08,0.63,0.11
			c0.21-0.05,0.42-0.1,0.62-0.14c0.33-0.15,0.59-0.37,0.79-0.66c0.19-0.19,0.32-0.4,0.41-0.65c0.21-0.38,0.34-0.79,0.39-1.23
			c0.02-0.32,0.04-0.64,0.06-0.96c-0.04-0.32-0.07-0.63-0.11-0.95c-0.07-0.44-0.22-0.84-0.45-1.21
			C301.49,525.68,301.27,525.37,300.97,525.12L300.97,525.12z"/>
	</g>
	<g>
		<path class="st1" d="M552.12,388.25c1.02-0.07,2-0.26,3-0.51c0.14-0.03,0.12-0.03-0.06,0.01c0.23-0.05,0.47-0.11,0.7-0.16
			c0.24-0.06,0.48-0.12,0.72-0.2c0.41-0.12,0.82-0.26,1.22-0.42c1.72-0.68,3.39-1.81,4.69-3.14c1.35-1.39,2.57-2.98,3.43-4.72
			c0.59-1.19,1.07-2.44,1.33-3.75c0.29-1.47,0.54-3.1-0.19-4.48c-0.34-0.65-1.13-1.72-2.03-1.19c-0.76,0.44-1.16,0.92-1.47,1.76
			c-0.14,0.37-0.26,0.74-0.42,1.1c-0.17,0.36-0.32,0.73-0.48,1.1c-0.25,0.59,0.31-0.58,0.03-0.06c-0.12,0.22-0.23,0.44-0.35,0.66
			c-0.38,0.73-0.8,1.44-1.28,2.11c-0.11,0.16-0.22,0.31-0.34,0.46c-0.08,0.1-0.15,0.2-0.23,0.3c0.07-0.09,0.15-0.19,0.22-0.28
			c0,0.22-0.73,0.82-0.89,0.99c-1.18,1.2-2.44,2.27-3.81,3.25c0.44-0.31-0.14,0.09-0.24,0.15c-0.19,0.12-0.39,0.24-0.59,0.35
			c-0.34,0.19-0.68,0.38-1.03,0.53c-0.81,0.36-1.67,0.62-2.53,0.82c-0.47,0.11-0.91,0.88-1.04,1.28c-0.19,0.57-0.24,1.15-0.17,1.74
			C550.41,386.83,550.96,388.33,552.12,388.25L552.12,388.25z"/>
	</g>
	<g>
		<path class="st1" d="M568.2,400.98c4.91,0.24,9.78-1.69,13.23-5.18c1.84-1.86,3.52-4.28,4.36-6.79c0.5-1.51,1-3.22,0.91-4.81
			c0,0.05-0.03-1.05-0.15-1.29c0.05,0.45,0.07,0.5,0.04,0.14c-0.01-0.16-0.02-0.31-0.03-0.47c-0.07-0.89-0.21-1.7-0.56-2.52
			c-0.6-1.42-1.95-1.27-2.52,0.06c-0.1,0.24-0.21,0.47-0.29,0.72c-0.05,0.22-0.11,0.43-0.16,0.65c0.08-0.3,0.08-0.31,0.01-0.03
			c-0.09,0.28-0.2,0.56,0.02,0.15c-0.22,0.41-0.45,0.72-0.63,1.18c-0.16,0.43-0.27,0.87-0.43,1.3c-0.05,0.14-0.11,0.29-0.16,0.43
			c0.18-0.38,0.22-0.46,0.11-0.25c-0.23,0.39-0.44,0.86-0.62,1.27c-0.1,0.23-0.21,0.82-0.02,0.08c-0.06,0.24-0.26,0.51-0.38,0.73
			c-0.25,0.45-0.52,0.88-0.8,1.3c-0.31,0.46-0.65,0.89-0.99,1.33c-0.49,0.63,0.42-0.46-0.12,0.14c-0.19,0.21-0.37,0.42-0.56,0.62
			c-1.48,1.57-3.11,2.82-4.64,3.65c-1.94,1.06-3.65,1.58-5.77,1.7C565.43,395.25,565.58,400.85,568.2,400.98L568.2,400.98z"/>
	</g>
	<g>
		<path class="st1" d="M298.1,385.41c-0.37,4.47,0.66,9.22,3.51,12.79c1.3,1.62,2.91,3.27,4.81,4.19c0.73,0.35,1.62,0.51,2.42,0.43
			c1.68-0.16,2.92-1.42,3.04-3.15c-0.16,0.44-0.31,0.88-0.47,1.31c0.4-0.83,0.67-1.61,0.64-2.56c-0.03-0.82-0.27-1.77-0.94-2.32
			c-0.55-0.45-1.27-0.45-1.8,0.04c-0.35,0.33,0.4-0.18,0.09-0.05c0.5,0.09,1,0.17,1.5,0.26c-0.76-0.64-1.5-0.42-2.38-0.48
			c-0.05,0-0.09-0.01-0.14-0.01c-0.25-0.03-0.19-0.02,0.19,0.04c-0.06-0.06-0.34-0.09-0.42-0.11c-0.28-0.08-0.54-0.19-0.8-0.3
			c-0.41-0.17,0.43,0.31,0,0c-0.16-0.11-0.32-0.22-0.47-0.33c-0.34-0.25-0.66-0.51-0.97-0.78c-0.31-0.27-0.61-0.56-0.9-0.86
			c-0.04-0.05-0.09-0.09-0.13-0.14c-0.2-0.22-0.17-0.19,0.09,0.11c-0.14-0.09-0.27-0.32-0.37-0.44c-0.48-0.59-0.94-1.19-1.34-1.84
			c-0.12-0.19-0.22-0.38-0.34-0.57c-0.11-0.19-0.06-0.11,0.13,0.25c-0.04-0.08-0.09-0.17-0.13-0.25c-0.18-0.37-0.35-0.74-0.51-1.12
			c-0.15-0.34-0.29-0.69-0.42-1.04c-0.06-0.17-0.11-0.36-0.18-0.53c0.28,0.73,0.05,0.16,0.01-0.02c-0.09-0.37-0.17-0.74-0.24-1.11
			c-0.01-0.08-0.11-0.85-0.06-0.39c0.05,0.46-0.02-0.33-0.03-0.41c-0.06-0.94-0.43-2.38-1.56-2.54
			C298.9,383.33,298.18,384.47,298.1,385.41L298.1,385.41z"/>
	</g>
	<g>
		<path class="st1" d="M283.35,405.25c1,3.67,3.11,6.96,6.18,9.24c1.41,1.05,3.04,2,4.74,2.49c0.86,0.25,1.78,0.4,2.67,0.47
			c0.2,0.02,0.39,0.02,0.59,0c-0.38,0.04,0.99-0.28,0.59-0.16c0.37-0.11,0.71-0.12,1.05-0.32c0.24-0.14,0.45-0.32,0.66-0.51
			c0.94-0.85,0.94-3.01-0.09-3.8c-0.78-0.59-1.69-0.9-2.65-1.06c-0.17-0.03-0.33-0.05-0.5-0.08c0.36,0.07-0.19-0.04-0.26-0.06
			c-0.39-0.09-0.77-0.2-1.16-0.32c-0.7-0.21-1.39-0.43-2.06-0.72c-0.36-0.16-0.72-0.33-1.07-0.52c-0.15-0.08-0.29-0.16-0.43-0.24
			c-0.13-0.07-0.11-0.07,0.04,0.02c-0.08-0.05-0.17-0.11-0.25-0.16c-0.61-0.4-1.19-0.85-1.73-1.34c-0.27-0.24-0.52-0.5-0.78-0.76
			c-0.36-0.36,0.15,0.2-0.15-0.16c-0.13-0.15-0.25-0.31-0.38-0.46c-0.22-0.29-0.43-0.58-0.63-0.89c-0.11-0.17-0.21-0.33-0.31-0.5
			c-0.11-0.19-0.2-0.36-0.05-0.06c-0.37-0.71-0.67-1.44-0.9-2.2c-0.28-0.92-1.32-1.61-2.19-1.03
			C283.36,402.72,283.07,404.23,283.35,405.25L283.35,405.25z"/>
	</g>
</g>
</svg>
