<svg xmlns="http://www.w3.org/2000/svg" width="2000" height="2000" viewBox="0 0 200 200">
  <path d="M142.4,87.313c-1.239.173-2.492.271-3.738.4-.017-.206-.032-.411-.057-.617-.2-2.09.283-4.434-1.116-6.2-2.548-2.747-5.8-3.382-8.158-.039-3.2,2.514-4.366,6.344-5.508,10.132l-.244.055a15.056,15.056,0,0,0-2.3.508c-.147-7.431.769-14.846.661-22.274a30.093,30.093,0,0,0-2.945-10.208,10.089,10.089,0,0,0-1.114-1.379c.113-.122.224-.242.333-.356a39.67,39.67,0,0,1,4.624-4.27c2.357-1.895.19-7.624-2.891-5.254a37.8,37.8,0,0,0-6.194,6.385,20.026,20.026,0,0,0-10.578-3.066c-3.2.463-6.467.654-9.665,1.167a1.717,1.717,0,0,0-.947.166c-.69.127-1.378.264-2.059.433a19.035,19.035,0,0,0-4.712,2.129,2.97,2.97,0,0,0-1.412-1.982,19.84,19.84,0,0,1-2.386-3.915c-2.453-3.626-5.609.776-3.9,3.645.892,1.5,2.116,4.12,3.781,5.357a28.915,28.915,0,0,0-6.517,10.068c-1.127,4.747-.9,9.707-1.408,14.548-1.046.595-2.115.1-3.2-.033-.833-4.157-.414-8.6-1.69-12.657-3.482-6.651-11.522-.029-12.908,4.966A27.3,27.3,0,0,0,54.835,87.78a14.24,14.24,0,0,0-4.143,2.111c-1.328.857-1.522,2.885-.974,4.233,1.492,3.189,3.669,1.059,5.7-.133.133-.042.262-.087.387-.133,1.992,6.779,10.913,8.425,16.978,6.335.973.173,1.325.965,2.245,1.458,2.128.629,1.807,2.913,2.481,4.632a31.95,31.95,0,0,1,2.21,7.9c.03.145.065.282.1.413-3.038-.146-6.708-.266-6.549,3.88-.952,1.15-.91,2.595-1.192,3.96a21.926,21.926,0,0,0-.843,5.254c-.209,2.263,1.548,3.13,3.553,3.045a10.514,10.514,0,0,0,2.977.221,10.981,10.981,0,0,0-.6,3.992q-.15,4.373-.03,8.75c.061,2.17-.522,4.35,0,6.489-.141,2.7,2.394,3,4.531,3.041a42.538,42.538,0,0,0,4.394.343c4.294-.237,8.605-.089,12.861-.8,3.119,0,6.23.336,9.288-.469a2.322,2.322,0,0,0,2.573-1.552c.7-4.188.741-8.5,1.385-12.713a24.171,24.171,0,0,0,.888-7.68c.009-.068.015-.137.021-.205l.39-.038c1.545-.236,3.6-.075,4.407-1.71.84-1.494-.087-3.125.176-4.708.164-1.765.939-3.479.8-5.267a4.579,4.579,0,0,0-4.781-3.722c-.281-.031-.562-.051-.843-.076a24.87,24.87,0,0,0,.974-2.725c.38-2.492,3.22-2.85,5.269-3.231,2.284-.68,4.693-.605,6.971-1.319a16.108,16.108,0,0,0,7.9-5.445,25.462,25.462,0,0,0,3.762-7.94,38.319,38.319,0,0,0,4.591-.342c1.58-.189,2.325-1.806,2.26-3.264C144.908,88.981,143.961,87.247,142.4,87.313Zm-49.665,11.1c.484-7.791.68-16.007.9-23.9.352-5.986,1.275-11.957,1.87-17.917.5.052,1.006.122,1.53.222,2.273.427,4.682.185,6.911.78.007.159.015.318.022.474.541,8.829,1.552,17.633,1.819,26.478.122,4.765-.4,9.513-.273,14.275q-.389,4.932-.5,9.876c-.06,1.531-1.069,3.858-1.068,5.719-1.328.027-2.656.061-3.986.083-2.378.014-4.747-.183-7.116-.3a3.483,3.483,0,0,0,.042-.669A92.27,92.27,0,0,1,92.735,98.417ZM77.427,95.822c-1.969-2.322-4.521-3.585-7.56-2.424-3.034-.034-6.29.314-8.856-1.623-.962-.641-1-2.029-1.377-3.056-.071-.5-.564-1.858-.7-2.647C57.817,81.7,57.363,75.81,61.492,72.808c1.024-.869,2.985-1.768,4.032-.57.118,1.772-.037,3.553.038,5.329-.06,7.066-.379,13.657,8.978,12.5a5.721,5.721,0,0,0,4.823-6.3c-.106-2.3.163-4.6.128-6.906-.053-2.174-.41-4.382.106-6.527,1.892-6.437,5.249-11.9,10.982-13.408-.4,2.408-.417,4.981-.849,7.285a88.82,88.82,0,0,0-.8,13.935c-.411,11.865.305,23.7.214,35.565a3.688,3.688,0,0,0,.055.441c-.746.017-1.492.049-2.24.123q-1.218.09-2.438.171a4.082,4.082,0,0,0-.1-1.884A49.963,49.963,0,0,0,81.649,104C81.118,100.867,80.459,97.515,77.427,95.822Zm30.245,52.235c-3.674.741-7.318-.98-11.041-.408-4.935-.288-9.856.6-14.746-.38.6-4.948.139-9.942.375-14.91.095-.439.231-.882.334-1.326,1.252.094,2.514.205,3.84.269,6.033,1.134,12.049-.351,18.113-.324,1.037-.087,2.028-.179,3.008-.275,0,.025,0,.051,0,.076C108.08,136.513,107.734,142.286,107.672,148.057Zm7.147-27.5,0,.037a32.814,32.814,0,0,0-.4,5.1c-5.458.415-10.774-.98-16.182-1.277a84.829,84.829,0,0,1-10.635-.247c-3.817-.1-7.59.5-11.362.676.263-.73.548-1.457.754-2.207a18.645,18.645,0,0,0,.4-1.973c6.071.431,12.128-.77,18.211-.314,5.515-.055,11.018-.274,16.532-.187C113.013,120.226,114.1,119.936,114.819,120.552Zm17.57-25.2a9.246,9.246,0,0,1-4.62,5.015c-3.894,2.145-8.657,1.338-12.8,2.8-3.471,1.376-5.043,4.335-5.735,7.818a14.015,14.015,0,0,0-.894,3.405l-.541,0c.812-3.514.5-9.448.866-10.99.644-5.426,1.6-10.865,1.662-16.337-.114-6.212-.365-12.419-.68-18.623q-.321-4.35-.758-8.689c3.224,1.779,6.04,4.262,7.146,7.873,2.49,6.376.524,13.331-.032,19.868-.06,2.889-.887,5.761-.5,8.65.929,5.163,4.482,3.98,8.076,2.182,1.548-.388,3.165-.943,3.967-2.441,2.668-5.393-.039-7.829,5.376-12.91a3.274,3.274,0,0,1,2.068.923C135.05,87.9,134.786,91.978,132.389,95.353Z"/>
</svg>
