<svg xmlns="http://www.w3.org/2000/svg" width="2000" height="2000" viewBox="0 0 200 200">
  <g>
    <path d="M142.377,83.77c-2.372-.584-4.769-1.082-7.173-1.544q-1.491-.169-2.987-.316a20.005,20.005,0,0,1,.457-3.285c1.662-4.643-.465-6.367-4.994-6.6-4.12-.631-7.989-.477-12.229-1.075-3.332-1.351-3.813,3.423-4.216,5.653-.193,1.571-.7,3.419-.759,5.165-1.718.068-3.44.061-5.159.043-8.134.151-16.136-1.706-24.263-1.611.036-1.231-.069-2.518.034-3.437.317-2.077.314-5.3-2.287-5.787a20.892,20.892,0,0,0-5.488-.612c-3.2.232-6.316-.77-9.512-.536-3.622-.219-4.432,3.838-4.664,6.667-.03.578-.137,1.227-.227,1.887-1.5-.093-3-.13-4.516-.076-2.609-.46-4.383.332-5.375,1.465a1.838,1.838,0,0,0-.7.542c-1.787,3.235-1.5,7.329-2.08,10.927-.57,6.267-.841,12.556-1.786,18.78-.616,6.955-.273,13.946-.885,20.9.229,1.782-1.07,5.771-.683,8.2a3.065,3.065,0,0,0-.243,3.1c1.047,1.416,3.142.773,4.648,1.356,5.941.181,11.822,1.227,17.757,1.408,5.476-.1,10.946-.567,16.418-.784,4.613.289,9.244.45,13.847.925,3.621.284,7.225,1.138,10.869.787,3.222-.535,6.428.241,9.642.451,6.734.025,13.442.8,20.167.813a5.432,5.432,0,0,1,.558.024c-.093-.012-.188-.027-.283-.04l-.163-.073c2.238.733,4.507-2.313,3.582-4.3.1-1.409-.12-3.047.08-4.1.125-1.746.354-3.483.538-5.222.5-5.71,1.715-11.323,2.294-17.023.349-5.9.944-11.763,1.635-17.629-.124-2.292,1.878-10.186.469-13.352A2.173,2.173,0,0,0,142.377,83.77ZM116.188,71.524a3.524,3.524,0,0,0-.595-.486A2.34,2.34,0,0,1,116.188,71.524Zm-.161,5.985c4.04.31,8.1.214,12.138.62-.087.963-.414,2.189-.578,3.386a97.234,97.234,0,0,0-12.332-.135C115.523,80.092,115.73,78.785,116.027,77.509ZM64.043,76.242c2.172-.161,4.3.35,6.459.434,2.028.1,4.074-.408,6.075.064a30.177,30.177,0,0,1-.111,3.482c-4.3-.174-8.553-.879-12.823-1.39C63.787,77.863,63.877,76.915,64.043,76.242Zm76,15.094c-.51,5.856-1.055,11.719-1.465,17.584-.763,9.286-1.121,18.605-2.058,27.873a39.751,39.751,0,0,1-.543,4.559,27.224,27.224,0,0,1-3.479-.224,128.178,128.178,0,0,0-14.43-.416c-7.059-.616-14.1-.225-21.175-.229-10.124.479-19.834-1.5-29.947-2.3-3.837-.188-7.63-.985-11.486-.832-2.6-.024-5.179.592-7.773.179-.353-.032-.708-.048-1.063-.059a25.077,25.077,0,0,1,.057-2.852c.153-2.086.242-4.175.478-6.252q2.154-20.526,4.439-41.028c.043-1.043.308-2.166.445-3.273,4.133.314,8.3.286,12.407.878a50.843,50.843,0,0,0,6.241.63c8.919.39,17.834.031,26.757.159,8.724.07,17.324,1.683,25.972,2.584,5.612.361,11.224.471,16.813,1.109A12.387,12.387,0,0,1,140.045,91.336Z"/>
    <path d="M115.865,103.973c-.6-1.523-1.7-3.211-3.345-3.683-2.335-3.485-6.53-5.216-10.355-6.561C93,91.756,82.006,95.3,77.311,103.757c-2.365,5.825-2.8,12.824.843,18.231a29.017,29.017,0,0,0,8.236,9.343,19.614,19.614,0,0,0,9.046,2.447c12.029.49,22.828-12.258,21.109-24.032C116.128,107.83,116.637,105.823,115.865,103.973Zm-4.857,13.338c-1.027,5.531-6.874,9.085-12.178,9.511a19.857,19.857,0,0,1-15.3-5.506c-1.884-2.057-3.74-4.461-4.185-7.283.034-2.244-.019-4.635,1.013-6.684,1.023-3.437,4.455-5.368,7.475-7.1a18.7,18.7,0,0,1,20,4,3.055,3.055,0,0,0,.895,2.849,2.972,2.972,0,0,1,1.164,1.723C109.946,111.683,111.458,114.418,111.008,117.311Z"/>
    <path d="M91.263,105.348c-3.65,1.757-6.132,6.143-4.618,10.115,1.009,2.557,3.653,4.44,6,5.725a7.431,7.431,0,0,0,8.423-1.67c3.7-2.851,5.5-7.548,1.868-11.251C101,103.628,95.255,103.338,91.263,105.348Zm5.556,11.057c-1.894-.317-5.355-2.943-5.27-5,1.333-1.426,4.25-1.86,5.829-.575.962.728,1.167,2.345,2.542,2.459.041.115.079.231.115.348.026.1.048.2.069.308C99.259,114.956,98.233,116.319,96.819,116.405Z"/>
    <path d="M121.009,131.614c-.279,1.161.22,2.795,1.66,2.795a3.459,3.459,0,0,0,3.2-2.725c.279-1.161-.219-2.8-1.659-2.8A3.462,3.462,0,0,0,121.009,131.614Z"/>
    <path d="M137.3,71.142c2.25-1.038,4.52-2.044,6.82-2.964,1.495-.6,1.953-2.561,1.627-3.986-1.184-4.241-4.789-1.255-7.331-.164-2.605,1.164-5.558,2.719-4.069,6.074A2.069,2.069,0,0,0,137.3,71.142Z"/>
    <path d="M128.407,67.228c2.437.285,2.655-2.874,3.2-4.572.658-2.691,3.238-6.446.289-8.595-3.425-1.5-3.807,3.949-4.659,6.076C126.689,62.38,125.4,66.255,128.407,67.228Z"/>
    <path d="M120.481,62.664a22.959,22.959,0,0,1-1.061-6.712c-.093-4.226-4.805-4.178-4.848,0,.183,3.312.3,7.009,2.271,9.809C118.955,67.891,121.12,64.836,120.481,62.664Z"/>
  </g>
</svg>
