<svg xmlns="http://www.w3.org/2000/svg" width="2000" height="2000" viewBox="0 0 200 200">
  <path d="M153.86,93.8c4.34-2.24,10.516-5.225,9.961-10.985-1-6.024-8.5-8.632-13.823-6.79,3.041-4.16,6.651-9.146,5.238-14.574-.553-2.526-1.682-6.064-4.833-6.121-5.942-.077-11.55,2.053-16.543,5.155-3.778,2.009-6.028,5.712-8.734,8.864-2.249,2.74-5.571,5.45-7.127,8.773-8.4-9.677-19.5-13.052-33.8-12.316-4.235.962-7.822,3.657-11.674,5.545a39.216,39.216,0,0,0-12.828,10.21A31.02,31.02,0,0,0,53.22,96.252c-1.017-.212-2.069-.343-2.954-.609a138.63,138.63,0,0,0-15.334-2.712A47.628,47.628,0,0,0,23.788,94.2c-9.982,4.645-2.657,12.443,4.2,15.421a10.718,10.718,0,0,0-6,6.854c-1.733,6.365,5.9,9.42,10.767,10.878-4.619,2.334-4.23,7.918-2.266,11.953,2.076,3.564,6.452,5.177,10.414,5.346,9.737.36,19.32-3.385,23.832-12.447a4.773,4.773,0,0,0,.4-.607,28.029,28.029,0,0,0,8.659,5.366c3.348.681,6.181,2.622,9.381,3.675,4.537,1.289,9.028-.516,13.533-1.009,7.629-.3,15.828-2.2,21.719-7.3,5.195-6.03,11.531-12.853,11.274-21.313q-.063-1.527-.125-3.066a21.465,21.465,0,0,1,4.059,1.437c5.069,1.656,9.916,4.373,15.407,4.188,6.389-.232,16.866-.137,18.414-8.029C167.878,97.815,160.91,93.583,153.86,93.8ZM60.309,129.736c-1.429,1.9-2.063,3.973-3.587,5.955a22.378,22.378,0,0,1-5.2,4.222c-6.71,2.9-17.577,2.365-15.758-7.569,2.62-1.385,5.171-2.905,7.844-4.188,2.941.107,7.205-3.793,3.713-6.082-2.671-1.239-5.292.775-7.93.925-3.79.164-10.069-1.768-10.86-5.95.37-.81.786-1.885,1.714-2.132,4.051-1.573,8.5-1.645,12.59-2.892,1.317-.688,2.328-2.826.656-3.741-3.682-1.1-7.72-.631-11.477-1.543-2.9-.763-7.523-4.387-7.618-7.551.972-1.328,8.338-1.4,10.12-1.081,4.169,1.066,8.46,1.44,12.616,2.57,1.369.315,2.769.486,4.137.8a2.394,2.394,0,0,0,.748.252,1.888,1.888,0,0,0,.71.445,45.23,45.23,0,0,0,7.141,24.193c.674.738,1.369,1.477,2.084,2.208A3.369,3.369,0,0,0,60.309,129.736Zm63.174-14.487c-3.163,4.576-5.81,9.731-9.834,13.605A79.154,79.154,0,0,1,102,134.814c-3.588.886-7.294,1.257-10.947,1.818-5.284,1.056-8.5-2.44-12.5-5.066-4.583-2.095-8.448-5.312-12.305-8.5-2.041-1.775-4.334-3.3-5.583-5.862-5.09-10.847-2.321-25.994,4.751-35.4,4.3-5.386,11.1-7.466,17.358-9.682a36.644,36.644,0,0,1,26.445,5.771c.792,2.876,4.241,3.087,6.422,4.411,3.846,4.094,8.809,8.363,9.7,14.18C124.737,102.662,126.075,109.476,123.483,115.249Zm25-8.056c-4.794.391-9.464-1.095-14.152-1.854-1.656-.426-3.338-.811-4.954-1.378a65.35,65.35,0,0,0-1.248-9.777,30.714,30.714,0,0,0-4.69-8.263c-.609-1.079-1.238-2.1-1.884-3.086a4.117,4.117,0,0,0,.183-.812c2.965-4.394,7.052-7.921,9.959-12.384,4.362-5.381,11.887-8.073,18.538-9.277,1.684-.308,2.114,3.306,1.854,4.5l-.026-.017c-2.988,6.571-12.994,13.471-19.294,16.9a4.492,4.492,0,0,0-2.471,5.66c.455,1.333,1.816,2.536,3.288,1.94,6.352-3.34,16.121-9.317,23.145-5.259a30.19,30.19,0,0,1-16.994,9.475l.006.01a2.362,2.362,0,0,0-.325,2.957c.671,1.058,2.108.786,3.2.557.92.017,1.84.09,2.758.164,3.535.367,6.889,1.562,10.33,2.368,2.768.339,5.317,1.552,6.471,4.242v0C158.016,106.123,153.1,106.549,148.478,107.193Z"/>
</svg>
