<svg xmlns="http://www.w3.org/2000/svg" width="2000" height="2000" viewBox="0 0 200 200">
  <path d="M185.929,93.678C177.629,83.244,167.4,81.53,155.16,85.7c2.727-4.391,3.405-10.858.637-15.375-2.153-2.736-5.473-4.309-8.465-5.965-4.189-1.684-8.839-.046-13.144.413a38.676,38.676,0,0,0-20.308,11c.905-20.9-12.915-32.7-31.036-18.432C74.916,62.265,68,70.2,67.939,79.975c-4.745-5.571-8.272-13.6-16.46-14.321-16.27-2.324-26.47,15.267-20.244,29.487-10.719,3.3-16.325,18.931-7.769,27.164,1.895,1.734,4.558,1.884,6.848,2.807a14.545,14.545,0,0,0,4.114,1.369c5.629.205,11.67-.986,16.121-4.61-1.47,7,5.068,18.3,11.666,20.759,9.7,1.869,21.307-.865,27.3-9.236.833,4.1,2.37,8.633,6.024,11.042,3.739,1.763,7.352,4.3,11.54,4.783,10.811,1.514,20.086-4.618,22.458-15.368,2.655,3.456,4.727,7.832,9.082,9.4,6.832,2.628,14.6.081,20.964-2.816,3.815-2.041,6.936-5.16,10.086-8.081,3.768-3.321,3.439-8.9,2.029-13.3C181.827,116.037,191.68,104.255,185.929,93.678Zm-17.208,19.579c-1.435.213-3.194-.312-4.226.993-1.937,2.646-.044,5.321,2.663,6.257,1.5,1.36,1.471,3.751,1.852,5.623-.209,4.216-4.683,7.069-7.763,9.416-6.7,2.739-14.994,3.365-21.88,1.019-3.865-2.03-6.25-6.116-8.839-9.471-6.379-3.7-1.751,15.629-22.136,17.416-3.485.7-6.8-.558-9.92-2.007-8.554-2.481-2.208-18.62-8.543-18.221-1.884.719-2.563,2.919-3.716,4.418a25.006,25.006,0,0,1-7.647,6.888c-4.209,2.331-9.384,2.239-14.033,1.659-3.211-.729-5.053-3.608-6.865-6.1-2.027-2.5-3.8-5.307-3.541-8.667.375-2.175.485-7.531-3.08-5.281C47.191,122,41.1,123.06,35.321,121.628c-2.843-1.242-5.427-2.986-8.479-3.772-8-5.553-.555-16.346,6.778-18.333,3,1.537,3.948-4.011,1.17-4.789-2.938-5.893-2.167-11.863,2.771-16.332,4.466-4.265,10.655-8.659,17.126-6.954,5.486,1.4,9.381,8.308,12,13,1.152,1.907,1.4,4.674,3.041,6.133,2.133,1,2.885-1.811,2.872-3.416C73.181,74.957,79.04,62.14,90.97,57.35c16.688-5.46,22.285,10.692,17.112,23.866-.475,1.737.28,5.368,2.725,4.452A53.228,53.228,0,0,0,115.826,81c4.215-4.231,8.836-8.232,14.7-9.888,4.905-1.358,9.943-3.677,15.1-3.327,2.723,1.171,5.847,3.016,7.265,5.69,1.582,8.132-6.684,12.413-11.014,17.809l.015.007c-.7,1.446-.161,3.8,1.581,4.147a2.847,2.847,0,0,0,2.191-.977,15.4,15.4,0,0,1,3.95-1.2c10.192-.339,21.266-7.1,30.705-.76,7.278,3.859,4.094,10.9-.5,15.479A30.962,30.962,0,0,1,168.721,113.257Z"/>
</svg>
