<svg xmlns="http://www.w3.org/2000/svg" width="2000" height="2000" viewBox="0 0 200 200">
  <path d="M154.517,82.293c-2.405-.317-4.455,1.506-6.637,2.259a103.5,103.5,0,0,0-13.622,7.2c-9.376,7.3-18.416,15.063-27.966,22.169,2.384-5.624,5.429-11.008,6.827-17,1.646-7,2.313-14.161,3.288-21.269.36-5.126,7.684-26.948,1.914-28.635-5.053-2.064-14.446,11-17.851,14.479C86.91,74.451,78.511,91.735,73.554,109.631c.768-7.867-1.839-15.479-3.085-23.165-1.461-8.245-3.382-16.406-5.21-24.577-1.589-7.2-2.693-16.349-8.068-21.723-5.258-3.158-6.094,5.777-6.715,9.2-.01,5.221-2.005,10.055-3.545,14.954-1.926,6.4-2.474,13.147-3.117,19.774-.453,4.386.218,8.768.058,13.154-.128,4.963-1.1,9.859-1.269,14.818a150.38,150.38,0,0,0,2.407,26.588c.8,3.275,1.41,14.741,6.439,13.07,15.785,3.312,31.794,6.248,47.981,6.67,1.5-.071,3.142.179,4.544-.428a3.449,3.449,0,0,0,1.557-2.3,13.064,13.064,0,0,1,1.243-1.389,126.452,126.452,0,0,0,13-11.893c3.9-3.386,8.023-6.569,11.1-10.775,4.6-6.7,8.353-13.933,13.4-20.348a71.486,71.486,0,0,0,11.808-22.009C157.948,86.509,158.187,83.479,154.517,82.293ZM129,120.3c-5.318,6.615-10.268,13.519-15.426,20.262a70.933,70.933,0,0,1-7.844,9.308c-.6.735-1.689,1.559-2.582,2.445-6.861-.6-13.759-.391-20.6-1.223-6.96-1.081-13.94-1.7-20.955-2.327a50.907,50.907,0,0,1-7.008-.929,7.28,7.28,0,0,0-2.544-.434c-.725-2.851-1.172-5.769-1.785-8.646a233.713,233.713,0,0,1-3.433-28.314A190.134,190.134,0,0,1,49.37,88.653c1.593-7.271,2.037-14.675,2.962-22.039,1.267-5.279,3.129-10.386,4.15-15.725,5.564,10.93,9.277,22.673,9.27,35.034a178.138,178.138,0,0,1,1.714,26.5c.847,3.7-.377,11.754,3.1,13.7a2,2,0,0,0,2.928-.952A53.189,53.189,0,0,1,77.7,108.848c2.21-5.442,6-9.963,8.941-14.988,3.4-6.7,6.66-13.5,10.568-19.926,5.6-6.54,12.352-12.1,18.27-18.391,1.088,7.954-1.748,15.582-4.1,23.048-3.1,10.057-5.151,20.416-9.218,30.17a72.594,72.594,0,0,1-5.017,11.281c-1.266,2.645-3.559,4.768-4.435,7.566a4.2,4.2,0,0,0,3.129,4.577c2.436.5,3.721-2.225,5.222-3.658,5.706-5.6,9.6-12.7,15.655-17.955,3.226-3.423,7.637-5.1,11.635-7.387,6.957-4.239,13.95-8.414,21.033-12.443C145.9,104.412,138.085,110.6,129,120.3Z"/>
</svg>
