<svg xmlns="http://www.w3.org/2000/svg" width="2000" height="2000" viewBox="0 0 200 200">
  <path d="M133.793,84.053c.091-1.594-1.617-2.954-3.187-3.737-2.281-1.765-3.3-4.581-5.209-6.655a36.583,36.583,0,0,1-6.4-6.939c-2.023-2.045-3.78-3.736-6.75-2.609-5.355.412-10.684,1.171-16.069.97-7.871-.288-15.657-1.632-23.555-1.213-2.323-.407-4.39.355-5.231,2.093-2.356,3.192-3.046,12.536-3.981,15.179-2.023,9.263-4.217,18.515-4.99,27.984a7.785,7.785,0,0,0-.212,2.1c-.01.032-.022.062-.031.094a5.837,5.837,0,0,0,.64,4.148,114.3,114.3,0,0,0,8.948,16.006,1.68,1.68,0,0,0,1.6,1.821,1.727,1.727,0,0,0,1.678-.031,24.688,24.688,0,0,1,5.484.427,79.772,79.772,0,0,0,14.963.981c3.414-.074,6.495.532,10.028.649,4.589-.128,9.12.564,13.68.909a43.821,43.821,0,0,0,6.176-.559,1.948,1.948,0,0,0,1.3-.692,3.266,3.266,0,0,0,.687-1.079c.974-1.057.875-3.339,1.374-4.621,1.009-3.91,1.99-7.833,2.821-11.784,1.638-8.53,3.88-16.934,5.411-25.484.3-1.626.571-3.261.929-4.876A3.577,3.577,0,0,0,133.793,84.053Zm-17.768-10.27a16.484,16.484,0,0,0,1.907,2.028c2.289,2.159,5.3,3.34,7.239,5.9-3.678-.382-7.376-.778-11.086-1.127Q114.987,77.162,116.025,73.783ZM94.119,71.26c5.759-.591,11.712.089,17.541.065-.916,2.992-1.7,5.866-2.426,8.843a163.643,163.643,0,0,0-17.157-.563c-4.167.136-8.665-1.015-12.662.381-2.275-2.273-3.032-5.475-4.246-8.348A111.463,111.463,0,0,0,94.119,71.26Zm13.773,14.8c-1.307,6.716-2.78,13.4-3.585,20.2-.073.642-.307,1.522-.418,2.394-2.928-.136-5.847-.62-8.786-.707-3.509-.464-7.027.2-10.553-.025-2.44,0-4.878-.156-7.316-.246,1.464-7.346,3.505-14.662,4.316-22.053,3.841-.015,7.684.488,11.526.259A89.3,89.3,0,0,1,107.892,86.065Zm-43.6,12.993c1.671-8.772,3.921-17.493,5.891-26.194.627.82,1.237,1.654,1.819,2.5,1.587,2.8,3.147,5.631,5.5,7.865a12.523,12.523,0,0,0-.569,1.834c-1.269,5.711-2.154,11.5-3.336,17.232q-.5,2.671-.973,5.348c-2.832.011-5.652-.3-8.485-.339-.495,0-1.015-.048-1.532-.066C63.141,104.506,63.69,101.776,64.288,99.058Zm5.525,25.371c-1.55-2.584-3.032-5.2-4.341-7.933a29.012,29.012,0,0,1-1.589-2.931q1.182.093,2.366.158c1.756.127,3.516.2,5.277.232Q70.638,119.189,69.813,124.429Zm34.061,4.735c-3.721.214-7.412-.314-11.124-.379-6.749.11-13.473.238-20.223.06a2.22,2.22,0,0,0-.132-.268l.016-.031a3.121,3.121,0,0,0,.808-1.553c.986-4.333,2.118-8.637,2.9-13.013,4.279-.031,8.562-.18,12.835-.2,5.061-.146,10.15.14,15.207-.187.568.976,1.31,1.873,1.947,2.782,3.707,4.514,7.138,9.262,11.13,13.51C112.783,129.9,108.358,128.8,103.874,129.164Zm24.875-40.739c-1.025,4.572-1.735,9.2-2.694,13.79-1.565,7.876-3.36,15.709-4.437,23.67a7.612,7.612,0,0,1-.17,1.3c-3.917-4.074-7.02-8.88-10.717-13.16-1.046-1.228-2.04-2.487-3.014-3.769-.051-.1-.111-.193-.168-.289a26.451,26.451,0,0,0,.762-2.9c.878-3.377,1.415-6.832,2.081-10.253.7-3.508,1.449-7.027,2.271-10.531,5.041.094,10.089-.171,15.124.124.429.046.894.109,1.37.158A12.018,12.018,0,0,0,128.749,88.425Z"/>
</svg>
