<svg xmlns="http://www.w3.org/2000/svg" width="2000" height="2000" viewBox="0 0 200 200">
  <g>
    <path d="M164.42,92.021A2.039,2.039,0,0,0,163.1,90.3q-1.23-.981-2.5-1.91c-2.195-1.672-4.247-3.568-6.858-4.586-3.743-1.577-7.256-3.612-10.91-5.379-4.025-1.953-7.639-4.632-11.7-6.52-3.509-1.978-6.931-4.1-10.514-5.954a17.938,17.938,0,0,0-3.688-2.289,4.119,4.119,0,0,0-3.31-.981,2.552,2.552,0,0,0-.469-.308,159.53,159.53,0,0,1-22.052.257,44.169,44.169,0,0,0-8.936.414,2.765,2.765,0,0,0-1.242.516,2.285,2.285,0,0,0-.791-.249c-2.51-.136-4.165,2.644-5.917,4.1-2.849,2.573-6,4.819-8.312,7.929-6.608,6.238-13.456,12.233-19.962,18.584-1.168,1.206-2.264,2.5-3.5,3.642a24.983,24.983,0,0,0-2.907,2.71,2.993,2.993,0,0,0-.877.326c-1.3.771-.888,2.616.124,3.467,6.406,7.818,13.895,14.71,20.663,22.211,3.02,2.457,5.756,5.224,8.65,7.82a74.737,74.737,0,0,1,10.357,9.633,57.916,57.916,0,0,0,5.823,5.972c5.383,6.053,10.667,12.233,17.64,16.731l-.283-.157c2.153,1.35,4.495.516,5.095-.977a6.525,6.525,0,0,0,1.353-1.4c1.251-1.307,2.575-2.546,3.848-3.833A128.262,128.262,0,0,0,126.3,143.42c4.774-6.5,9.644-13.007,15.848-18.229,4.72-4.937,8.062-10.976,12.225-16.355,3.255-4.327,5.884-9.248,9.29-13.541a2.824,2.824,0,0,0,.6-2.4A1.932,1.932,0,0,0,164.42,92.021ZM111.152,66.983c-.063,1.362-.148,2.722-.236,4.082a78.853,78.853,0,0,0-14.9.879c-3.549.284-7.121-.19-10.662.324a12.887,12.887,0,0,1-.113-2.1C94.054,70.428,102.492,68.364,111.152,66.983ZM82.127,107.819c.117-2.826.541-5.628.892-8.431.276-2.079,1.189-3.98,1.717-5.989.748-4.628,1.012-9.321,1.465-13.985a4.291,4.291,0,0,0,.339-.9c2.894-.455,5.835-.291,8.749-.5,5.17-.789,10.422-.973,15.605-1.539.406,2.722,1.792,5.517,2.245,8.2,1.426,7.452,4.29,14.555,5.577,22.026-.041.025-.083.049-.123.075a2.053,2.053,0,0,0-.241-.042c-1.675.033-3.341.04-5.015.157-7.8.473-15.613.714-23.422,1.164-2.044.257-4.185.135-6.259.282a13.937,13.937,0,0,0-1.5-.483l-.029-.008ZM48.445,97.466c7.081-4.973,13.277-11.015,19.868-16.588,3.657-4.251,8.359-7.363,12.1-11.543.048,2.21-.034,5.635.983,7.9a13.581,13.581,0,0,0-.371,3.16c-.509,3.7-.564,7.467-1.2,11.141-1.34,3.531-1.619,7.287-1.994,11.01a32.179,32.179,0,0,0-.309,4.14c-7.165-1.824-14.3-3.744-21.476-5.513a80.411,80.411,0,0,0-9.366-2.086C47.258,98.542,47.848,98,48.445,97.466ZM90.6,148.675c-4.2-3.483-8.728-6.428-12.535-10.453-2.434-2.5-5.115-4.752-7.528-7.275a57.044,57.044,0,0,0-7.4-7.619c-5.858-6.31-11.563-12.763-17.483-19.021.214.067.43.126.642.2,7.349,1.773,14.6,3.807,21.8,6.114,3.374.91,6.8,1.611,10.194,2.4,1.134,4.5,3.457,8.637,5.3,12.875,1.677,4.193,3.94,8.1,6.017,12.1a131.514,131.514,0,0,0,11.518,20.935C97.649,155.491,94.385,151.807,90.6,148.675Zm16.01-.674a35.132,35.132,0,0,0-2.915,8.488,42.264,42.264,0,0,1-3.605-5.949c-2.821-6.348-5.234-12.708-8.629-18.821-2.627-5.644-5.162-11.351-7.5-17.127a168.741,168.741,0,0,0,19.557-1.223c4.932-.253,9.65-.482,14.6-.84a2.005,2.005,0,0,0,.2.1c-1.209,3.095-2.094,6.3-3.152,9.452A232.9,232.9,0,0,0,106.605,148Zm41.142-39.32c-4.078,6.749-9.189,12.781-14.2,18.845-4.117,5.81-9.353,10.618-14.617,15.351-3.622,3.8-7.4,7.464-10.715,11.537.893-1.961,2.221-3.713,2.969-5.757,2.028-6.039,4.085-12.068,6.26-18.057a164.438,164.438,0,0,0,6.909-19.289,2.788,2.788,0,0,0,.079-.365,96,96,0,0,0,12.393-5.83c5.91-2.476,12.1-4.312,17.951-6.944C152.446,101.684,150.153,105.22,147.747,108.681Zm-2.419-12.9c-3.038,1.252-6.263,1.973-9.31,3.179-2.855,1.3-5.593,2.841-8.516,3.986-1.511.616-3.014,1.252-4.512,1.9-.981-4.88-2.4-9.68-3.629-14.5-1.158-5.44-2.252-10.973-4.464-16.094-.023-.049-.052-.091-.078-.138a15.239,15.239,0,0,0-.232-3.1,24.52,24.52,0,0,1,.111-4.325,97.767,97.767,0,0,1,11.308,7.569c3.208,2.273,6.725,4.049,10.028,6.171,5.476,3.02,10.991,5.974,16.552,8.812,1.207.939,2.421,1.872,3.682,2.739C152.567,93.073,148.92,94.381,145.328,95.783Z"/>
    <path d="M101.961,50.18c3.411,1.244,3.577-4.362,4.514-6.457.5-3.286,4.144-7.881.588-10.449-3.637-1.671-4.241,6.15-5.252,8.4C101.355,44.376,99.032,48.144,101.961,50.18Z"/>
    <path d="M115.527,54.564c1.15.134,1.924-.817,2.622-1.634q2.573-2.55,5.116-5.128c2.339-1.94.149-7.632-2.918-5.242-2.3,2.8-6.611,5.3-6.891,9.161C113.531,52.88,114.2,54.419,115.527,54.564Z"/>
    <path d="M87.966,48.729c3.3,1.812,4.189-3.274,2.439-5.245-1.548-2.155-2.351-10.406-6.074-8.328-1.365.927-1.507,2.905-.972,4.32C84.7,42.6,85.543,46.256,87.966,48.729Z"/>
    <path d="M65.664,47.32c1.889,1.572,3.772,3.154,5.7,4.674,1.78,1.216,3.425,2.966,5.5,3.615,2.288.187,3.036-3.043,2-4.669-1.43-1.946-3.695-3.134-5.478-4.744-1.9-1.075-5.364-5.638-7.389-4.666C63.929,42.608,63.947,45.922,65.664,47.32Z"/>
  </g>
</svg>
