<svg xmlns="http://www.w3.org/2000/svg" width="2000" height="2000" viewBox="0 0 200 200">
  <g>
    <path d="M143.6,92.934c-.214-6.626-3.938-12.7-8.673-17.128a97.663,97.663,0,0,0-8.625-6.039c-2.9-1.686-6.093-2.765-8.864-4.7a29.8,29.8,0,0,0-17.36-4.509c-3.227.574-6.566.343-9.716,1.313-2.408.916-5.764,1.355-7,3.858a1.773,1.773,0,0,0-.748.257,3.691,3.691,0,0,0-1.6,4.38c1.944,3.4,4.2,3.813,1.408,8.049-1.481.442-3.194-.249-4.405,1.014a3.916,3.916,0,0,0-1.148,3.662c.2,1.176,1.418,1.726,1.68,2.855.434,2.15-1.49,4.307-3.5,4.738A3.2,3.2,0,0,0,70.8,95.355a18.129,18.129,0,0,0,2.255,2.1c-.043,3.15-3.5,3.969-5.828,5.22a4.076,4.076,0,0,1-1.044.232,2.223,2.223,0,0,0-1.637.982,2.942,2.942,0,0,0-1.4,1.441c-3.269,11.494,7.826,21.555,17.816,24.985,7.27,3.476,15,5.842,23.219,5.6,3.726-.188,7.284.314,10.931-.827,6.585-1.862,12.271-6.467,16.673-11.645,5.126-5.356,8.435-12.041,11.059-18.9C144.216,100.864,143.456,96.78,143.6,92.934ZM76.974,95.8c4.074-2.288,6.969-6.847,6.308-11.612a10.661,10.661,0,0,0,4.98-6.593c.023-.017.045-.03.067-.048,2.816-1.071,5.878-2.459,8.944-1.961,3.51,1.512,6.959,3.954,11,3.22,6.432-1.7,9.147-.422,12.394,5.27,1.145,1.166,2.841,1.451,4.121,2.44a10.988,10.988,0,0,1,2.679,5.619c-4.878,3.684-2.112,8.434-1.049,13.181.01.339.02.712-.309.9-1.58,1.225-3.3,2.262-4.926,3.412a9.22,9.22,0,0,0-4.073,4.482c-.3.425-.686,2.045-1.327,2.714a4.323,4.323,0,0,1-4.03,1.159c-1.163-.848-2.207-2.076-3.8-2.144-1.963-.369-3.826.334-5.715.727-2.457.059-5.55-.132-6.724-2.623-4.426-4.262-9.852,1.618-13.212-6.044a12.76,12.76,0,0,0-6.741-4.752,2.8,2.8,0,0,0-1-.514A10.742,10.742,0,0,0,76.974,95.8Zm56.411,17.789c-5.8,6.035-15.184,16.055-23.575,17.391-9.664,1.866-15.207-.724-23.694-4.852-3.315-1.578-6.851-2.671-9.875-4.819-4.248-3.731-8.759-8.29-8.793-14.258a27.96,27.96,0,0,0,4.83-2.709c-.372,1.582,1.345,2.643,2.725,3.271a8.253,8.253,0,0,1,2.838,2.826c1.294,2.319,1.636,5.21,3.857,6.946,2.522,2.385,5.788,2.217,9.03,2.706,2.777,4.614,9.648,4.249,13.927,2.112,3.025-1.36,3.046.872,5.489,1.515a9.331,9.331,0,0,0,8.673-2.312c1.7-1.279,2.086-3.619,3.538-4.979,4.765-2.906,10.839-6.671,9.284-13.178-.379-2.566-2.364-4.488-2.924-7,3.315-2.879,2.481-7.182.5-10.585-.763-2.655-3.072-4.1-5.25-5.519-1.607-4.569-5.306-8-10.37-7.832-2.8-.027-5.524,1.289-8.254.184-2.359-.774-4.206-2.712-6.7-3.157-2.234-.436-6.82.394-10.17,2.037-.048-.2-.093-.392-.154-.581a6.472,6.472,0,0,0-.588-1.137,6.474,6.474,0,0,1,1.384-.447c2.675-1.05,5.519-1.1,8.3-1.681a22.387,22.387,0,0,1,11.826-.025c4.932.608,9,2.9,13.661,4.647A28.538,28.538,0,0,1,134.1,83.922c1.831,4.152,3.406,8.391,3.256,13.016.008,1.579.421,3.861.508,5.919A30.538,30.538,0,0,1,133.385,113.592Z"/>
    <path d="M91.446,109.02c3.267,2.45,7.478,2.107,11.3,2.606,5.511-.562,11.624-2.831,14.659-7.865,4.043-6.492,4.35-15.58-2.618-20.132-2.052-2.457-5.545-2.762-8.481-3.407-8.663-1.758-17.535,6.129-19.759,14.161C85.205,99.711,87.548,105.342,91.446,109.02ZM100.567,86.4c2.517-.563,5.112.172,7.583.67.178,2.183,2.863,1.753,4,2.959,1.976,2.587,2.571,4.1,1.891,7.451-.865,5.4-6.064,9.036-11.235,9.694-7.093-.336-9.394-.745-11.622-8.04C89.545,92.876,95.242,88.233,100.567,86.4Z"/>
  </g>
</svg>
