<svg xmlns="http://www.w3.org/2000/svg" width="2000" height="2000" viewBox="0 0 200 200">
  <path d="M154.205,108.712c-2.1-3.518-10.171-7.14-14.106-8.559a25.372,25.372,0,0,0-4.315-.735,32.613,32.613,0,0,0,5.2-4.191,25.305,25.305,0,0,0,9.624-11.988c3.637-8.584,3.041-19.539-3.031-26.881-1.586-2.142-3.942-3.249-6.406-4.076a13.828,13.828,0,0,0-6.136-1.649c-4.888-.285-10.1-.705-14.377,2.16a38.865,38.865,0,0,0-11.517,11.863,36.764,36.764,0,0,0-3.581-8.817c-3-6.326-7.48-10.837-14.779-11.315-6.218-.617-15.428,4.356-19.507,8.973A19.589,19.589,0,0,0,66.2,63.541c-.89,2.642-1.667,5.357-1.291,8.173a24.567,24.567,0,0,0,6.844,15.244c-.294-.046-.588-.091-.884-.128C60.693,86.2,50.2,91.9,46.092,101.387c-4.242,8.619,1.765,17.884,8.218,23.5,2.948,1.493,6.465,1.48,9.654,2.255A37.2,37.2,0,0,0,74.25,126.5a36.17,36.17,0,0,0-3.345,8.386c-.767,5.174-.021,11.259,3.792,15.128,1.459,1.325,2.716,2.887,4.285,4.073,2.722,1.437,5.626,3.056,8.71,3.441a22.777,22.777,0,0,0,19.742-13.622c1.6-3.2,3.348-6.4,4.185-9.878a11.518,11.518,0,0,0,1.456,1.978c5.359,4.527,11.78,8.615,18.957,9.136C150.189,146.322,162.669,124.257,154.205,108.712Zm-43.986-34.7c3.089-7.847,8.612-15.075,16.773-17.944,4.177-.791,8.993-1.8,12.9.345,2.159.815,4.12,1.889,5.134,4.073,2.772,6.166,2.7,13.508.773,19.916-1.667,6.6-5.958,9.038-11.5,12.241a38.492,38.492,0,0,1-6.637,2.109c-1.3.4-2.539,1.052-3.856,1.335a23.18,23.18,0,0,0-4.272-11.262A16.086,16.086,0,0,0,109.2,80.4,26.723,26.723,0,0,0,110.219,74.009ZM70.181,75.016a18.584,18.584,0,0,1,.39-9.065A15.555,15.555,0,0,1,75.229,55.6,19.794,19.794,0,0,1,96,52.674c2.113,1.238,3.365,3.315,4.707,5.278,4.317,5.075,5.638,12.4,2.616,18.443a5.359,5.359,0,0,0-.794,4.372A35.507,35.507,0,0,0,92.37,84.246a23.522,23.522,0,0,0-5.036,6.137,20.774,20.774,0,0,0-2.506-.628,18.319,18.319,0,0,1-9.372-6.143C72.908,81.318,70.712,78.515,70.181,75.016Zm-9.869,45.375c-1.606-.347-3.444-.078-4.861-1.016-2.658-2.291-5.255-4.786-6.708-8.042C45.04,101.5,62.2,94.554,69.721,93.426c5.133-.177,10.2,1.341,14.976,3.206a20.112,20.112,0,0,0-.387,10.094,19.474,19.474,0,0,0,2.129,4.493c-.872.65-1.569,1.727-2.353,2.382A23.317,23.317,0,0,1,60.312,120.391Zm45.606,15.34c-1.71,3.022-2.394,6.719-4.9,9.216-3.9,3.779-8.547,8.675-14.463,7.924-3.074-1.12-6.126-2.534-7.784-5.5-2.354-2.541-2.694-5.963-2.551-9.278a36.859,36.859,0,0,1,5.724-13.368,28.5,28.5,0,0,1,4.784-4.9c1.578-.957,3.429-2.472,3.282-4.453a14.832,14.832,0,0,0,9.413,3.738,36.96,36.96,0,0,0,7.578.738C107.081,125.146,108.206,130.708,105.918,135.731Zm-5.529-22.323a10.4,10.4,0,0,1-12.6-8.681c-.039-4.824,2.293-9.354,4.822-13.338,3.116-3.667,8.7-3.734,13.124-4.577,1.611,4.161,7.477,1.118,10.183,3.8,1.257,1.963,3.046,3.764,3.326,6.175,0,4.157-.822,8.605-3.335,12.006C112.242,113.149,105.6,112.788,100.389,113.408Zm29.618,25.531c-5.252-1.137-9.512-4.049-13.569-7.45-2.767-3.147-3.263-7.619-3.91-11.61a3.469,3.469,0,0,0,.031-.84c5.522-1.671,8.933-5.948,10.373-12.958a3.194,3.194,0,0,0,.413-.008c2.821-.555,5.656-.125,8.5-.069,2.631.017,5.321-.575,7.9.153,3.617,1.36,6.694,3.948,9.673,6.356a22.036,22.036,0,0,1,1.764,5.537C152.763,131.7,144.589,143.022,130.007,138.939Z"/>
</svg>
