<svg xmlns="http://www.w3.org/2000/svg" width="2000" height="2000" viewBox="0 0 200 200">
  <path d="M147.88,76.85A76.482,76.482,0,0,0,140.2,59.378c-3.321-7.446-7.046-14.709-10.747-21.972a28.8,28.8,0,0,0-1.508-2.458,2.163,2.163,0,0,0-2.115-1.9,2.484,2.484,0,0,0-1.656.912c-.548.473-1.2.789-1.771,1.243-3.041,2.625-6.919,3.863-10.205,6.079-3.33,2.651-7.33,4.3-10.6,7.015-2.756,2.54-6.257,4.007-9.108,6.426-4.619,3.87-9.623,7.2-13.849,11.522a6.241,6.241,0,0,0-2.807,4.6c-1.1,1.67-1.692,4.839-2.091,5.994-1.292,5.095-3.139,10.029-4.439,15.123-.136,4.257-7.357,22.308-4.288,25.388a32.706,32.706,0,0,0,1.957,2.937,148.672,148.672,0,0,1,10,14.208c2.559,4.3,5.884,8.044,8.149,12.524a33.233,33.233,0,0,0,3.824,5.1c2.291,2.882,3.709,6.73,6.644,8.982a2.061,2.061,0,0,0,2.06-.354,1.277,1.277,0,0,0,.438-.182c2.283-1.551,4.488-3.213,6.851-4.644,6.561-4.131,13.562-7.822,19.2-13.225,1.754-1.719,3.959-2.835,5.891-4.316,2.343-1.955,4.4-4.225,6.886-6.022,1.7-1.44,3.993-2.575,4.749-4.808a3.36,3.36,0,0,0,.165-.929,3.082,3.082,0,0,0,.771-1.414,69.882,69.882,0,0,1,2.091-6.783c3.293-11.923,4.3-24.377,4.46-36.78C149.687,79.781,148.551,78.619,147.88,76.85ZM123.26,51.4c.932-2.613,1.994-5.609,2.922-8.6,5.771,12.3,12.766,24.1,18.557,36.36-3.146,1.357-6.43,2.386-9.624,3.623-1.147.4-2.4.536-3.576.871a20.372,20.372,0,0,0-1.96-3.772c-1.191-1.976-1.236-4.441-2.331-6.5-2.016-3.564-3.381-7.431-5.707-10.822-.473-.723-.905-1.378-1.312-1.958C121.12,57.49,122.213,54.451,123.26,51.4ZM85.032,67.787c2.283-2.072,4.948-3.674,7.171-5.824,4.476-4.271,10.035-7.034,14.638-11.161,2.876-1.881,5.343-4.278,8.054-6.37,2.2-1.392,4.618-2.351,6.809-3.757q-1.269,3.936-2.6,7.852c-.961,3.082-1.949,6.147-2.817,9.252-1.072.172-2.339,1.049-4.062,2.808-5,4.818-10.782,8.75-15.366,13.979-1.631,1.752-3.591,3.191-5.3,4.856-1.455-1.788-3.236-3.339-4.826-5.067a49.367,49.367,0,0,1-3.9-4.5C83.57,69.175,84.3,68.482,85.032,67.787ZM70.185,108.548c.938-4.206,2.321-8.308,3.042-12.564,1.006-6.7,4.023-12.937,4.7-19.72a11.128,11.128,0,0,1,.673-2.271,21.078,21.078,0,0,1,1.75,1.823c2.133,3.162,5.174,5.567,7.823,8.278.137.154.268.32.4.487a30.732,30.732,0,0,0-.648,4.354,77.814,77.814,0,0,0-3.359,17.077,3.676,3.676,0,0,0-.462.138c-4.926,1.935-9.762,4.1-14.671,6.071A21.631,21.631,0,0,1,70.185,108.548Zm28.183,36.259a64.133,64.133,0,0,0-1.536,7.43c-.125.358-.248.758-.348,1.174a56.543,56.543,0,0,0-6.573-9.142c-2.951-5.048-6.824-9.428-9.7-14.51-2.919-4.032-6.313-7.692-9.565-11.464,2.122-.772,4.338-2.149,6.07-2.71,3.136-.909,5.85-2.485,8.758-3.621.435.51.955,1,1.5,1.563a107.869,107.869,0,0,0,6.536,10.581A85.239,85.239,0,0,1,98.77,134.5a14.648,14.648,0,0,0,1.245,3.357C99.224,140.553,98.762,143.687,98.368,144.807ZM93.1,117.619c-1.554-2.927-2.01-5.9-4.144-8.7.953-4.786,1.743-9.588,3.429-14.188,1.175-3.105,1.216-6.438,1.741-9.668a64.087,64.087,0,0,0,9.087-8.763c4.564-4.159,9.066-8.4,13.794-12.38,3.466,3.538,5.642,7.814,7.706,12.38.529,3.451,1.913,6.585,2.861,9.918-1.97,9.728-2.341,19.726-4.222,29.487-4.029,2.817-7.815,5.916-11.818,8.76-3.443,2.255-5.942,4.969-9.219,7.678-.4-.6-.843-1.166-1.265-1.749C98.282,126.135,95.666,122.056,93.1,117.619Zm33.383,16.463c-3.187,1.889-5.491,4.813-8.352,7.1a69.97,69.97,0,0,0-5.886,3.938c-3.426,2.913-7.077,5.536-10.716,8.177.589-2.51.829-5.428,1.454-6.776.637-2.833,1.315-5.656,1.958-8.487a33.068,33.068,0,0,0,5.322-3.4c3.632-2.468,7.521-4.728,10.3-8.2,1.765-1.693,3.6-3.3,5.23-5.136a6.12,6.12,0,0,0,.513-.4c.746.394,1.623.561,2.394.9,1.037.5,1.96,1.23,3.039,1.637,1.984.6,4.127.175,5.914,1.35C133.6,127.5,130.2,130.966,126.482,134.082ZM141.4,106.29c-.64,3.465-.825,7-1.506,10.457a10.352,10.352,0,0,1-.4,1.989,13.1,13.1,0,0,0-2.061-.964c-1.213-.454-2.547-.228-3.8-.4-1.762-.8-3.47-1.9-5.41-2.163,1.385-6.766,3.463-13.4,3.856-20.339.187-1.957.359-3.624.4-5.163,3.865-.476,9.962-3.141,13.136-4.542C144.951,92.322,142.61,99.208,141.4,106.29Z"/>
</svg>
