<svg xmlns="http://www.w3.org/2000/svg" width="2000" height="2000" viewBox="0 0 200 200">
  <path d="M107.834,147.257c2.559-3.416,3.592-7.72,5.74-11.393,2.163-4.4,5.146-8.344,7.035-12.885,1.359-4.058,3.19-7.988,4.1-12.178,1.059-5.8,2.383-11.77,3.38-17.544,2.747-14.25,9.7-25.337,3.964-40.149-.5-1.741-.887-3.635-2.175-4.989-2.628-2.268-5.744-3.262-9.058-1.819-7.371,3.225-13.229,17.1-15.9,24.479-1.327,5.094-2.7,10.178-3.9,15.3a36.464,36.464,0,0,0-.453,4.208c.819,1.883-.681,5.153-2.985,4.274-1.866.687-2.962-1.289-3.2-2.852-.908-2.7-2.046-5.318-2.974-8.011-2.928-5.487-4.436-11.666-7.711-16.964-4.075-4.815-9.855-10.421-16.667-7.9C58.455,64.6,61.374,76.819,63.06,85.4c.585,5.058,2.818,9.5,5.257,13.879a65.61,65.61,0,0,0,6.1,11.288c1.881,3.626,4.069,7.654,6.242,10.98a61.731,61.731,0,0,0,15.326,16.675C99.558,141.733,103.894,144.225,107.834,147.257Zm-2.148,6.8c-2.755-2.046-5.184-4.508-7.86-6.667a35.52,35.52,0,0,1-5.414-6.153c-3.2-3.211-5.86-6.876-8.983-10.155-4.689-5.076-9.751-9.878-13.4-15.805-2.232-2.861-4.378-5.826-5.463-9.338-2.458-6.363-4.987-12.663-6.227-19.4-2.675-8.647-4.175-19.035.937-27.074,2.122-2.514,4.3-5.444,7.734-5.707,7.39-.76,13.068,4.49,18.493,8.682,3.513,3.249,5.98,7.676,7.779,11.883,1.195,2.517,2.867,4.8,3.682,7.5,2.594-8.82,4.51-18.123,9.74-25.849,3.2-4.722,6.559-9.522,11.239-12.9,5.86-4.27,15.44-3.433,18.356,3.886,4.651,10.814,3.139,18.6,1.228,29.634-1.45,12.309-5.2,24.09-9.656,35.6-3.657,8.436-5.456,17.557-9.882,25.677-2.1,4.554-3.075,9.742-6.02,13.848C110.468,154.17,108.618,156.312,105.686,154.053Z"/>
</svg>
