<?xml version="1.0" encoding="utf-8"?>
<!-- Generator: Adobe Illustrator 26.1.0, SVG Export Plug-In . SVG Version: 6.00 Build 0)  -->
<svg version="1.1" id="Layer_1" xmlns="http://www.w3.org/2000/svg" xmlns:xlink="http://www.w3.org/1999/xlink" x="0px" y="0px"
	 viewBox="0 0 212.28 249.76" style="enable-background:new 0 0 212.28 249.76;" xml:space="preserve">
<style type="text/css">
	.st0{fill:#231F20;}
</style>
<g>
	<path class="st0" d="M68.1,179.14c2.32-11.7,5.75-23.09,10.26-34.28c4.51-11.17,10.04-21.82,15.62-32.49
		c5.53-10.57,13.37-22.61,10.71-35.12c-1.07-5.06-4.02-10.15-8.44-12.98c-4.54-2.91-9.87-3.01-14.44-0.03
		c-5.2,3.4-9.15,8.86-12.05,14.28c-3.08,5.77-5.11,11.95-6.49,18.33c1.81-0.04,3.62-0.09,5.43-0.13
		c-1.38-11.32-4.38-23.83-12.83-32.08c-3.7-3.62-8.69-5.75-13.85-4.39c-4.98,1.32-8.53,5.95-10.24,10.59
		c-2.27,6.14-1.49,12.96-0.01,19.19c1.41,5.95,3.12,11.84,4.83,17.71c3.44,11.81,7.23,23.52,11.47,35.08
		c4.67,12.74,9.75,25.39,15.64,37.62c0.69,1.44,2.24,2.72,3.72,1.38c1.43-1.3,1.55-3.96,0.83-5.63c-4.52-10.47-9.03-20.94-13.1-31.6
		c-4-10.49-7.65-21.12-10.95-31.85c-1.48-4.79-3.12-10.47-4.56-15.74c-0.77-2.81-1.54-5.63-2.25-8.46
		c-0.32-1.31-0.63-2.63-0.87-3.96c-0.31-1.65-0.41-2.39-0.47-3.79c-0.03-0.7-0.04-1.41-0.01-2.11c0.04-0.86-0.15,0.97,0.05-0.49
		c0.04-0.31,0.08-0.62,0.12-0.93c0.03-0.17,0.38-1.68,0.13-0.81c0.18-0.63,0.39-1.25,0.63-1.86c0.06-0.15,0.39-0.86,0.1-0.26
		c0.1-0.21,0.22-0.43,0.33-0.63c0.23-0.42,0.48-0.82,0.75-1.22c0.44-0.65,1.09-1.41,2.02-2.18c2.85-2.37,7.16-2.38,10.3-0.34
		c4.43,2.87,6.93,7.38,8.78,11.9c0.59,1.43,1.12,2.89,1.57,4.38c-0.05-0.18-0.16-0.57,0.07,0.25c0.12,0.43,0.24,0.85,0.35,1.28
		c0.19,0.71,0.36,1.43,0.53,2.15c0.7,3.05,1.18,6.14,1.57,9.24c0.17,1.32,1.28,3.12,2.79,3.08c1.63-0.04,2.36-1.89,2.64-3.21
		c0.15-0.68,0.3-1.37,0.46-2.05c0.02-0.08,0.19-0.76,0.04-0.19c0.07-0.27,0.14-0.54,0.21-0.81c0.36-1.35,0.76-2.68,1.21-4
		c0.38-1.12,0.79-2.23,1.23-3.32c0.43-1.07,1.03-2.43,1.37-3.1c2.25-4.42,4.96-8.62,8.64-11.94c1.57-1.42,3.42-2.67,5.53-3.13
		c2.12-0.46,3.97-0.07,5.86,0.87c1.52,0.76,3.02,2.16,4,3.51c0.74,1,1.04,1.55,1.38,2.29c0.23,0.5,0.42,1,0.61,1.51
		c0.23,0.64-0.2-0.88,0.07,0.23c0.07,0.29,0.15,0.58,0.21,0.87c0.06,0.29,0.11,0.59,0.16,0.88c0.04,0.19,0.03,0.77,0-0.03
		c0.03,0.67,0.08,1.34,0.07,2.01c0,0.13-0.03,1.07,0,0.47c-0.02,0.29-0.05,0.59-0.08,0.88c-0.08,0.74-0.2,1.47-0.34,2.2
		c-0.45,2.32-1.43,4.95-2.49,7.37c-2.25,5.15-5.05,10.09-7.64,15.08c-5.37,10.36-10.66,20.75-15.04,31.57
		c-4.84,11.95-8.93,24.43-10.36,37.3c-0.15,1.37,0.11,3.48,1.62,4.05C67,182.1,67.86,180.32,68.1,179.14z"/>
</g>
<g>
	<path class="st0" d="M148.55,195.06c1.62-7.03,3.68-14.01,6.49-20.85c2.79-6.8,6.22-13.27,9.62-19.77
		c3.51-6.69,7.99-14.2,6.02-22.07c-1.58-6.32-8.05-12.7-14.77-8.68c-3.37,2.02-5.95,5.47-7.83,8.87c-2.11,3.81-3.45,7.89-4.38,12.14
		c1.81-0.04,3.62-0.09,5.43-0.13c-0.88-7.22-2.88-15.07-8.25-20.33c-2.39-2.34-5.64-3.71-8.97-2.88c-3.35,0.84-5.67,3.76-6.93,6.83
		c-1.61,3.92-1.32,8.41-0.44,12.46c0.79,3.67,1.88,7.29,2.92,10.9c2.09,7.23,4.39,14.39,6.96,21.46c2.88,7.91,5.97,15.81,9.73,23.35
		c0.71,1.43,2.23,2.73,3.72,1.38c1.45-1.32,1.53-3.94,0.83-5.63c-2.58-6.21-5.28-12.37-7.68-18.65c-2.36-6.17-4.52-12.42-6.49-18.73
		c-0.82-2.65-1.71-5.69-2.56-8.73c-0.92-3.3-2.09-6.71-2.45-10.12c0.06,0.61-0.01-0.37-0.02-0.51c-0.02-0.39-0.03-0.79-0.01-1.18
		c-0.04,0.66,0.44-1.77,0.11-0.74c0.11-0.35,0.23-0.69,0.37-1.02c-0.25,0.59,0.06-0.11,0.15-0.25c0.15-0.26,0.31-0.51,0.49-0.76
		c-0.27,0.37,0.4-0.42,0.5-0.52c1.48-1.4,3.71-1.51,5.38-0.54c2.55,1.49,3.93,4.18,4.9,6.54c1.27,3.08,1.9,6.37,2.37,10.08
		c0.17,1.32,1.28,3.12,2.79,3.08c1.63-0.04,2.36-1.89,2.64-3.21c0.09-0.41,0.18-0.83,0.28-1.24c-0.17,0.71,0.17-0.63,0.16-0.61
		c0.19-0.68,0.39-1.35,0.62-2.02c0.22-0.66,0.47-1.32,0.73-1.97c0.29-0.72,0.6-1.41,0.8-1.8c1.34-2.59,2.93-5.05,5.15-6.94
		c0.8-0.68,1.77-1.27,2.82-1.44c1.1-0.18,2.32,0.13,3.08,0.61c1.09,0.68,1.48,1.25,2.1,2.13c0.6,0.84-0.17-0.52,0.25,0.43
		c0.1,0.22,0.18,0.45,0.28,0.66c0.45,0.96-0.07-0.64,0.13,0.39c0.06,0.23,0.1,0.46,0.14,0.7c-0.04-0.46-0.05-0.51-0.02-0.17
		c0.02,1.32-0.03,2.24-0.32,3.35c-0.42,1.57-1.07,3.1-1.77,4.56c-1.43,2.99-3.08,5.99-4.62,8.96c-3.19,6.16-6.27,12.37-8.83,18.82
		c-2.81,7.09-5.24,14.51-5.89,22.14c-0.12,1.38,0.09,3.47,1.62,4.05C147.48,198.03,148.29,196.23,148.55,195.06z"/>
</g>
</svg>
