<svg xmlns="http://www.w3.org/2000/svg" width="2000" height="2000" viewBox="0 0 200 200">
  <path d="M117.165,8.055a1.574,1.574,0,0,0-1.323.973c-.905,1.056-1.853,2.075-2.769,3.121-2.219,2.606-4.994,4.832-6.277,8.1-1.929,3.56-4.361,6.893-4.893,11.024-1.423,4.4-2.882,8.786-3.108,13.454a16.6,16.6,0,0,0,1.621,9.444c.442.819.9,1.745,1.43,2.616-.767,3.639-.456,7.6-1.293,11.23-1.722,9.144-3.587,18.26-5.141,27.439C94.28,84.482,89.8,73.59,81.741,65.947c-1.606-1.131-2.9-6.572-5.342-3.609-.732,2.765.008,5.758-.23,8.614a56.621,56.621,0,0,0,3.1,23.54c2,5.959,6.564,15.791,12.474,18.955A38.886,38.886,0,0,0,89.6,121.44c-.456,4.783-1.666,9.425-2.283,14.19-.3,1.784-.57,3.581-.856,5.373-3.043-7.024-9.752-16.1-11.593-18.995-3.218-5.131-7.249-9.9-12.558-12.948-2.369-1.518-3.816.04-3.244,2.525.279,2.4.5,4.807.627,7.219.075,10,.432,20.09,8.734,27.054a22.7,22.7,0,0,0,12.213,5.459,19.313,19.313,0,0,0,3.043.911c-.023.057-.04.116-.064.174a94.227,94.227,0,0,0-5.9,15.658c-1.181,3.117-6.9,15.191-2.966,17,2.431,1.507,3.07-1.622,3.659-3.32a58.276,58.276,0,0,1,4.441-8.22c1.8-3.048,2.485-6.543,3.382-9.918,1-3.281,1.912-6.592,2.783-9.919.361-.037.727-.128,1.079-.2,1.4-.023,2.686.86,4.131.674,2.217-.375,4.307-1.365,6.538-1.762,5.422-1.631,12.787-7.684,15.467-12.678,3.049-4.329,3.36-9.812,5.812-14.425a2.884,2.884,0,0,0-.432-4.016c-1.45-1.225-3.038.173-4.354.907a49.072,49.072,0,0,1-6.45,2.722c-3.284,1.289-6.06,3.5-9.007,5.391a93.007,93.007,0,0,0-8.791,6.979q.906-3.9,1.811-7.795c.22-5.5.931-10.931,1.693-16.36a2.261,2.261,0,0,0,2.391.557c.3-.121.589-.23.886-.336a37.455,37.455,0,0,0,14.062-7.665c6.506-7.153,10.469-16.356,12.507-25.731a13.442,13.442,0,0,1,1.169-4.125c.5-1.583-.863-3.907-2.684-3.291-.541.262-1.022.645-1.556.93-4.857,2.722-10.565,4.271-14.51,8.385-2.464,2.756-5.082,5.416-7.45,8.264.107-.423.217-.845.317-1.269,1.079-5.252,1.89-10.538,3.4-15.7a94.353,94.353,0,0,0,1.7-13.423c1.288-.7,1.7-2.629,2.743-3.665,6.3-7.674,11.5-17.042,11.808-27.171a54.284,54.284,0,0,0-1.932-11.92,12.7,12.7,0,0,1-.012-6.544C119.28,9.341,118.372,7.982,117.165,8.055ZM83.21,146.542c-16.8-4.312-19.389-16.5-20.326-32,5.961,5.646,10.288,12.845,14.331,19.931C79.533,138.313,82.241,142.093,83.21,146.542Zm33.315-18.181c-1.574,5.818-6.127,9.893-11.178,12.838-1.726,1.139-3.334,2.443-5.127,3.485-2.434,1.2-5.073,1.914-7.5,3.142a1.449,1.449,0,0,1-.6.039C98.063,139.145,107.312,133.184,116.525,128.361ZM90.893,106.013C82.436,95.94,80.343,82.407,79.847,69.659,85.28,77.145,92.7,96.976,90.893,106.013Zm31.533-26.732c-1.7,4.6-4.815,8.548-7.235,12.788-3.939,6.1-8.5,12.1-15.337,15.092-.688.213-1.385.385-2.077.575C102.907,96.063,111.056,85.411,122.426,79.281Zm-9.144-42.2c-1.72,5.595-3.948,11.153-8.458,15.193-1.3-2.3-.933-5.023-.74-7.551.389-4.9,2.194-9.507,3.3-14.266,1.011-2.23,2.542-4.2,3.347-6.531a23.846,23.846,0,0,1,4.5-7.457A46.323,46.323,0,0,1,113.282,37.082Z"/>
</svg>
