<svg xmlns="http://www.w3.org/2000/svg" width="2000" height="2000" viewBox="0 0 200 200">
  <g>
    <path d="M134.289,138.111c2.187-4.3.5-10.342-4.447-11.7a32.125,32.125,0,0,0-3.439-.088c-.025-1.835-.364-3.849-.241-5.053.164-3.4.635-6.76.707-10.168,1.067-9.536,5.414-18.376,5.981-28.017.368-10.682-.048-25.821-10.553-31.708a11.509,11.509,0,0,0-5.861-2.319c-5.485-1.653-11.361-1.716-17.042-1.34a37.914,37.914,0,0,0-18.9,4.482C72.907,55.275,67.608,62.259,64.97,69.835a22.963,22.963,0,0,0-1.82,13.556,32.781,32.781,0,0,0,4.984,14.966,46.642,46.642,0,0,1,5.907,9.459A77.208,77.208,0,0,1,80.485,125.7a62.249,62.249,0,0,1,2.189,7.988,41.892,41.892,0,0,0-7.412,3.58,4.962,4.962,0,0,0-.418,7.073c-2.683,2.679-2.942,7.829.21,10.245-1.367,3.393-.281,7.745,3.544,8.764,3.573,1.081,7.3.245,10.97.374a3.022,3.022,0,0,0,.313.842c1.222,3.214,4.215,5.223,6.467,7.684,2.645,2.557,6.636,2.639,10.1,2.857,5.084.2,11.178-3.818,14.351-7.6,1.868-2.656,1.766-6.041,2.22-9.141,2.149-.852,4.273-1.77,6.374-2.733,3.644-.977,8.857-4.944,5.58-8.919A5.976,5.976,0,0,0,134.289,138.111Zm-51.726-22.8A49.533,49.533,0,0,0,70.794,93.389a51.175,51.175,0,0,1-4.725-14.016c0-8.822,6.856-16.29,14.878-19.16,6.524-1.85,12.333-5.577,19.157-6.384,2.817-.48,6.136-.9,9.014-.114,4.609,1,9.148,2.3,13.049,5,5.021,4.682,6.965,11.69,7.266,18.378.111,7.881-3.565,15.148-5.474,22.663a82.217,82.217,0,0,0-2.908,21.2c.318,1.494.085,3.823.329,5.8-2.783.383-5.557.966-8.323,1.559.5-3.846.7-7.794,1.05-11.646.245-3.435,1.7-6.574,2.34-9.923.7-4.617,2.179-9.081,1.85-13.812-.051-12.715-8.153-24.3-21.443-16.265-9.988-4.669-18.993,3.15-16.965,13.7.667,3.156.916,6.606,2.989,9.23a53.82,53.82,0,0,1,6.04,11.435A66.9,66.9,0,0,1,91.356,127.2a45.236,45.236,0,0,1,.165,4.7c-2.016.28-4.023.607-6.006,1.048C84.6,127.071,84.085,121.061,82.563,115.311Zm25.516,14.029c-.809.155-1.619.3-2.428.434-2.965.677-5.983,1.088-9.006,1.467-.109-.648-.217-1.255-.259-1.746-.526-4.743-1.025-9.042-2.856-13.591a163.57,163.57,0,0,0-7.6-19.284c-.548-3.3-.925-7.076.52-10.189,1.371-1.794,3.347-3.78,5.694-3.989-3.261,5.821.747,17.46,8.622,12.707,4.067-3.264,1.891-9.339.644-13.516,5.96-4.93,11.014-2.69,12.362,4.717a39.826,39.826,0,0,1-1.244,13.834c-.452,4.535-2.45,8.627-3.252,13.075-.536,4.346-.961,8.719-1.188,13.094A13.686,13.686,0,0,0,108.079,129.34ZM97.838,86.077c.147,1.1.912,3.144-.791,3.308A7.682,7.682,0,0,1,97.838,86.077Zm14.119,81.751c-3.555,2-7.963,1.137-11.621-.155a43.218,43.218,0,0,1-4.282-4c2.6-.266,5.185-.731,7.741-1.148a76.027,76.027,0,0,0,13.057-1.944c.68-.215,1.351-.453,2.025-.686C117.97,164.032,116.718,165.029,111.957,167.828Zm14.689-15.37c-7.139,2.2-14.636,1.631-21.981,1.988-5.662.814-10.96,3.187-16.73,3.238-2.467.164-5.134.635-7.459-.437,3.278-1.246,4-7.227.135-8.09a3.991,3.991,0,0,1-1.7-.547c2.273-1.314,5.172-3.136,3.4-6.133-1.09-1.4-3.28-.889-4.687-1.91,5.638-3.668,12.356-2.871,18.731-3.3,9.736-1.411,19.389-3.365,29.146-4.648a2.368,2.368,0,0,0,2.078.437,3.424,3.424,0,0,1,2.062,1.224c-.047,1.191-1.664,1.662-2.516,2.27-1.931,1.328-2.293,4.91-.124,6.181,1.24.491,2.364.2,3.769.583-2.653.474-5.466,2.6-3.493,5.406,1.459,1.572,4.138-.586,5.527,1.013C131.262,151.581,128.749,151.656,126.646,152.458Z"/>
    <path d="M110.007,42.325a2.054,2.054,0,0,0,3.239-1.55c.914-2.193,1.712-4.43,2.583-6.639.945-2.622,3.508-6.661.179-8.824a2.087,2.087,0,0,0-3.278,1.071c-.727,2.113-1.651,4.149-2.4,6.254C109.5,35.676,106.656,39.9,110.007,42.325Z"/>
    <path d="M120.5,43.71a2.042,2.042,0,0,0,3.132-1.005,75.767,75.767,0,0,1,5.11-5.634c2.186-2.151-1-7.329-3.732-5.083C122.491,35,115.913,39.864,120.5,43.71Z"/>
    <path d="M144.475,72.006a55.053,55.053,0,0,0,9.118-3.5c1.452-.7,1.537-2.589.964-3.917-.528-1.22-2.06-2.683-3.513-1.978-2.846,1.6-6.129,2.312-8.906,3.991C140.078,68.258,141.834,72.469,144.475,72.006Z"/>
    <path d="M150.991,81.166c-2.837.984-8.518.358-9.1,4.148a3.618,3.618,0,0,0,1.589,3.2,2.779,2.779,0,0,0,2.916-.06c2.12-.512,4.317-.674,6.442-1.2C156.061,86.267,154.063,80.575,150.991,81.166Z"/>
    <path d="M74.072,46.355c2.084,1.75,4.144-.473,3.323-2.721C75.42,39.678,74.038,35.428,71.78,31.6c-2.33-3.732-6.053-.668-4.056,2.788C70.152,38.192,70.967,43.012,74.072,46.355Z"/>
    <path d="M54.049,53.337a47.554,47.554,0,0,1,7.932,4.226c3.07,2.345,5.165-1.117,3.219-3.735-2.8-2.855-6.535-4.568-10.135-6.216C51.212,46.163,51.178,52.24,54.049,53.337Z"/>
    <path d="M57.07,91.236c-4.119.157-7.354,3.577-10.957,5.279-1.988,1.517-.753,5.1,1.442,5.778,2.758.4,7.577-4.509,10.576-5.339C60.887,96.13,59.577,91.51,57.07,91.236Z"/>
    <path d="M58.2,101.56c-2.96,2.246-5.641,4.839-8.53,7.177-1.664,1.77-.248,5.244,2.077,5.626a2.033,2.033,0,0,0,1.657-.538c3.233-2.652,6.339-5.511,9.477-8.232C64.554,102.591,61.12,98.909,58.2,101.56Z"/>
  </g>
</svg>
