<svg xmlns="http://www.w3.org/2000/svg" width="2000" height="2000" viewBox="0 0 200 200">
  <path d="M131.83,34.8c1.05-2.083,3.117-3.6,3.761-5.886.917-4.057-3.487-3.649-6.17-3.7-6.725-.641-13.429-1.526-20.186-1.791-7.1.219-14.218.408-21.333.336l0,.01a3.07,3.07,0,0,0-2.543,2.148,4.453,4.453,0,0,0-.143.459c-5.2,7.988-8.692,16.982-13.584,25.161-1.81,3.2-2.886,6.718-4.213,10.129-1.5,3.276-3.306,6.4-4.706,9.722-1.387,2.619,1.331,4.068,3.441,4.781a45.708,45.708,0,0,0,6.086,2.078c3.3.646,6.217,2.237,9.273,3.585-2.647,7.711-6.874,14.643-11.055,21.59A90.432,90.432,0,0,0,64.406,114c-1.34,2.89-4.487,7.33-.852,9.759,8.148,3.283,17.215,4.009,25.04,8.24A58.678,58.678,0,0,0,84.9,142.749a205.012,205.012,0,0,0-7.783,28.268c-.029.16-.037.3-.051.452a3.8,3.8,0,0,0-.154,4.212,2.375,2.375,0,0,0,3.667.062c6.627-5.7,11.619-12.789,17.118-19.5a175.35,175.35,0,0,0,19.349-23.216c3.181-4.159,6.267-8.4,9.7-12.359,2.278-1.638,4.183-4.909.275-5.843-2.615-.638-5.038-1.823-7.564-2.71-3.788-1.105-7.683-1.794-11.481-2.866,5.537-4.446,9.741-10.155,14.3-15.528,2.894-2.894,5.962-5.614,8.89-8.477,1.724-1.7,4.383-3.354,3.909-6.134-.521-4.49-21.277-9.425-25.854-11.142,4.062-4.7,8.809-8.787,12.129-14.116C125.794,48.074,128.72,41.343,131.83,34.8Zm-23.1,26.305c-1.887,3.034-7.572,7.043-5.84,10.767,1.073,1.874,3.476,2.374,5.275,3.326,6.539,3.869,14.2,4.427,21.407,6.456-5.9,7.423-13.395,12.72-20.166,19.462-3.358,3.317-14.55,8.24-10.238,13.961,1.6,1.211,3.84.542,5.709.785,6.583.77,13.134,1.685,19.654,2.885-6.258,7.158-13.561,13.441-19.827,20.629-4.774,5.64-8.873,11.81-13.62,17.479a95.8,95.8,0,0,1-7.151,7.905c3.06-10.563,5.645-21.26,7.885-32.026.94-3.592-1.959-4.829-4.857-5.624a134.674,134.674,0,0,1-18.116-8.546c3.675-6.434,6.5-13.293,9.761-19.931,3.354-5.421,6.82-10.883,8.986-16.913,1.093-2.9.44-6.227-3.1-6.621-5.685-2.6-12.151-1.811-18.06-3.756C72.419,60.689,77.721,49.6,83.764,38.873c1.651-2.888,3.266-5.952,4.883-9.018a104.2,104.2,0,0,0,16.016-.371c8.757-.586,17.526,1.14,26.321.431-4.1,5.422-7.481,11.36-11.631,16.769C115.723,51.434,112.8,56.7,108.729,61.109Z"/>
</svg>
