<svg xmlns="http://www.w3.org/2000/svg" width="2000" height="2000" viewBox="0 0 200 200">
  <g>
    <path d="M136.389,52.188c-.48-7.385-6.03-13.389-12.512-16.422-5.595-3.178-11.234-6.89-17.686-8-3.669-.149-7.534-.29-11.039.977-4.536,2.358-9.42,4.383-13.256,7.84a29.833,29.833,0,0,1-5.265,3.49,32.3,32.3,0,0,0-6.093,5.384c-6.763,7.63-10.288,18.868-7.956,28.9.636,4.939,2.9,9.547,5.394,13.8,2.018,2.379,4.145,4.718,6.264,7.008a26.33,26.33,0,0,0,10.7,5.2,20.619,20.619,0,0,1,5.969,1.4c0,.013,0,.024,0,.036a23.916,23.916,0,0,0-.492,4.537c-.709,9.961-1.1,19.943-1.844,29.9a94.727,94.727,0,0,1-.374,14.616c-.57,4.764-1.3,9.5-1.788,14.275a14.673,14.673,0,0,0-.005,6.414c.319,1.737,1.91,2.583,3.529,2.918a52.508,52.508,0,0,0,5.158,1.083c5.741-.307,6.653-3.623,6.815-8.62,1.108-5.729.988-11.619,1.938-17.377a159.934,159.934,0,0,0,2.259-19.863c.258-4.273-.513-8.551-.576-12.831.094-4.226.262-8.456.6-12.667,9.765-2.247,21.006-11.3,24.757-19.068a34.961,34.961,0,0,0,4.733-10.642,31.013,31.013,0,0,0,2.352-9.178C138.674,60.82,136.963,56.571,136.389,52.188Zm-34.74,65.062c-.841,5.582-1.074,10.945-1.962,16.563-1.057,7.634-.425,15.391-1.365,23.036-.144,3.882-1.587,7.55-2.208,11.357-1.667-.223-3.332-.5-5.006-.708-.874-7.82.356-15.738,1.539-23.482.888-13.117,2.154-26.216,2.735-39.35,1.86.072,3.871-.151,5.115-.018a15.579,15.579,0,0,0,2.628,0A113.926,113.926,0,0,1,101.649,117.25ZM133.32,69.339A31.7,31.7,0,0,1,121.182,89.83c-2.932,3.123-6.719,5.051-10.614,6.7a15.3,15.3,0,0,1-5.832,1.811,46.488,46.488,0,0,1-4.667.044c-.671-1.567-2.435-.98-3.735-.82-2.554.125-5.059-.657-7.6-.79a15.767,15.767,0,0,1-7.489-1.56c-3.557-1.682-5.424-4.833-7.335-8.142-5.02-6.807-7.116-17.52-6.14-25.878,1.423-6.762,4.324-13.864,10.087-18.042,3.327-1.574,5.946-4.121,9.488-5.348,2.919-.761,5.745-1.85,8.709-2.494a54.453,54.453,0,0,1,10.817.636c8.895,2.175,19.12,5.17,22.82,14.474.885,2.9.972,6,1.933,8.894A19.251,19.251,0,0,1,133.32,69.339Z"/>
    <path d="M87,41.958c-2.97-.5-4.654,3.109-6.258,5.047-1.493,1.885-3.346,5.757-.4,7.191,2.69.617,4.313-2.559,5.748-4.323C87.687,47.8,90.292,43.707,87,41.958Z"/>
    <path d="M77.68,61.9c-3.788,1.3-4.885,9.4-3.211,12.566,4.617,3.811,6.423-6.277,6.447-9.315A2.969,2.969,0,0,0,77.68,61.9Z"/>
  </g>
</svg>
