<svg xmlns="http://www.w3.org/2000/svg" width="2000" height="2000" viewBox="0 0 200 200">
  <path d="M135.127,122.1c-1.222.132-2.24.973-3.433,1.278-15.258,3.466-19.619-.271-31.482-8.713-11.773-11.452-10.7-23.115-2.959-36.546,3.247-5.194,7.426-10.163,12.8-13.224a45.025,45.025,0,0,1,5.679-2.531,2.546,2.546,0,0,0,2.273-1.528c.662-1.5.286-3.761-1.358-4.458-.462-2.155-3.428-1.783-5.151-2.013-4.065-.123-7.88-2.062-11.939-1.98-7.958.781-15.172,4.507-21.3,9.507C69.174,67.9,61.127,78.3,57.81,88.692c-2.3,9.761-.189,20.21,3.757,29.27a61.992,61.992,0,0,0,6.127,15.619c1.219,3.333,4.117,5.179,7.185,6.575,2.344,1.567,4.615,3.255,7.042,4.681,4.957,2.761,10.786,1.51,16.194,2.758a49.679,49.679,0,0,0,30.215-9.723c3.427-2.7,6.976-5.442,9.315-9.189C139.048,126.426,138.206,122.237,135.127,122.1Zm-25.98,20.446a41.455,41.455,0,0,1-14.258-1.564c-3.1-.654-6.362-.756-9.346-1.887-4.168-2.3-7.808-5.539-12.39-7.026-2.267-2.205-3.5-5.342-5.469-7.83-2.355-3.751-3.526-8.066-5.326-12.091a42.885,42.885,0,0,1,.2-18.875c1.253-4.6,3.617-8.742,5.874-12.9A27.059,27.059,0,0,1,81.244,67.359c8.4-5.713,17.557-10.382,27.992-8.961-9.561,5.013-16.074,15.024-19.462,25.054-3.252,10.621-2.279,23.214,3.724,32.7,2.234,4.3,6.178,6.793,10.32,8.993,6.672,4.46,15.074,5.882,22.962,6.257A28.743,28.743,0,0,1,109.147,142.549Z"/>
</svg>
