<svg xmlns="http://www.w3.org/2000/svg" width="2000" height="2000" viewBox="0 0 200 200">
  <path d="M133.912,89.467a24.489,24.489,0,0,0-9.583-12.414c-3.5-3.652-8.383-5.21-12.762-7.477a2.559,2.559,0,0,0-2.585-1.785c-4.725-.939-9.547-2.029-14.4-1.753-8.746,1.011-16.9,6.06-22.9,12.352-5.253,7.107-10.2,14.423-12.553,23.093a36.059,36.059,0,0,0,5.159,25.494A78.009,78.009,0,0,0,72.9,134.9c9.314,7.057,9.615,5.962,20.4,7.432,8.008-.048,15.567-3.709,22.606-7.217,6.609-2.322,10.914-7.98,14.791-13.534A41.671,41.671,0,0,0,133.912,89.467ZM96.428,121.58c-.2,4.61-1.021,8.91-1.474,13.473-1.7-.324-3.377-.867-5.11-1.215a24.468,24.468,0,0,1-9.9-2.26,30.269,30.269,0,0,1-8.438-5.009l.015-.015c3.547-3.388,7.48-6.377,10.787-10.018,3.528-4.167,7.888-7.463,11.9-11.132.81-.826,1.606-1.658,2.476-2.41-.079.948-.171,1.9-.291,2.843C96.07,111.08,96.71,116.332,96.428,121.58ZM96.975,96.6c-1.126.691-2.252,1.382-3.32,2.16-5.078,4.5-10.361,8.784-15.061,13.692-2.185,2.611-8.141,6.31-10.721,10.088-2.518-4.8-3.07-10.59-3.9-15.9C63.227,96.558,68.7,86.83,76.4,80.6c8.165-5.837,13.2-8.329,20.466-8.2C96.36,80.426,97.074,88.524,96.975,96.6ZM122.3,125.3c-4.421,7.124-14.529,9.736-22.619,9.923-.147-5.38-.012-10.765.184-16.144a117.091,117.091,0,0,1,1.079-14.956c4.435,2.333,8.194,5.669,12.577,8.227,2.209,1.416,4.612,2.506,6.8,3.958,1.759,1.357,2.959,3.312,4.617,4.767C124.024,122.461,123.107,123.846,122.3,125.3Zm8-23.816a73.27,73.27,0,0,1-2.526,14.813l0,.005c-.263-.222-.535-.433-.805-.633a38.212,38.212,0,0,0-3.98-4.172c-3.793-2.634-7.88-4.82-11.593-7.584-2.7-2.021-5.3-4.263-8.505-5.43a11.674,11.674,0,0,1-1.452-.658c.32-8.342.113-16.7.08-25.042,1.7.231,3.539.562,5.562.992,3.955,1.155,8.107,1.6,11.859,3.454C127.457,81.944,131.4,92.028,130.3,101.481Z"/>
</svg>
