<svg xmlns="http://www.w3.org/2000/svg" width="2000" height="2000" viewBox="0 0 200 200">
  <path d="M129.272,52.521c.212-2.031.569-4.429-.864-6.106a6.859,6.859,0,0,0-4.526-1.979c1.089-5.671,1.232-14.17-5.738-15.772-4.457-.817-9.047-.606-13.51-1.505-7.011-1.373-14.3,2.12-15.992,9.39-.411,1.741-1.292,3.565-1.514,5.364q-.779.156-1.554.354c-4.44,1.559-4.589,5.135-4.407,9.247-.063,2.031-.8,4.036-.533,6.08a4.1,4.1,0,0,0,.152.89c-.87,5.083-.718,10.309-1.041,15.451a100.785,100.785,0,0,0-.45,11.406c-1.809,8.672-1.265,17.451-1.476,26.241C77.2,120,75.281,128.4,75.988,136.96a3.745,3.745,0,0,0,.677,1.994c.277,2.609,1.979,5.684,2.647,7.63C82,151.905,85.25,156.9,87.962,162.2c1.841,3.009,4.1,5.759,5.42,9.072.608,1.382.646,3.368,2.346,3.905,2.153.546,3.025-2.221,4.215-3.53a65.594,65.594,0,0,0,6.8-10.079c2.712-4.019,5.616-7.9,7.976-12.154,1.244-2.628,5.255-7.518,5.382-10.733,3.2-3.709,2.747-20.782,3.1-23.8a83.347,83.347,0,0,1,1.775-12.842c.463-4.177,1.347-8.311,1.649-12.519a81.1,81.1,0,0,1,.381-8.186c.879-8.269,2.06-16.527,2.035-24.856a5.65,5.65,0,0,0,.043-.985A8.977,8.977,0,0,0,129.272,52.521ZM101.45,32.979c4.174-.2,8.3.981,12.476,1.061,5.3-.094,7.219.145,7.021,6.052-.012,1.173-.531,2.691-.456,3.965-2.988-.4-5.964-.893-8.965-1.229-6.22-.705-12.644-1.827-18.949-1.55C94.008,36.892,95.766,33.544,101.45,32.979Zm-19.9,93.593c-.094-4.629-.222-10.025-.187-14.909a92.807,92.807,0,0,1,2.233-22.686c.57-9.194,1.291-18.383,1.769-27.6,2.915.376,6.557-.047,9.056.068-.12.849-.206,1.629-.3,2.167-.412,3.323-.713,6.664-1.332,9.961A120.547,120.547,0,0,0,90.909,94.6c.241,2.057-1.045,6.985-.107,9.454a2.332,2.332,0,0,0-.411.535c-1.033,2.692-.948,5.727-1.168,8.58a54.773,54.773,0,0,0-.412,8.074,69.975,69.975,0,0,1-.01,7.512,20.036,20.036,0,0,1-.187,2.819c-1.634-1.359-3.667-2.12-5.618-1.327a9,9,0,0,0-1.339.86C81.65,129.594,81.641,128.081,81.548,126.572Zm22.824,7.506c-2.771-4.514-7.74-4.966-11.181-1.179,0-.112.01-.221.017-.323.144-1.916.368-3.829.456-5.748-.246-6.974.875-13.937.85-20.873a2.837,2.837,0,0,0-.569-1.321,5.011,5.011,0,0,0,.411-2.3c.9-5.817,1.321-11.676,1.73-17.553.459-6.7,2.612-13.159,2.967-19.9a20.124,20.124,0,0,1,.462-3.372c4.16-.161,8.3-.595,12.43-1.146-.288,6.366-1.025,12.688-1.667,19.025-.535,11.478-1.263,22.917-2.436,34.345C108.008,117.272,104.587,127.421,104.372,134.078Zm-8.3,34.321c-1.441-2.64-3.2-5.082-4.839-7.594a44.83,44.83,0,0,1-1.785-4.206,19.924,19.924,0,0,0,4.835,1.286,38.4,38.4,0,0,0,8.805-.3Q99.642,163.031,96.077,168.4Zm15.884-25.42q-2.55,4.427-5.229,8.776c-4.289.489-11.29,2.061-19.084-2.129a2.48,2.48,0,0,0-1.061-.248c-1.415-3.472-2.915-6.911-4.036-10.486a6.741,6.741,0,0,1,2.653-2.655c3.248,1.06,2.451,5.223,4.631,7.286,2,1.84,3.705.01,4.217-2.077,1.408-3.367,5.241-8.209,7.873-2.947.677,1.61.8,3.777,2.651,4.508,1.57.517,2.353-1.073,3.265-2.881,1.641-.245,2.122-1.721,2.31-3.383a4.108,4.108,0,0,1,4.265-.523,13.367,13.367,0,0,1,.608,1.577C113.834,139.59,112.776,141.944,111.961,142.979ZM122.08,84.464c.068,8.151-.081,16.347-2.042,24.3-1.5,7.7-3.077,15.563-3.988,23.392a6.193,6.193,0,0,0-5.38-.477c1.347-9.381.6-18.879,1.576-28.282a89.4,89.4,0,0,0,2.42-20.185c.845-7.846,2.144-15.642,2.228-23.546q2.4-.355,4.792-.718c.854-.109,1.655-.194,2.4-.294C123.642,67.275,122.765,75.862,122.08,84.464Zm3.745-31.952A2.832,2.832,0,0,0,124.594,54c-5.432.343-10.891-.4-16.334-.3-5.315-.175-10.579.752-15.872,1.1a33.486,33.486,0,0,1-6.924.407c.8-2.291.793-4.725,1.34-7.063,9.63-1.2,19.436-.058,29,1.267,3.291.795,6.871-.139,10.037.949A12.658,12.658,0,0,1,125.825,52.512Z"/>
</svg>
