<svg xmlns="http://www.w3.org/2000/svg" width="2000" height="2000" viewBox="0 0 200 200">
  <g>
    <path d="M159.222,27.807c-8.028-6.988-16.626-9.066-27.032-9.17-7.513-.23-14.763-3.212-22.318-2.3a163.434,163.434,0,0,0-30.551,6.14,84.384,84.384,0,0,0-16.6,5.884,32.16,32.16,0,0,0-12.408,5.618c-3.058,2.025-7.068,4.467-8.988,8.132-4.814,7.7-6.379,15.828,3.426,20.1a23.545,23.545,0,0,0,7.181.408q3.855,7.626,7.289,15.478c4.232,9.558,11.107,17.563,15.881,26.825C78.944,112.487,83,120,86.47,127.744c3.511,5.955,7.558,11.582,11.082,17.535,5.362,11.834,11.409,24.6,22.713,31.816a3.16,3.16,0,0,0,3.67-.839c2.373-1.487,2.615-4.548,3.286-7.024,1.042-4.248,2.525-8.351,3.962-12.475,1.684-3.336,2.406-6.98,3.437-10.543a30.6,30.6,0,0,0,3.043-9.909c2.818-9.615,3.27-19.689,4.578-29.572,1.715-5.848,4.045-11.6,6.169-17.343,1.932-4.709,4.152-9.874,4.417-15.081.083-3.845.789-7.62,1.219-11.432.216-4.57,1.292-9.031,1.614-13.583a6.679,6.679,0,0,0-.056-2.833,8.333,8.333,0,0,0,2.483-1.616c2-1.88,4.031-4.224,4.376-7.043C162.521,34.351,161.769,30.3,159.222,27.807ZM75.969,98.618c-1.888-3.729-3.856-7.41-5.984-11.01.044-.108.085-.219.121-.34,1.571-2.839,4.605-6.166,8.159-5.563,4.172,1.22,7.261,6.22,5.046,10.319-1.378,1.923-2.35,4.994-5.089,4.977A2.259,2.259,0,0,0,75.969,98.618Zm20.9,35.577q-1.457-2.71-2.886-5.434l.011-.01c1.447-2.466,2.182-5.976,5.075-7.143,2.405-.227,4.918-1.17,6.459,1.283,2.191,3.107-.6,6.94-2.075,9.791-1.189,1.323-3.536,1.063-5.193,1.4A7.074,7.074,0,0,0,96.867,134.2Zm31.976,8.788c-.471,2.525-.992,5.037-1.516,7.548a16.874,16.874,0,0,1-3.816.112c-3.942-.007-3.7-3.576-2.691-6.447.59-2.847,3.926-4.975,6.545-3.221a3.77,3.77,0,0,0,1.55,1.809C128.89,142.85,128.868,142.917,128.843,142.983Zm16.541-67.16,0,.013a1.266,1.266,0,0,0-.144.046c-3.3,2.195-8.452,1.763-10.459-1.956-1.21-2.184-.8-4.7-.431-7.312a11.148,11.148,0,0,1,7.012-4.593,8.667,8.667,0,0,1,4.735,2.2,5.288,5.288,0,0,0,1.057,1.126A74.632,74.632,0,0,0,145.384,75.823Zm3.46-18.457c-.14.783-.293,1.564-.453,2.342-3.061-2.706-8-4.576-10.546-3.3-3.955,1.469-8.319,4.412-8.695,8.986-1.108,7.929,2.589,16.62,11.643,16.6a8.288,8.288,0,0,0,3.357-.514,153.154,153.154,0,0,0-2.985,15.734c-2.624,10.1-5.48,20.1-8.06,30.2a49.687,49.687,0,0,0-2.651,9.8,9.869,9.869,0,0,0-3.7-2.377c-12.633-3.959-16.138,17.4-4.908,20.93a20.068,20.068,0,0,0,4.28.584c-.408,2.04-.8,4.083-1.141,6.139-.947,2.724-.945,9.2-3.919,10.2-4.215-4.1-6.879-9.43-9.625-14.548a189.065,189.065,0,0,1-11.963-19.157c3.5-.29,7.139-1.794,8.29-5.366,3.12-5.408,3.867-11.161-1.13-15.738-1.153-5.022-8.36-4.3-11.641-1.9a17.357,17.357,0,0,0-4.415,6.307l-.766-1.459c-3.848-5.571-8.1-10.791-11.2-16.868q-.624-1.276-1.253-2.549c1.146.556,2.731.1,4.082.107,2.685-.37,4.08-3.2,5.736-5.054,3.766-5.279,1.335-13.4-3.476-17.228-5.359-5.655-13.1-4.216-17.086,2.178-.072.092-.134.184-.2.276-3.4-6.469-5.265-13.885-9.362-19.932a87.647,87.647,0,0,0,10.9-3.608c3.867-1.649,7.461-3.886,11.506-5.112,9.183-3.424,18.95-3.92,28.674-3.75,6.377.292,12.759.367,19.139.092,7.534-.237,15.192.71,22.548-1.339,0,.306.017.607.034.891A68.228,68.228,0,0,1,148.844,57.366Zm3.427-13.537a1.947,1.947,0,0,0-1.066.176c-4.712.627-10.478-.249-13.7-.622-12.048-1.867-24.32-.635-36.361.675-7.574,1.651-15.057,3.579-22.769,4.539C67.677,50.2,57.669,54.882,47,56.444c-5.326-1.873-5.423-4.476-2.323-8.726,2.157-4.449,6.793-6.633,10.1-10.093,4.464-4.072,10.585-5.648,15.911-8.329,4.54-1.288,9.06-1.24,13.806-2.523,7.622-2.4,15.586-3.112,23.5-3.885a1.867,1.867,0,0,0,1.242.32c2.239-.251,4.506-.178,6.757-.2,10.3,1.082,21.006,1.447,30.627,5.672,4.43,2.359,10.786,3.266,12.111,8.857C158.662,41.378,155.891,43.132,152.271,43.829Z"/>
    <path d="M116.031,71.774c1.451-4.517,1.627-9.937-.976-14.069-2.092-3.044-6.622-4.848-10.035-3.09-5.757.765-11.1,5.3-11.528,11.317-1.527,6.286,2.529,13.194,8.6,15.237C107.7,82.386,114.361,76.952,116.031,71.774ZM103.425,75.81c-2.3.313-4-1.773-4.905-3.638a10.937,10.937,0,0,1,1.944-8.233,18,18,0,0,1,5.574-3.379c1.174-.312,2.615.147,3.627-.66a4.709,4.709,0,0,1,1.866.108c2.347,1.615,1.956,6.345,1.181,8.8C111.573,72.886,107.21,74.86,103.425,75.81Z"/>
    <path d="M124.78,89.209c-9.413-5.026-15.517,6.751-14.233,14.824a11.648,11.648,0,0,0,6.4,8.226C130.757,118.088,136.965,94.167,124.78,89.209Zm-4.247,18.282c-7.991.869-4.865-10.354-.656-13.048a6.135,6.135,0,0,1,3.587-.3,2.324,2.324,0,0,0,2.237.042C130.011,97.978,126.255,107.1,120.533,107.491Z"/>
  </g>
</svg>
