<svg xmlns="http://www.w3.org/2000/svg" width="2000" height="2000" viewBox="0 0 200 200">
  <g>
    <path d="M180.158,59.752c-2.818-2.921-6.991-2.813-10.715-3.423a50.4,50.4,0,0,0-13.391-.364,27.614,27.614,0,0,0-7-5.981c-4.509-4.9-9.43-9.528-16.269-10.751-2.291-7.376-19.526-6.438-26.194-7.562-5.577-.591-11.117.362-16.635,1.093-12.558,1.7-26.986,3.94-36.565,13.108-4.517,5.3-9.4,10.308-13.591,15.868-6.707,9.073-9.152,20.189-9.023,31.267-.792.415-1.583.831-2.38,1.237-3.311,2.3-13.849,7.981-14.074,11.844-13.7,16.217-2.154,24.042,15.15,24.422,2.243.018,4.491.03,6.74.021,2.42,8.037,9.335,13.851,16.134,18.4a41.766,41.766,0,0,0,15.085,7.695c6.68,4.426,13.883,5.3,21.832,5.364,4.715-.318,9.444.11,14.141-.34,5.739-1.069,11.228-3.21,16.951-4.412,7.089-2.11,13.762-5.432,18.921-10.831,3.835-3.671,7.855-7.237,10.337-12.018,5.692-9.533,11.914-18.983,14.722-29.851a45.135,45.135,0,0,0,.738-7.53q1.44-.906,2.888-1.8c5.459-3.364,11.781-6.079,15.6-11.437C189.121,76.345,186.594,65.8,180.158,59.752ZM43.921,65.775C50.9,53.937,63.425,46.556,75.432,40.6c13.308-5.594,34.186-3.034,48.212-.521.8,2.009,3.62,1.675,5.387,2.286.726.076,1.4.694,2.16.325,8.65.357,11.544,8.379,16.772,13.684.054.039.1.082.157.121-14.877.356-29.8.276-43.634,6.682-11.768,4.244-24.409,6.1-35.514,12.058-3.157,1.495-6.283,3.047-9.44,4.547-5.7,2.821-12.045,4.053-17.661,7.055q-3.389,1.986-6.822,3.88C36.713,82.075,40.353,73.732,43.921,65.775Zm-30.5,52.954c1-5.058,3.676-10.108,8.363-12.6a89.843,89.843,0,0,1,9.258-6.58,123.921,123.921,0,0,0,3.514,24.881C27,124.724,18.32,123.582,13.425,118.729Zm138.216,6.306c-3.327,6.273-8.625,10.958-14.343,14.988a58.772,58.772,0,0,1-19.581,11.763c-5.978,1.453-12.05,3.027-18.254,2.582-5.848-.633-11.616.982-17.438,1.341-5.107.979-9.89-.308-14.345-2.816-4.983-1.514-8.8-4.777-12.332-8.463-4.859-4.122-9.778-8.511-13.1-14,3.483-.109,6.96-.32,10.412-.725,9.5-.983,18.565-4.111,27.859-6.1,10.361-1.911,21.011-1.882,31.206-4.829,7.406-1.563,14.233-4.892,21.423-7.152,5.856-1.845,12.418-3.273,17.928-6.248,2.83-1.462,5.562-3.085,8.264-4.758A77.682,77.682,0,0,1,151.641,125.035ZM159.8,93.149c0,.42-.009.841-.016,1.262l-1.275.488c-5.964,1.979-11.691,4.617-17.592,6.782-5.557,1.971-10.736,4.859-16.347,6.689-5.747,2-11.76,2.948-17.645,4.42-9.373,2.153-18.464,5.449-27.876,7.355-12.6,1.931-25.431,1.855-38.067,3.682-.424.063-.861.122-1.3.178-2.527-6.9-5.04-13.833-5.473-21.228a43.073,43.073,0,0,1-.027-5.029c8.612-4.9,17.213-10.092,26.491-13.73,7.429-3.061,15.442-4.4,23.07-6.9,8.953-3.029,17.327-7.607,26.852-8.7q5.494-1.227,11.009-2.365c9.237-2.234,18.049-5.764,27.726-5.757.938-.009,1.881,0,2.825.02C156,64.981,158.092,71,159.811,76.8,160.823,82.194,159.809,87.709,159.8,93.149Zm14.844-6.356a37.171,37.171,0,0,1-9.591,5.538c-.081-3.246-.254-6.5-.226-9.733-.1-7.459-1.742-15.3-5.441-21.822a65.386,65.386,0,0,1,16.65,3.9C184.1,71.528,182.788,80.744,174.644,86.793Z"/>
    <path d="M120.9,121.406c-3.314-1.429-5.081,4.274-2.563,6.059C122.134,129.663,124.036,123.292,120.9,121.406Z"/>
    <path d="M92.248,134.081c-1.5,0-2.2,1.814-2.15,3.055.05,1.33.872,2.89,2.369,2.89s2.2-1.814,2.15-3.055C94.567,135.641,93.745,134.081,92.248,134.081Z"/>
    <path d="M66.733,92.078c-1.5,0-2.193,1.811-2.145,3.049.047,1.328.869,2.885,2.364,2.885S69.144,96.2,69.1,94.963C69.05,93.635,68.228,92.078,66.733,92.078Z"/>
    <path d="M116.416,75.311c-1.495,0-2.192,1.814-2.148,3.052.05,1.328.872,2.888,2.367,2.888s2.193-1.814,2.148-3.052C118.733,76.871,117.911,75.311,116.416,75.311Z"/>
    <path d="M149.955,77.738c-1.49,0-2.187,1.809-2.142,3.045.049,1.325.869,2.88,2.361,2.88s2.188-1.809,2.143-3.045C152.267,79.293,151.448,77.738,149.955,77.738Z"/>
    <path d="M83.6,55.636c1.5,0,2.2-1.819,2.155-3.065-.05-1.33-.875-2.895-2.374-2.895s-2.2,1.819-2.155,3.065C81.273,54.071,82.1,55.636,83.6,55.636Z"/>
    <path d="M47.786,110.816c-1.5,0-2.2,1.816-2.15,3.057.05,1.33.872,2.893,2.37,2.893s2.2-1.817,2.15-3.057C50.106,112.378,49.284,110.816,47.786,110.816Z"/>
  </g>
</svg>
