<svg xmlns="http://www.w3.org/2000/svg" width="2000" height="2000" viewBox="0 0 200 200">
  <g>
    <path d="M128.513,72.219c-.693-11.858-2.726-24.361-9.225-34.491-2.212-3.054-4.319-6.457-7.607-8.456a46.7,46.7,0,0,0-7.932-2.619,51.286,51.286,0,0,0-8.292.414C87.622,29.3,80.968,36.4,77.378,43.537,71.085,55.1,72.652,68.783,71.95,81.487c-.914,14.832-.986,29.768-.785,44.605.388,1.9,1.835,2.528,2.979,1.989,1.583.065,3.153.227,4.736.271,3.44-.044,6.88-.127,10.32-.184a110.038,110.038,0,0,0,.09,25.523c.535,5.314.8,11.668,7.1,13.114,5.252.651,9.631-4.557,10.431-9.394,2.938-9.011,2.839-18.573,2.482-27.944a5.4,5.4,0,0,0-.257-1.951c3.784-.4,7.562-.856,11.367-1.039a2.253,2.253,0,0,0,1.2-.437,1.506,1.506,0,0,0,.426.081c.7-.172,1.443.192,2.043-.341a3.124,3.124,0,0,0,.849-1.969c.328-2.657.615-5.327.813-8,.144-2.8,1-5.461,1.524-8.215a82.172,82.172,0,0,0,1.084-10.2A159.737,159.737,0,0,0,128.513,72.219Zm-24.438,81.265c-.516,3.524-1.24,7.007-5.112,8.15-1.534.567-2.827-.611-3.93-1.527a17.214,17.214,0,0,1-.837-3.589c-1.426-8.884-.881-18.072-.354-27.038.033-.455.075-.911.094-1.366,2.294-.013,4.587,0,6.88.054,1-.037,1.988-.1,2.98-.171a6.359,6.359,0,0,0-.121.97c0,4.4.119,8.8.409,13.194A36.076,36.076,0,0,1,104.075,153.484ZM122.248,122a1.378,1.378,0,0,0-.91.2c-.009,0-.016,0-.025,0-4.232.01-8.458-.173-12.689.012-9.395.772-19.008-.265-28.474.118-1.368.053-2.878-.18-4.3-.093.155-2.9.172-5.856.133-8.835a8.873,8.873,0,0,0,2.778-.357c6.587-.9,7.409-9.784,13.219-11.713,3.091,3.637,1.183,9.643,5.579,12.56,2.77,1.928,6.587.219,8.532-2.145,1.44-1.16,5.162-10.484,6.963-6.825,1.174,3.008,2.051,6.985,5.674,7.841a6.374,6.374,0,0,0,4.3-.358C122.851,115.6,122.6,118.8,122.248,122Zm1.583-52.561c-.564,11.99-.193,24.019-.521,36.008-1.785-.847-3.984,1.769-5.179-1.283-1.951-3.768-5-7.649-9.006-3.508-3.065,2.6-3.553,8.219-7.972,9-3.163.18-2.408-4.282-3.087-6.351-.835-3.04-2.2-7.076-5.578-7.972-3.579-.338-6.257,2.685-8.351,5.184-2.173,2.881-4.191,6.835-8.287,6.585-.071-2.863-.139-5.713-.129-8.51.641-12.3-1.821-24.838,1.849-36.857a61.133,61.133,0,0,1,4.465-14.285,25.644,25.644,0,0,1,8.489-11.636,14.723,14.723,0,0,1,5.145-1.759c2.314.048,4.618.391,6.938.415,2.519.678,5.045,1.466,7.537,2.239a36.509,36.509,0,0,1,4.973,4.055C123.655,48.168,124.122,58.923,123.831,69.435Z"/>
    <path d="M71.166,126.173v-.081c-.014-.072-.035-.137-.047-.213Z"/>
    <path d="M101.989,41.908c-3.786,1.009-4.572,6.712-5.518,9.99-.548,1.969-.716,5.12,1.759,5.79,3.332.242,4.076-4.616,5.267-6.945C104.592,48.219,106.828,41.442,101.989,41.908Z"/>
    <path d="M106.58,68.72c-2.694,1.516-1.7,13.874,1.544,14.3C114.7,84.426,112.141,60.715,106.58,68.72Z"/>
    <path d="M114.072,46.67c-1.878,2.8-2.146,8.962-.351,11.824,5.194,4.045,5.77-7.524,4.863-10.471C118.232,45.906,115.4,44.6,114.072,46.67Z"/>
    <path d="M85.568,87c4.311,2.477,5.057-5.233,5.992-7.887.5-1.971,1.537-4,.616-6.01C87.658,65.083,81.905,84.535,85.568,87Z"/>
    <path d="M89.5,63.7c.78-2.512-.026-9.679-2.864-10.563-1.563-.3-2.631,1.141-2.853,2.536a19.185,19.185,0,0,0,.864,8.834C85.767,67.53,88.948,66.454,89.5,63.7Z"/>
  </g>
</svg>
