<svg xmlns="http://www.w3.org/2000/svg" width="2000" height="2000" viewBox="0 0 200 200">
  <g>
    <path d="M46.947,123.345c-2.614-3.044-.552-10.212.024-13.957,1.909-8.667,6.537-16.319,11.455-23.583,3.793-4.667,7.56-9.768,13-12.6,4.432-2.7,8.263-6.357,13.3-7.985a23.486,23.486,0,0,1,12.061-2.1c7.186-.6,14.512-.054,21.024,3.311,9.194,2.684,15.441,10.119,19.9,18.243,2.625,4.907,2.789,10.669,4.978,15.766.94,3.794,6.829,14.979,2.127,17.15-3.765-.091-1.981-5.787-2.842-8.23a100.747,100.747,0,0,0-6.232-18.779c-5.108-6.657-11.132-13.03-18.612-17.01-5.926-4.777-11.861-5.079-19.019-3.366A52.877,52.877,0,0,0,76.389,75.78C70.084,78.269,66.709,81.2,63.16,87c-5.012,8.286-10.573,16.507-11.961,26.31C50.219,115.943,51.812,125.728,46.947,123.345Z"/>
    <path d="M128.051,116.546c-.918-13.364-4.656-15.558-13.775-23.787-3.384-3.273-8.113-4.5-11.918-7.191-5.385-2.024-11.864-.678-16.956,1.67-2.828,1.481-5.959,2.565-8.43,4.625-3.214,3.877-6.9,7.415-9.693,11.611-2.916,4.561-3.177,10.6-6.589,14.774-2.687,1.906-4.533-2.613-2.917-4.51,1.547-4.165,2.706-8.513,4.826-12.454a35.182,35.182,0,0,1,6.537-8.279c2.811-2.862,4.768-6.88,8.829-8.157,9.3-3.366,20.136-7.466,29.767-3.215a22.349,22.349,0,0,1,12.735,8.027c6.584,5.514,9.945,13.541,12.472,21.55C135.815,119.844,129.41,122.565,128.051,116.546Z"/>
    <path d="M71.243,120.8c-2.068-.515-2.438-3.494-1.3-5.022a52.142,52.142,0,0,1,6.6-11.656c4.863-5.156,11.216-10.1,18.384-11.2,8.755-.006,18.839,3.719,22.724,12.134,1.167,3.041,2.913,5.942,3.228,9.235.591,4.19-4.558,5.666-5.176,1.016-.846-4.875-1.532-10.715-5.938-13.732a20.645,20.645,0,0,0-24.048,1.749C76.909,108.249,74.882,121.627,71.243,120.8Z"/>
    <path d="M84.009,118.8c-1.782-2.149-.146-4.783,1.166-6.684,2.245-3.14,4.821-6.392,8.478-7.913,4.679-1.709,11.474-2.371,14.445,2.517,1.585,2.408,4.325,11.908.042,12.554-3.481-.645-1.731-5.811-3.207-8.223l.043.026c-2.111-3.728-8.463-1.715-11.407.05a32.136,32.136,0,0,0-5.043,5.509C87.582,118.189,85.887,120.812,84.009,118.8Z"/>
  </g>
</svg>
