<svg xmlns="http://www.w3.org/2000/svg" width="2000" height="2000" viewBox="0 0 200 200">
  <g>
    <path d="M150.362,82.931c-1.367-.991-2.718-1.991-4.151-2.891-6.017-3.913-11.657-8.126-17.647-12.139a7.944,7.944,0,0,0-2.312-1.314c-.72-2.772-1.4-5.557-2.122-8.325a82.792,82.792,0,0,0-7.978-18.575,33.844,33.844,0,0,0-4.18-7.8c-1.923-3.019-3.128-6.48-5.46-9.237-2.936-3.362-7.1-5.336-10.958-7.445a17.3,17.3,0,0,0-14.893-1.256c-5.337,1.739-10.737,4.636-14.166,9.2-.983,1.415-1.83,2.913-2.779,4.349a39.978,39.978,0,0,0-7.956,19.23,177.473,177.473,0,0,0,1.457,23.107,50.208,50.208,0,0,0,1.171,10.657A29.532,29.532,0,0,0,59,85.4a7.743,7.743,0,0,0-1.018,1.8c-1.554,3.417-3.161,6.81-4.455,10.336-1.615,3.388-2.424,7.129-4.182,10.437a22.854,22.854,0,0,0-1.99,4.664c-.978,1.645-.92,3.982,1.056,4.84,3.859.755,8.127-2.488,11.2-4.555,1.812-.9,3.673-1.733,5.552-2.516.092.7.181,1.409.263,2.114,1.257,5.217,3.021,10.035,4.627,15.242,1.154,2.821,1.423,10.143,4.4,11.754a2.01,2.01,0,0,0,1.431,1.09,76.1,76.1,0,0,1,9.953-2.383c.843-.159,1.671-.363,2.49-.593-.117.761-.19,1.53-.27,2.287.286,4.324-2.6,18.7,1.812,20.179,1.721.466,3.164-1.15,4.716-1.684,1.023-.4,2.048-.8,3.071-1.2.034,6.077-2.148,12.3-.317,18.258,1.105,4.681,6.287,7.921,9.033,2.508l.022.072a6.047,6.047,0,0,0,2.061,3.421c3.047,1.964,6.412-1.375,7.232-4.24,2.766,2.406,6.145-.709,7.4-3.287,3.364,4.054,8.1-.451,8.192-4.531,4.686,2.84,8.109-3.346,6.5-7.489-1.434-4-3.936-11.681-7.7-15.749.244-.069.488-.137.732-.21,3.042-.929,6.518-1.8,4.267-5.715-2.93-3.863-5.269-8.109-7.922-12.15a77.142,77.142,0,0,0,9.132-2c1.7-.306,2.929-1.389,4.271-2.369a3.227,3.227,0,0,0,1.759-4.116,3.152,3.152,0,0,0-.2-.48c-.238-1.3-.964-2.863-1.146-3.851-.65-2.366-1.66-4.642-2.123-7.057a24.782,24.782,0,0,0-1.315-6.407c-.7-2.907-1.5-5.779-2.375-8.63a21.719,21.719,0,0,0,4.889-1.439c2.476-.922,5.212-.851,7.591-2.106,1.806-.869,4.712-.579,5.577-2.7C153.621,84.953,151.834,83.954,150.362,82.931ZM70.038,23.718c1.881-1.962,4.583-2.675,6.986-3.782a29.342,29.342,0,0,1,6.957-2.106A13.713,13.713,0,0,1,94.42,19.688c4.116,1.882,8.463,3.705,11.165,7.522,1.947,2.817,4.079,5.531,5.813,8.487-.067.019-.132.039-.2.057-5.121,1.042-10.225,2.66-15.513,2.521-7.482.7-14.811,2.306-22.27,3.119-3.625.588-7.234,1.264-10.819,2.059C63.576,36.337,65.489,29.476,70.038,23.718Zm-8.056,83.669c-1.371,1.161-3.055,1.719-4.537,2.688a20.466,20.466,0,0,1-5.189,2.976h0c3.137-6.734,6-13.627,8.923-20.482.061.156.118.314.179.469a81.135,81.135,0,0,1,3.169,13.082A6.574,6.574,0,0,0,61.982,107.387Zm70.325,59.6-.01-.012.013.013Zm-.048-.058a24.58,24.58,0,0,1-2.941-4.53c-.385-.97-1.73-2-2.608-.98-1.241,2.573,2.835,5.9-.82,8.12-1.388-2.146-2.072-4.94-4.1-6.582a2.106,2.106,0,0,0-3.384.946c-.613,3.5,3.327,5.152-.862,9.316-1.768-2.727-.388-8.03-4.532-8.7-2.58.022-2.059,3.041-1.6,4.732.019,2.775.3,6.287-1.944,8.311a18.417,18.417,0,0,1-1.233-7.265c.478-1.472-1.154-3.716-2.686-2.649-.734.791-.624,2.018-.93,3-.571,1.894-1,4.623-2.99,5.485-1.87-3.961-.273-8.5.1-12.633a50.315,50.315,0,0,0,.134-8c.906-.393,1.806-.8,2.7-1.238,2.381-.98,4.879-1.6,7.3-2.479,3.158-1.182,6.209-2.647,9.579-3.115,1.083-.4,2.178-.739,3.279-1.048a3.025,3.025,0,0,0,.729.859,11.965,11.965,0,0,1,3.55,3.979C130.325,155.05,138.157,166.46,132.259,166.924Zm-2.406-27.009c-2.914.973-6,1.294-8.716,2.818-1.7.971-3.588,1.516-5.316,2.42a60.471,60.471,0,0,1-5.721,3.293c-6.034,2.48-12.582,3.546-18.593,6-.156-2.429.629-4.792.666-7.218.185-3.328,0-6.7.73-9.975a2.171,2.171,0,0,0-.068-1.11,69.228,69.228,0,0,1,7.127-2.348c4.785-1.626,9.794-2.133,14.719-3.119a70.837,70.837,0,0,1,8.077-1.816,3.563,3.563,0,0,0,.551,1.061A56.245,56.245,0,0,1,129.853,139.915Zm7.662-25.664c.154.813.279,1.632.355,2.462.1.6.134,1.267.214,1.907-3.276,1.854-7.014,2.506-10.546,3.872-5.806,1.725-11.3,4.945-17.48,5.1-8.235-.389-15.673,3.253-23.472,5.189-2.778.825-6.953.831-9.861,2.169q-.741-3.429-1.75-6.776a8.579,8.579,0,0,1,1.452-.345,36.907,36.907,0,0,0,9.333-2.483c7.222-2.151,14.678-3.427,21.915-5.545,4.4-1.7,9.127-1.6,13.735-2.233,4.327-.639,8.636-1.309,12.9-2.223.9-.282,1.833-.507,2.709-.858A2.271,2.271,0,0,0,137.515,114.251Zm-1.478-5.876.044.155h0c-2.327.82-4.771,1.208-7.145,1.809-3.428,1.262-6.877,2.521-10.384,3.532-5.888,1.064-11.777,2.085-17.7,2.925a201.222,201.222,0,0,0-21.029,5.136c-2.062.525-4.473.608-6.445,1.5q-.26-.693-.531-1.381c-2.723-7.671-4.215-15.667-6.465-23.478a63.739,63.739,0,0,1-2.22-17.6c-.543-3.828-1.355-7.617-1.862-11.464a23.845,23.845,0,0,1-1.185-8.25c.351-4.072.539-8.3.9-12.505,3.3-.249,8.5-1.852,10.574-2.023C78.666,45.5,84.874,44.94,90.9,43.42c4.475-1.374,9.15-1.617,13.741-2.409,2.673-.674,5.226-.179,7.939-.764a1.908,1.908,0,0,0,.4-.04c.632,1.987,1.274,3.972,2.006,5.926a87.842,87.842,0,0,0,3.336,11.973c1.282,4.448,3.291,8.644,4.618,13.078q2.145,8,4.815,15.845c1.513,3.787,3.1,7.534,4.541,11.348C133.794,101.632,135.679,104.739,136.037,108.375Zm7.6-20.963c-2.587.654-5.209,1.164-7.768,1.949a17.252,17.252,0,0,1-1.884.167c-1.623-4.929-3.436-9.8-5.335-14.637-.3-.915-.586-1.835-.861-2.758a8.012,8.012,0,0,1,.85.663c6.2,4.474,12.756,8.369,19.013,12.751C146.294,86.052,145.144,86.727,143.639,87.412Z"/>
    <path d="M98.546,78.263a18.372,18.372,0,0,0,5.263-8.645,13.373,13.373,0,0,0-8.167-13.779c-6.813-3.3-13.082,1.936-14.827,8.511-2.064,5.723.842,12.014,5.672,15.34C90.124,81.9,95.308,80.686,98.546,78.263ZM85.457,73.026c-1.809-4.165.489-9.358,3.638-12.268,1.186.235,2.189-.687,3.365-.613a8.643,8.643,0,0,1,7.489,5.995c1.082,3.7-1.555,7.474-4.419,9.605-1.509.786-3.339.73-4.994,1.025C88.069,77.045,86.534,74.942,85.457,73.026Z"/>
    <path d="M102.443,86.755a7.175,7.175,0,0,0-5.425,0c-2.443-.046-4.724,1.565-6.351,3.271-6.3,7-2.182,19.279,6.222,22.551,5.833,1.271,12.487-2.8,13.564-8.794.766-2.566.108-5.213-.506-7.739A12.94,12.94,0,0,0,102.443,86.755ZM98.91,108.832c-7.8-.9-8.725-13.327-2.348-16.98,2.035,1.268,4.356-1.305,6.2.433,2.713,1.877,3.716,5.282,4.443,8.348C107.444,105.83,103.753,108.5,98.91,108.832Z"/>
  </g>
</svg>
