<svg xmlns="http://www.w3.org/2000/svg" width="2000" height="2000" viewBox="0 0 200 200">
  <path d="M175.108,53.429c-3.038-.385-5.828,1.251-8.684,2-4.863,1.36-9.9,2.008-14.72,3.447a144,144,0,0,0-5.93-15.767c-1.908-4.411-3.836-11.522-8.126-3.992-3.14,6.683-7.892,12.874-9.486,20.151-3.466-.019-6.877-.938-10.321-.761-3.326-.045-6.9.856-10.211,1.389-2.5.672-7.492-.505-7.136,3.443.357,1.962,2.968,2.2,4.218,3.545,1.729,1.234,3.5,2.434,5.235,3.691-.439.116-.856.232-1.222.319-5.94.847-11.3,3.678-17.037,5.291a85.637,85.637,0,0,0-13.9,4.754,97.256,97.256,0,0,0-13.34,8.649,108.747,108.747,0,0,0-18.56,14.5c-3.935,3.57-6.635,8.172-10.029,12.217-3.954,4.087-8.694,7.43-11.5,12.522-1.9,3.117-4.174,6.21-4.625,9.931-1.348,6.275,1.636,11.593,8.307,8.035-5.6,9.253.9,15.246,9.333,8.015-.944,2.346-1.164,5.881,1.71,6.9,4.791.952,9.232-3.39,13.338-5.372,3.063-1.828,4.877-4.972,7.12-7.634,2.132-2.409,4.524-4.56,6.881-6.743,2.507-2.308,5.352-4.272,7.543-6.9a69.4,69.4,0,0,1,8.979-9.86c1.981-1.747,3.911-3.549,5.771-5.427,1.459-1.252,3.237-2.038,4.716-3.265,4.618-4.7,10.291-8.05,15.876-11.48a18.342,18.342,0,0,0-.147,1.9c.676,3.794,3.922,2.013,5.8.26,2.486-1.835,5.336-3.1,7.7-5.125,2.55-1.387,4.383-3.68,6.725-5.346,2.825-1.642,5.991-2.846,8.275-5.276,2.407,3.738,6.405,5.616,9.887,8.167,4.073,2.441,7.263,6.162,11,9.066,7.1,3.807,4.318-7.634,3.871-11.241-1.343-5.815-2.619-11.608-3.833-17.458-.113-1.5-1.861-3.564-.353-4.687,4.992-4.194,10.269-8.131,14.428-13.2C174.4,60.126,179.344,55.458,175.108,53.429Zm-64.522,46.14c-1.292.468-2.67,1.733-3.752,2.152a79.413,79.413,0,0,0-15.243,11.645c-3.193,2.193-5.5,5.229-8.273,7.87-2.847,2.521-6.113,4.515-8.967,7.013-3.2,3.539-6.85,6.634-10.029,10.188-2.786,3.456-6.264,6.209-9.4,9.317a24.327,24.327,0,0,1-6.228,4.9c-1.673.764-9.94,9.116-9.641,3.83,1.156-4.7,5.071-7.983,7.9-11.706a7.613,7.613,0,0,0,1.083-1.789c.658-1.4-.753-3.684-2.272-2.441l0-.008c-3.081,3.11-6.165,6.227-9.218,9.368a43.985,43.985,0,0,1-4.922,3.837c-1.056.125-2.709.366-3.133-.905-.47-3.1,1.888-6.077,3.6-8.479,2.18-1.822,8.971-7.307,6.279-10.338-1.634-1.3-3.045,1.015-4.077,2.049-1.894,1.873-8.7,8.869-11.23,7.013a3.834,3.834,0,0,1-.159-.409c-.529-3.852,2.062-7.1,3.883-10.256,3.993-7.323,9.606-13.6,15.186-19.739,5.844-5.445,12.541-9.931,18.215-15.583,2.813-2.271,6.041-3.932,9.075-5.879,4.346-2.561,8.472-5.51,13.028-7.7,6.763-3.882,14.006-6.935,21.852-7.677a53.739,53.739,0,0,0,8.379-.917,1.9,1.9,0,0,0,1.6-1.008,29.869,29.869,0,0,1,2.35,2.344c-2.054,5.055-2.214,10.559-3.622,15.782C112.278,94.531,111.362,97.037,110.586,99.569Zm48.222-27.745c-1.265,1.073-2.833,2.02-3.341,3.7-.5,3.615.636,7.333.908,10.958.494,6.28,2.219,12.247,3.27,18.457-6.565-3.552-11.954-8.943-17.056-14.286-1.372-1.948-3.082-6.006-6.108-4.609-3.354,3.975-8.259,6.139-11.857,9.912-3.617,2.882-8.109,4.467-11.726,7.345A87.316,87.316,0,0,1,118.8,79.947c.592-2.005,2.4-4.31,1.294-6.4-2.65-4.149-7.038-6.417-11.094-8.938,4.325-.8,8.639-1.955,13.073-1.724,1.278-.112,2.543-.338,3.818-.465,1.266-.283,3.2.411,3.937-.934,1.522-.3,1.612-2.129,2.11-3.316a168.5,168.5,0,0,1,9-17.849c2.49,3.346,3.873,7.391,5.217,11.3.8,2.843,1.083,14.072,5.518,12.614,5.854-1.678,11.44-4.181,17.517-5.01A71.965,71.965,0,0,1,158.808,71.824Z"/>
</svg>
