<svg xmlns="http://www.w3.org/2000/svg" width="2000" height="2000" viewBox="0 0 200 200">
  <g>
    <path d="M104.178,135.78c6.395-.042,12.078-2.779,16.91-6.833,4.976-4.277,9-9.614,10.4-16.122,4.253-10.736,5.191-22.675-2.549-32.058-3.8-7.293-9.219-8.469-16.6-10.434-3.284-1.653-10.775.421-11.506-3.715-5.676.569-12.1.773-16.911,4.113C78.761,73.537,73.507,76.238,70.1,81.258A46.758,46.758,0,0,0,64.486,98.2c0,3.05.256,6.067.369,9.113.39,3.521.167,7.378,2.191,10.446,4.142,6.3,8.723,10.836,16.078,13.142,7.044,1.8,14.015,4.392,21.306,4.863Zm-11.569,4.765c-10.065.039-20.114-4.538-25.233-13.442-1.948-2.7-4.626-4.9-6.076-7.945a44.344,44.344,0,0,1-1.909-21.54A82.879,82.879,0,0,1,68.682,77.04c3.293-4.646,7.363-8.635,12.644-10.923,5.649-4.018,12.626-5.139,19.382-5.842a17.778,17.778,0,0,1,9.355,1.791,36.938,36.938,0,0,1,10.274,3.962,19.742,19.742,0,0,1,10,10.468c1.579,3.25,4.277,5.994,5.673,9.311,5.935,10.255,3.445,22.308-.638,32.694C129.158,134.34,108.585,141.993,92.609,140.545Z"/>
    <path d="M112.615,94.075c-4.058-1.2-2.306-9.074,1.929-8C118.627,87.1,116.64,94.919,112.615,94.075Z"/>
    <path d="M84.659,93.644c-2.526-2.815.588-10.384,4.175-6.074C91.267,90.309,88.144,97.41,84.659,93.644Z"/>
    <path d="M99.169,119.117c-2.564-.108-5.313-.094-7.316-1.924-3.5-.675-8.009-4.929-5.233-8.49,1.766-1.757,2.994.28,4.224,1.451.785.66,1.9.578,2.784,1.055.845.362,1.457,1.194,2.422,1.253,5.554.6,7.516.824,11.479-3.539,1.007-1.048,1.333-2.791,2.744-3.387a1.841,1.841,0,0,1,1.861.419c3.483,4.041-4.026,9.9-6.993,12.165C103.073,119.256,101.265,119,99.169,119.117Z"/>
  </g>
</svg>
