<svg xmlns="http://www.w3.org/2000/svg" width="2000" height="2000" viewBox="0 0 200 200">
  <path d="M96.087,126.233c.476,1.133.962,2.254,1.391,3.41q.252.683.517,1.362c1.057-5.934,3.646-11.476,6.219-16.885,2.595-5.006,4.9-10.156,8.133-14.792a44.134,44.134,0,0,1-10.366-12.641C99.413,81.14,97.7,75.223,95.5,69.521c-.944,5.929-3.148,11.587-5.461,17.1a98.666,98.666,0,0,1-7.1,16.729,29.3,29.3,0,0,1,7.743,11.082A103.37,103.37,0,0,1,96.087,126.233Zm2.3,13.869c-2.287-.882-2.581-7.12-3.707-9.245-1.947-6.462-6.271-11.612-9.716-17.276-2.747-4.54-10.327-6.426-6.5-12.8A198.726,198.726,0,0,0,91.413,68.223c.776-2.522.672-5.386,2.033-7.685,2.047-2.174,3.589,1.207,3.809,3.03,2.426,8.466,7.231,16.126,12.148,23.351a29.076,29.076,0,0,1,4.2,5.095c1.974,2.194,5.05,4.389,4.4,7.741-.441,1.776-2.018,3.175-2.867,4.626-2.271,2.915-3.131,6.511-4.343,9.928-2.108,6.047-5,11.786-7.621,17.623C101.858,134.2,102.007,140.893,98.391,140.1Z"/>
</svg>
