<?xml version="1.0" encoding="utf-8"?>
<!-- Generator: Adobe Illustrator 26.1.0, SVG Export Plug-In . SVG Version: 6.00 Build 0)  -->
<svg version="1.1" id="Layer_1" xmlns="http://www.w3.org/2000/svg" xmlns:xlink="http://www.w3.org/1999/xlink" x="0px" y="0px"
	 viewBox="0 0 251.49 358.93" style="enable-background:new 0 0 251.49 358.93;" xml:space="preserve">
<style type="text/css">
	.st0{fill:#231F20;}
</style>
<g>
	<g>
		<g>
			<path class="st0" d="M91.51,230.7c9.12,2.28,18.76-2.41,25.54-8.22c7.65-6.56,13.17-15.17,17.47-24.19
				c9.37-19.66,12.82-41.34,13.93-62.92c0.31-6.01,0.39-12.01,0.34-18.02c-0.03-3.04-0.09-6.07-0.26-9.1
				c-0.18-3.08-0.23-6.31-0.96-9.31c-0.2-0.8-0.72-1.92-1.72-1.89c-0.99,0.02-1.46,1.16-1.62,1.98c-0.52,2.63-0.46,5.37-0.56,8.05
				c-0.1,2.6-0.14,5.2-0.17,7.8c-0.04,5.22-0.19,10.43-0.38,15.65c-0.04,1.16-0.09,2.31-0.15,3.47c-0.03,0.65-0.07,1.3-0.1,1.95
				c-0.02,0.36-0.04,0.72-0.06,1.08c-0.01,0.14-0.02,0.29-0.03,0.43c0.02-0.34,0.02-0.35,0-0.05c-0.17,2.59-0.38,5.18-0.63,7.76
				c-0.49,5.06-1.16,10.11-2.03,15.13c-0.87,5.06-1.93,9.89-3.18,14.37c-1.37,4.9-3.02,9.73-4.98,14.43
				c-3.48,8.36-8.15,16.91-14.51,23.59c-3.37,3.54-7.25,6.74-11.61,9c-2.14,1.11-4.43,2.01-6.76,2.64c-2.36,0.64-4.8,0.75-7.21,0.96
				C89.66,225.46,89.45,230.18,91.51,230.7L91.51,230.7z"/>
		</g>
		<g>
			<path class="st0" d="M142.94,102.16c-0.68,21.6-0.98,43.23-0.75,64.84c0.1,9.49,0.58,19.19,3.18,28.38
				c2.6,9.19,7.25,17.37,14.07,24.09c6.83,6.72,16.13,12.38,25.96,12.3c1.61-0.01,2.28-2.07,2.36-3.34
				c0.08-1.22-0.32-3.81-1.88-4.11c-8.08-1.57-15.58-4.94-21.79-10.33c-6.29-5.46-10.72-12.18-13.28-20.12
				c-0.02-0.07-0.27-0.88-0.16-0.5c0.11,0.38-0.12-0.44-0.14-0.51c-0.13-0.47-0.26-0.94-0.38-1.41c-0.29-1.15-0.56-2.3-0.79-3.46
				c-0.21-1.03-0.39-2.07-0.55-3.1c-0.09-0.56-0.17-1.11-0.25-1.67c-0.04-0.28-0.08-0.56-0.11-0.84c-0.01-0.09-0.14-1.13-0.09-0.72
				c0.05,0.45-0.04-0.42-0.05-0.51c-0.03-0.28-0.06-0.56-0.08-0.85c-0.05-0.49-0.09-0.99-0.13-1.48c-0.1-1.2-0.18-2.41-0.25-3.62
				c-0.12-2.28-0.19-4.55-0.24-6.83c-0.19-10.14-0.13-20.29-0.21-30.43c-0.09-11.97-0.4-23.91-0.81-35.87
				c-0.04-1.06-0.57-2.72-1.88-2.71C143.34,99.37,142.97,101.17,142.94,102.16L142.94,102.16z"/>
		</g>
		<g>
			<path class="st0" d="M91.99,230.69c2.13,0.18,4.27,0.27,6.36,0.76c2.11,0.5,4.19,1.24,6.17,2.14c3.98,1.82,7.57,4.49,10.77,7.46
				c6.7,6.23,11.48,14.23,15.24,22.44c4.33,9.47,6.96,18.37,8.95,28.54c0.49,2.52,0.92,5.06,1.31,7.59c0.17,1.13,0.34,2.26,0.49,3.4
				c0.09,0.64,0.17,1.28,0.25,1.92c0.04,0.36,0.09,0.71,0.13,1.07c0.01,0.09,0.14,1.18,0.09,0.72c-0.07-0.59,0.09,0.82,0.08,0.72
				c0.03,0.29,0.06,0.57,0.09,0.86c0.06,0.57,0.12,1.15,0.17,1.72c0.13,1.36,0.25,2.73,0.36,4.09c0.2,2.59,0.37,5.19,0.5,7.79
				c0.29,5.79,0.45,11.58,0.52,17.37c0.04,2.89,0.06,5.78,0.15,8.67c0.1,3.02,0.05,6.12,0.63,9.09c0.16,0.81,0.75,1.92,1.72,1.89
				c1.02-0.03,1.42-1.17,1.62-1.98c0.62-2.52,0.7-5.73,0.84-7.92c0.18-2.79,0.29-5.57,0.33-8.36c0.07-5.36,0.07-10.72-0.13-16.08
				c-0.41-10.93-1.35-21.9-3.35-32.66c-1.94-10.49-4.88-20.86-9.16-30.65c-4.08-9.33-9.3-18.21-16.58-25.4
				c-7.13-7.04-17.8-13.18-28.16-10.59c-1.11,0.28-1.33,2.19-1.22,3.05C90.29,229.39,90.8,230.59,91.99,230.69L91.99,230.69z"/>
		</g>
		<g>
			<path class="st0" d="M146.55,353.8c0.37-10.64,0.7-21.27,0.78-31.92c0.07-10.27,0.11-20.53,0.19-30.8
				c0.02-2.27,0.05-4.55,0.13-6.82c0.04-1.14,0.08-2.28,0.14-3.42c0.01-0.21,0.02-0.43,0.04-0.64c0.01-0.09,0.06-0.96,0.03-0.52
				c-0.03,0.45,0.03-0.43,0.04-0.52c0.03-0.35,0.05-0.71,0.08-1.06c0.19-2.25,0.44-4.5,0.78-6.74c0.16-1.04,0.34-2.08,0.54-3.11
				c0.11-0.55,0.22-1.1,0.34-1.64c0.04-0.2,0.09-0.41,0.14-0.61c-0.01,0.02,0.29-1.19,0.14-0.63c2.06-8.2,5.95-15.29,11.89-21.19
				c6.46-6.42,14.63-10.68,23.58-12.43c1.73-0.34,2.48-2.2,2.39-3.85c-0.08-1.46-0.75-3.71-2.58-3.73
				c-8.84-0.07-17.1,4.57-23.63,10.23c-6.94,6.01-12.19,13.83-15.15,22.51c-3.15,9.23-3.95,19.05-4.18,28.74
				c-0.25,10.44-0.05,20.91-0.01,31.35c0.03,6.06,0.05,12.12,0.15,18.19c0.1,6.23,0.36,12.45,0.56,18.68
				c0.03,1.06,0.57,2.72,1.88,2.71C146.16,356.59,146.52,354.8,146.55,353.8L146.55,353.8z"/>
		</g>
	</g>
	<g>
		<g>
			<path class="st0" d="M48.03,75.61c5,1.94,10.98-0.97,14.76-4.15c4.32-3.63,7.49-8.45,9.91-13.49c5.42-11.29,7.4-23.65,8.01-36.06
				c0.16-3.32,0.18-6.63,0.12-9.95c-0.03-1.73-0.1-3.45-0.27-5.18c-0.18-1.82-0.22-3.95-1.04-5.6c-0.8-1.61-2.27-1.57-2.99,0.07
				c-0.59,1.33-0.59,2.82-0.71,4.25c-0.04,0.47-0.07,0.93-0.1,1.4c-0.05,0.82-0.03,0.45-0.02,0.27c-0.07,1.06-0.12,2.12-0.15,3.18
				c-0.07,2.74-0.16,5.48-0.25,8.23c-0.05,1.44-0.11,2.88-0.2,4.32c0.01-0.19,0.05-0.71-0.01,0.16c-0.03,0.36-0.05,0.72-0.08,1.08
				c-0.06,0.79-0.13,1.57-0.2,2.36c-0.26,2.77-0.63,5.53-1.08,8.28c-0.22,1.33-0.47,2.66-0.74,3.98c-0.13,0.62-0.27,1.24-0.42,1.86
				c-0.03,0.13-0.24,1-0.1,0.42c-0.1,0.41-0.21,0.82-0.32,1.23c-0.72,2.65-1.59,5.27-2.62,7.82c-1.79,4.43-4.26,9.17-7.6,12.76
				c-1.74,1.88-3.76,3.64-6,4.9c-1.16,0.65-2.4,1.19-3.65,1.62c-1.28,0.43-2.59,0.52-3.9,0.82C46.23,70.68,45.92,74.8,48.03,75.61
				L48.03,75.61z"/>
		</g>
		<g>
			<path class="st0" d="M75.6,3.94c-0.36,6.09-0.66,12.15-0.71,18.25c-0.05,5.88-0.16,11.77-0.09,17.65
				c0.06,5.36,0.36,10.85,1.86,16.02c1.55,5.35,4.21,10.07,8.17,14.01c3.84,3.81,9.31,7.32,14.91,6.84
				c1.62-0.14,2.27-1.96,2.36-3.34c0.08-1.33-0.33-3.67-1.88-4.11c-4.26-1.21-8.27-2.78-11.62-5.68c-3.34-2.9-5.64-6.35-6.92-10.63
				c0.16,0.54-0.23-0.89-0.25-1c-0.13-0.54-0.25-1.07-0.36-1.62c-0.12-0.61-0.23-1.23-0.32-1.84c-0.04-0.28-0.08-0.55-0.12-0.83
				c-0.03-0.22-0.12-0.94-0.05-0.36c-0.28-2.52-0.37-5.05-0.41-7.58c-0.09-5.47-0.1-10.94-0.16-16.41
				c-0.08-6.51-0.38-12.96-0.78-19.45c-0.07-1.06-0.55-2.72-1.88-2.71C75.98,1.15,75.66,2.94,75.6,3.94L75.6,3.94z"/>
		</g>
		<g>
			<path class="st0" d="M48.03,75.56c1.18,0.27,2.38,0.35,3.55,0.67c1.16,0.32,2.31,0.77,3.39,1.29c2.08,0.99,3.96,2.46,5.64,4.03
				c3.61,3.37,6.12,7.7,8.11,12.16c2.33,5.21,3.58,9.56,4.65,15.16c0.27,1.4,0.5,2.8,0.71,4.21c0.09,0.56,0.17,1.13,0.24,1.69
				c0.06,0.42,0.11,0.85,0.16,1.27c0.02,0.15,0.15,1.36,0.07,0.57c0.3,2.79,0.51,5.59,0.64,8.39c0.15,3.17,0.27,6.34,0.33,9.52
				c0.03,1.58,0.08,3.16,0.2,4.74c0.14,1.79,0.14,3.73,0.85,5.39c0.48,1.12,1.99,1.91,2.73,0.47c1.42-2.78,1.36-6.58,1.47-9.64
				c0.11-3.03,0.13-6.07,0.03-9.09c-0.21-6.24-0.71-12.52-1.84-18.66c-2.12-11.5-6.33-23.85-14.94-32.15
				c-2.11-2.04-4.55-3.75-7.3-4.82c-2.67-1.04-6.09-1.58-8.83-0.51C46.2,70.91,46.1,75.12,48.03,75.56L48.03,75.56z"/>
		</g>
		<g>
			<path class="st0" d="M79.22,141.9c0.35-5.76,0.69-11.49,0.76-17.27c0.07-5.65,0.12-11.3,0.17-16.96
				c0.01-1.12,0.02-2.25,0.06-3.37c0.02-0.63,0.04-1.27,0.07-1.9c0-0.09,0.05-0.96,0.02-0.51c-0.02,0.42,0.04-0.62,0.05-0.72
				c0.09-1.18,0.22-2.37,0.39-3.54c0.09-0.62,0.19-1.23,0.3-1.85c0.05-0.27,0.1-0.54,0.16-0.81c0.02-0.11,0.27-1.21,0.13-0.61
				c1.06-4.35,3.03-7.89,6.16-10.97c3.62-3.57,8.06-5.45,12.91-6.84c1.54-0.44,1.82-2.97,1.68-4.2c-0.16-1.44-0.89-3.09-2.52-3.22
				c-5.02-0.43-9.78,2.41-13.47,5.58c-3.97,3.41-6.99,7.9-8.73,12.83c-1.86,5.28-2.37,10.91-2.52,16.48
				c-0.16,5.76-0.02,11.53,0.03,17.29c0.03,3.45,0.06,6.9,0.16,10.35c0.11,3.45,0.37,6.89,0.57,10.33c0.06,1.06,0.55,2.72,1.88,2.71
				C78.84,144.69,79.16,142.9,79.22,141.9L79.22,141.9z"/>
		</g>
	</g>
	<g>
		<path class="st0" d="M191.24,297.48c4.28,3.25,8.67,6.35,13.12,9.36c2.21,1.49,4.41,3,6.64,4.47c2.06,1.36,4.43,3.14,6.97,3.29
			c1.92,0.11,1.71-3.26,1.05-4.26c-1.54-2.31-3.98-3.89-6.27-5.4c-2.21-1.47-4.45-2.9-6.68-4.34c-4.44-2.87-8.95-5.64-13.54-8.26
			c-1.05-0.6-1.93,0.9-2.12,1.67C190.14,295.1,190.26,296.74,191.24,297.48L191.24,297.48z"/>
	</g>
	<g>
		<path class="st0" d="M219.55,264.99c5.16-0.43,10.36-0.32,15.5,0.34c5.05,0.65,10.03,1.91,15.11,2.17
			c1.65,0.08,1.68-3.27,0.6-3.95c-2.23-1.4-4.76-2.59-7.31-3.23c-2.66-0.67-5.36-1.14-8.1-1.4c-5.31-0.49-10.65-0.38-15.94,0.28
			c-1.36,0.17-1.86,1.74-1.83,2.94C217.6,263.16,218.18,265.1,219.55,264.99L219.55,264.99z"/>
	</g>
	<g>
		<path class="st0" d="M184.41,154.18c4.56-3.49,9.12-6.99,13.69-10.48c4.61-3.53,9.42-6.87,13.44-11.07
			c0.67-0.69,0.8-1.81,0.51-2.7c-0.2-0.63-0.87-1.66-1.69-1.2c-5.06,2.79-9.43,6.69-13.94,10.27c-4.58,3.65-9.17,7.3-13.75,10.94
			C181.08,151.2,182.26,155.83,184.41,154.18L184.41,154.18z"/>
	</g>
	<g>
		<path class="st0" d="M6.29,44.75c3.56,2.51,6.87,5.34,9.96,8.43c1.41,1.41,2.92,3.05,4.14,4.42c1.45,1.65,2.84,3.53,4.74,4.65
			c0.66,0.39,1.39-0.4,1.62-0.89c0.4-0.85,0.34-1.77,0.06-2.65c-0.73-2.23-2.24-4.21-3.73-6c-1.47-1.77-3.05-3.43-4.73-5.01
			c-3.15-2.97-6.63-5.59-10.3-7.89C5.42,38.17,4.4,43.41,6.29,44.75L6.29,44.75z"/>
	</g>
	<g>
		<path class="st0" d="M2.29,129.03c4.91-2.27,9.96-4.23,15.12-5.85c2.51-0.79,5.04-1.54,7.57-2.23c2.71-0.75,5.35-1.8,7.93-2.94
			c1.33-0.58,1.2-3.73-0.43-3.79c-2.67-0.1-5.43,0.07-8.03,0.71c-2.71,0.67-5.38,1.45-8.02,2.37c-5.21,1.82-10.3,3.98-15.23,6.44
			C-0.85,124.76-0.13,130.14,2.29,129.03L2.29,129.03z"/>
	</g>
	<g>
		<path class="st0" d="M47.44,294.95c4.13-2.09,8.1-4.5,11.8-7.29c3.75-2.82,7.53-5.88,10.19-9.77c0.83-1.22,0.06-4.87-1.86-3.45
			c-0.88,0.65-1.71,1.26-2.49,2.03c-0.79,0.78-1.6,1.55-2.43,2.31c-1.65,1.51-3.33,2.99-5.07,4.4c-3.49,2.81-7.14,5.42-10.98,7.73
			c-0.87,0.52-1.1,1.67-0.9,2.62C45.85,294.23,46.53,295.41,47.44,294.95L47.44,294.95z"/>
	</g>
</g>
</svg>
