<svg xmlns="http://www.w3.org/2000/svg" width="2000" height="2000" viewBox="0 0 200 200">
  <path d="M181.646,129.351c-.511-8.095.107-16.9-4.082-24.172-.051-.113-.1-.217-.158-.32,1.993-5.431,2.578-15.649,2.515-17.777a37.636,37.636,0,0,0-5.351-16.294c-5.327-5.379-13.109-7.713-20.305-9.452-11.9-2.07-23.006-7.378-35.078-8.563-6.733-1.112-13.457-.459-20.228-.527-6.764-.666-13.514-1.8-20.337-1.366-8.474.253-15.71,5.281-23.57,7.825-7.323,2.152-15.666,2.609-20.695,9.157-4.39,4.65-9.55,8.941-12.139,14.937-3.765,9.14-3.844,19.907.887,28.7,2.878,4,7.361,6.652,11.57,9.069,8.359,6.13,19.221,6.278,29.171,7.165,9.591.492,18.891,2.982,28.469,3.512,7.323.85,14.627-.646,21.919-1.154,11.612-.019,23.621,1.165,34.8-2.7,2.532-1.163,9.952-2.506,13.91-5.037a33.759,33.759,0,0,1,3.66,5.608c2.166,3.314,3.463,7.061,5.344,10.528,2.015,3.419,2.727,8,5.855,10.587C184.052,150.953,181.681,132.873,181.646,129.351Zm-3.725,10.824c-3.032-6.791-5.625-13.87-9.9-20-1.337-1.231-2.908-4.6-4.913-4.166a2.3,2.3,0,0,0-.559.27c-1.184.315-2.443,1.173-3.539,1.4-3.662,1.4-7.4,2.6-11.091,3.919-4.9,2.138-10.224,2.189-15.437,2.8-14.317,2.617-28.834.848-43.122-.914-8.483-.413-17.071-.075-25.273-2.74-9.532-2.783-19.835-1.621-29.076-5.4-6.179-2.077-10.572-5.479-10.9-12.377-.829-7.048.637-14.672,4.816-20.493C33,77.54,36.789,72.305,41.277,67.747c4.421-3.695,10.385-4.369,15.825-5.6,14.477-4.11,29.531-4.766,44.493-3.846,10.77.252,21.533,2,32.353,3.034,10.742.89,21.343,3.824,30.275,10.011,2.628,2.029,6.11,3.366,7.257,6.738,1.357,3.724,3.716,7.177,3.72,11.257.18,4.357-1.159,8.584-2.189,12.773a7.838,7.838,0,0,0-.734,4.2,4.077,4.077,0,0,0,.405,2.042C178.556,117.694,178.954,129.449,177.921,140.175Z"/>
</svg>
