<svg xmlns="http://www.w3.org/2000/svg" width="2000" height="2000" viewBox="0 0 200 200">
  <path d="M109.192,160.762c.645,1.206,1.338,2.384,1.99,3.582,1.115,2.056,2.082,4.186,3.127,6.28,1.288-5.168,3.265-10.218,3.589-15.575.234-6.088,1.939-11.868,3.541-17.693.659-2.461-.131-5.723,2.081-7.458,5.137-.941,10.766.669,15.747,2.088,9.073,1.219,18.374.567,27.516.043-2.884-4.5-7.171-7.747-10.941-11.453-4.317-4.442-19.013-10.238-17.945-16.906,2.78-7.061,9.824-10.988,13.889-17.238,2.008-3.059,3.058-6.6,4.774-9.815,2.42-4.1,5.471-7.805,7.836-11.937-9.661,2.69-19.6,4.222-29.417,6.169-4.4,1.593-8.711,3.4-13.106,5.022-14.251,7.948-11.167-7.953-12.305-16.756-.917-5.924-2.418-11.393-3.632-17.213-.91-4.86-1.137-9.86-2.5-14.628-4.755,6.115-6.226,13.663-8.558,20.844C91.036,57.309,87.123,66.474,83.6,75.8c2.593,5.491-1.432,7.849-6.524,6.189a32.919,32.919,0,0,1-11.446-.88,29.778,29.778,0,0,1-8.111-1C49.7,77.75,41.58,80.047,33.6,79.236a67.181,67.181,0,0,0,6.47,8.878c3.356,4.982,5.337,10.819,9.7,15.152,3.384,3.831,18.789,12.72,6.423,14.991-5.887,1.709-11.106,4.837-16.641,7.356a94.192,94.192,0,0,0,12.628,3.038c4.636.419,9.8-.109,14.027,2.045,3.2,2.929.608,8.041.575,11.635-.9,4.287-.9,8.361-1.774,12.594-1.33,4.921-3.3,9.666-4.088,14.746,5.783-5.642,10.436-12.27,16.413-17.716,5.525-6.134,9.908-13.208,15.175-19.51,5.092-4.057,6.879,10.648,8.716,13.554C103.463,151.125,106.471,155.89,109.192,160.762Zm3.993,17.858c-4.212-4.27-5.364-10.653-8.084-15.875-3.111-8.218-6.562-16.318-10.28-24.278-4.605,8.829-11.9,15.73-18.91,22.637a62.656,62.656,0,0,1-9.633,10.348c-1.652,1.518-3.54,2.854-4.791,4.748-1.023,2.512-3.832,2.554-4.552-.2-1.713-13.866,2.107-27.926,5.777-41.2-6.219-2.531-13.174-2.486-19.743-3.566-4.986-1.06-10.136.362-15.12-.4a4.487,4.487,0,0,1-3.907-5.733c3.673-7.341,22.934-8.667,30.618-11.572C46.783,109.17,42,101.869,38.57,93.832c-2.177-3.594-5.544-6.354-7.729-9.973-1.279-3.254-6.461-6.049-4.133-9.837,3.311-2.549,8.735,1.45,12.653,1.23,7.216.4,14.353-.713,21.578-.348a56.527,56.527,0,0,1,9.824-1.081c2.657-.292,5.372-1.071,8.012-.293C83.148,61.558,89,50.172,93.728,38.347a88.182,88.182,0,0,1,7.629-16.062c3.1-4.661,6.906,2.25,7.728,5.262,2.182,6.492,1.9,13.478,3.018,20.178,1.206,7.478,3.5,14.643,4.076,22.184,9.491-2.312,19.413-2.586,28.855-5.089,5.422-2.2,10.918-4.136,16.474-5.977,2.521-.7,5.1-3.127,7.783-2.06,7.34,7.47-5.631,18.464-9.9,24.49-4.4,8.276-12.1,14.277-16.172,22.606,11.765,6.336,20.319,16.716,29.159,26.412,3.769,1.183,5.852,7.214,1.078,8.477-3.24.671-6.527-.12-9.8-.01-12.326-.823-24.3-4.5-36.709-3.464-.143,8.748-4.31,16.863-5,25.608C120.331,164.557,119.6,182.987,113.185,178.62Z"/>
</svg>
