<svg xmlns="http://www.w3.org/2000/svg" width="2000" height="2000" viewBox="0 0 200 200">
  <g>
    <path d="M163.2,78.394a2.944,2.944,0,0,0-2.621-2.2c-6.6-2.9-13.039-6.229-20.255-7.422,2.87-2.94,5.63-5.925,7.487-9.645,1.184-1.839,8.322-10.278,2.713-10.082-10.526,2.025-22.343.436-31.1,7.836-.7-2.185-1.853-4.17-2.6-6.326a18.859,18.859,0,0,0-2.986-7.048c-2-2.464-3.591-5.2-5.491-7.738-2.869-3.271-6.3-5.988-9.071-9.359-3.894-2.065-4.885,8.333-5.613,10.724-.161.541-.411,1.429-.609,2.077-1.126,2.791-.8,5.773-.6,8.7-2.533-.722-4.883-1.966-7.449-2.561-3.454-.722-7-.895-10.48-1.507-3.1-.487-6.407-.706-9.4.406-2.4.794-4.074,4.3-1.958,6.229,3.4,2.375,5.165,6.262,8.987,8.171a25.861,25.861,0,0,0,2.588,1.589c-5.428,3.029-10.133,7.311-15.4,10.615C50.421,78.656,43.477,89.232,42,101.179c-2.032,7.106-5.449,13.789-6.549,21.168-1.417,7.494-1.115,15.144-.93,22.726.321,5.913,1.559,12.111,4.758,17.171,5.45,6.711,13.69,11.915,22.32,13.137,9.311.444,17.685-4.22,25.872-7.963a40.282,40.282,0,0,0,8.89-3.752c9.66-4.3,20.267-7.725,26.861-16.585,3.425-3.506,7.867-6.109,10.18-10.59,2.552-5.494,6.7-10.15,8.409-16.037A35.7,35.7,0,0,0,142.9,103.16a29.078,29.078,0,0,0,8.9,3.017c2.383.231,5.259.692,7.285-.842a3.554,3.554,0,0,0,1.133-3.757c-.551-1.126-1.826-1.638-2.519-2.686-3.246-4.607-6.138-9.513-10.864-12.794C151.978,86.126,163.561,85.548,163.2,78.394ZM72.052,49.846c4.363.533,9.1-.166,13.113,1.925,3.084,1.673,6.311,3.072,9.243,5,2.671,1.013,5.43-1.938,5.182-4.555-1-3.511-.652-7.2-1.484-10.777.285-3.317.773-6.638.836-9.991,2.253,2.773,5.4,4.8,6.9,8.136,1.273,3.689,3.564,6.9,4.846,10.564.465,3.815,1.846,7.322,3.1,10.927.2,1.485.573,3.261,1.527,4.085a13.591,13.591,0,0,0-1.469-.427c-2.409-2.842-6.661-2.279-9.809-3.815-4.248-2.482-9.018-3.243-13.875-3.218a31.058,31.058,0,0,0-8.835,0,1.576,1.576,0,0,0-.5-.375c-2-.89-3.285-2.274-5.036-3.65A17.1,17.1,0,0,1,72.052,49.846Zm63.967,70.313c-1.7,4.25-4.322,8.044-6.039,12.3-2.245,4.531-7.6,5.831-10.88,9.405-6.47,6.911-14.3,12.369-22.362,17.265a23.976,23.976,0,0,1-11.366,4.524c-6.943,2.13-13.867,4.22-21.186,4.544-7.312.155-13.969-3.345-19.878-7.328-12.729-8.191-2.933-31.53-1.473-43.954,1.725-7.809,3.49-15.781,6.791-23.09,3.246-5.78,7.1-11.176,10.415-16.909,5.639-6.2,13.138-11.806,21.547-13.3,4.954-.615,9.958.068,14.874.738,3.112.761,5.7,2.882,8.825,3.608.849,3.708,5.613,3.078,8.5,3.922,3.408,1.155,6.234,3.472,9.507,4.923,5.7,2.88,7.7,9.6,11.777,14.177a27.023,27.023,0,0,1,2.91,7.708,2.355,2.355,0,0,0,.1.46C139.463,106.075,138.411,113.513,136.019,120.159Zm4.674-32.69A66.4,66.4,0,0,1,151.21,99.656c-3.6-.726-6.442-3.049-9.616-4.658a2.427,2.427,0,0,0-1.083.057,42.163,42.163,0,0,0-5.544-9.586C132.762,82.12,132,78.017,129.5,74.845c-2.571-3.144-8.347-7.291-12.965-9.219a3.4,3.4,0,0,0,1.611-.472c2.762-2.222,5.255-5.094,8.467-6.863,6.882-2.451,13.876-4.615,21.187-5.333-2.244,2.208-4.4,4.5-6.428,6.93-2.157,1.823-4.365,3.57-6.368,5.578-1.524,1.361-3.535,2.1-4.959,3.557-1.671,1.63-1.809,5.624,1.165,5.669,7.1-.22,14.731.276,20.574,4.8-5.165,1.6-10.373.379-15.566-.284a2.841,2.841,0,0,0-2.852,2.188C132.716,84.244,138.94,85.633,140.693,87.469Z"/>
    <path d="M117.291,108.367c-2.9.074-4.85,3.055-6.569,5.065-1.5,1.7-1.708,5.367.96,5.99a3.57,3.57,0,0,0,2.688-1.139c1.8-1.735,3.8-3.28,5.578-5.027C122.038,111.321,120.384,106.085,117.291,108.367Z"/>
    <path d="M100.344,136.048c-2.832.077-4.7,2.866-6.655,4.6-1.942,1.47-3.011,5.239-.328,6.523,1.731.866,7.036-3.493,7.011-5.323C102.645,141.035,102.933,136.572,100.344,136.048Z"/>
    <path d="M117.8,83.827c2.668-3.022-.594-8.065-3.757-3.926-2.717.758-7.181,5.718-5.561,8.656C110.95,92.976,115.544,85.387,117.8,83.827Z"/>
    <path d="M84.531,115.764c-2.564.574-4.213,3.115-5.737,5.078-1.18,1.619-1.048,4.821,1.235,5.341,2.508.109,4.085-2.48,5.683-4.06C87.141,120.537,87.37,115.9,84.531,115.764Z"/>
    <path d="M89.039,75c-2.6,2.172-9.881,8.824-4.988,11.727,2.216.653,3.595-1.89,5.057-3.112a28.751,28.751,0,0,0,3.755-4.138C94.893,76.661,92.218,72.6,89.039,75Z"/>
    <path d="M62.267,93.884c-2.058-.17-3.361,2.1-4.507,3.488-1.687,1.931-3.784,5.349-1.074,7.335,2.893,1.253,4.487-3.309,6.139-4.965C64.177,98.082,64.946,94.675,62.267,93.884Z"/>
    <path d="M59.9,136.878c-2.924-.742-4.944,3.647-6.368,5.625-1.216,1.7-1.8,4.956.543,5.99,2.261.576,3.756-2.091,5.065-3.528C61.111,142.625,63.477,139.005,59.9,136.878Z"/>
  </g>
</svg>
