<svg xmlns="http://www.w3.org/2000/svg" width="2000" height="2000" viewBox="0 0 200 200">
  <path d="M163.215,115.192c-4.9-2.99-10.319-4.593-15.626-6.631a18.792,18.792,0,0,0-4.275-1.533c.161-1.323.266-2.668.3-4.035.7-3.952,2.106-7.888,1.8-11.944-.175-.99-.377-1.976-.59-2.961a1.855,1.855,0,0,0,.189-.109A166.272,166.272,0,0,0,163.4,82.486c1.433-.584,1.894-2.454,1.57-3.846-.309-1.343-1.463-2.571-2.925-2.066-2.774.963-5.609,1.741-8.415,2.608-3.407,1.055-6.977,1.67-10.273,3.041-.7-2.475-1.478-4.927-2.31-7.346-3.523-8.728-12.095-14.351-20.525-17.747a3.607,3.607,0,0,0-1.858-1.3c.726-1.891,1.487-3.774,2.122-5.7,1.33-3.828,2.643-7.664,4.34-11.351,1-1.82-.091-5.362-2.611-4.576-2.656,2-4.641,9.877-6.152,13.221-.648,2.364-1.914,4.708-2.578,7.118-8.568-3.214-18.435-1.46-27.012.9C84,56.967,81.247,58.6,78.592,60.384a2.831,2.831,0,0,0-.163-.315c-1.96-4.241-4.329-8.288-6.024-12.656-1.346-2.115-1.158-8.008-4.863-6.62-2.706,1.949-.558,5.5.077,8A77.693,77.693,0,0,0,74.5,63.337a51.325,51.325,0,0,0-8.581,8.309A34.992,34.992,0,0,0,56.41,91.174a10.679,10.679,0,0,0-1.859.011c-4.357.1-8.714.126-13.071.226-2.92-.041-6.948-.548-6.518,3.645.371,3.895,4.949,2.222,7.619,2.614,4.416.068,8.836.071,13.243-.206a56.083,56.083,0,0,0,1.114,12.6c2.283,8.988,5.692,14.856,10.014,18.72-2.612,3.64-5.221,7.282-7.585,11.1-1.435,2.4-4.343,5.86-1.729,8.431,1.571,1.313,3.158-.291,3.673-1.851,2.065-3.218,4.241-6.375,6.472-9.48,1.117-1.686,2.512-3.319,3.472-5.132,9.654,5.392,22.646,4.264,37.356,5.244.137.009.272.008.409.014a10.134,10.134,0,0,0,.152,1.4c.7,6.2.737,12.426.889,18.647.091,1.316,1.2,2.867,2.641,2.572,3.028-.975,1.644-4.909,1.968-7.29a100.557,100.557,0,0,0-.8-15.416c14.017-1.226,24.43-10.837,28.2-23.894,1.983.353,3.717,1.481,5.6,2.225,4.617,1.587,9.332,2.868,13.578,5.379C164.469,122.238,165.724,116.6,163.215,115.192ZM141.01,101.333c-.584,6.8-2.873,13.571-7.725,18.534-11.858,11.6-21.853,10.943-37.018,12.62-15.15,1.852-28.534-9.56-34.331-22.818-3.478-9.6.87-23.867,5.776-32.5C74.926,62.616,97.87,55.3,112.751,60.836c13.9,3.395,21.561,10.83,25.97,24.408C141.647,90.954,142.5,95,141.01,101.333Zm2.407,11.327a3.294,3.294,0,0,0,.664-.832A2.527,2.527,0,0,1,143.417,112.66Z"/>
</svg>
