<svg xmlns="http://www.w3.org/2000/svg" width="2000" height="2000" viewBox="0 0 200 200">
  <g>
    <path d="M172.705,77.808A60.079,60.079,0,0,0,168.213,60.2c-2.7-5.749-8.321-8.954-12.777-13.165-10.567-11.882-26.261-17.862-41.991-18.076C106,28.842,99.413,32,92.481,34.539,78.7,38.323,65.848,47.753,61.623,61.876c-1.231,5.474-2.611,11.005-2.9,16.624a63.9,63.9,0,0,0,23.258,45.173c8.955,6.253,20.121,8,30.74,9.38,7.3,1.408,14.78.7,21.286-3.082,8.71-4.714,18.408-7.956,25.93-14.614,6.259-5.967,7.611-14.845,10.155-22.733C171.105,87.722,172.835,82.866,172.705,77.808Zm-14.94,30.567a59.3,59.3,0,0,1-24.26,16.847c-9.5,4.214-19.8,2.225-29.547.048l-2.11-.43c-3.064-2.45-7.744-2.095-11.443-3.162a25.076,25.076,0,0,1-16.876-12.314c-5.488-9.331-7.2-20.185-9.834-30.529-.6-9.57,3.745-18.9,9.934-26,15.207-17.744,30.83-20.551,52.91-15.022C141.106,40.765,156.227,48,163.2,61.793c1.988,5.518,2.01,11.517,3.616,17.154C167.386,89.388,163.6,99.822,157.765,108.375Z"/>
    <path d="M58.565,107.066c-7.13-3-15.41,4.229-14.027,11.654.929,3.767,3.6,7.849,7.826,8.06,6.444-.039,10.456-4.5,10.877-10.775a7.8,7.8,0,0,0-1.662-5.261A4.849,4.849,0,0,0,58.565,107.066Zm-5.709,13.791c-1.758.02-2.838-1.577-3.463-3.029-1.123-3.876,4.83-5.994,7.842-4.588a2.6,2.6,0,0,0,1.165,1.551,1.8,1.8,0,0,0,1.119.193C59.691,118.832,56.411,120.709,52.856,120.857Z"/>
    <path d="M47.046,131.55c-3.247-1.918-7.414-.654-10.556.917-5.849,2.827-6.322,12.578.616,14.295,5.667,2.572,13.219-1.993,11.959-8.515C50.364,135.985,49.143,132.882,47.046,131.55Zm-6.28,10.015c-1.246-.279-4.46-.628-3.955-2.369.022.141.062.081.1.022a5.739,5.739,0,0,1,2.4-1.446c1.712-.468,3.672-1.2,5.407-.522a3.591,3.591,0,0,0,.168,2.286C44.191,141.1,42.322,141.447,40.766,141.565Z"/>
    <path d="M39.8,156.791c-2.149-.655-4.4-2.121-6.649-.9-5.056,2.341-6.857,10.4-1.991,13.862C39.962,175.145,48.813,162.282,39.8,156.791Zm-4.249,8.068a2.662,2.662,0,0,1-2.382-1.266,3.205,3.205,0,0,1,.445-.98c.433-.57,1.236-1.122,1.9-.751a2.5,2.5,0,0,0,1.439,1.571,1.843,1.843,0,0,0,1.8-.4,1.268,1.268,0,0,1,.161.405C38.746,164.738,36.614,164.785,35.55,164.859Z"/>
  </g>
</svg>
